<svg version="1.1" viewBox="0.0 0.0 600.0 371.0" fill="none" stroke="none" stroke-linecap="square" stroke-miterlimit="10" width="600" height="371" xmlns:xlink="http://www.w3.org/1999/xlink" xmlns="http://www.w3.org/2000/svg"><path fill="#ffffff" d="M0 0L600.0 0L600.0 371.0L0 371.0L0 0Z" fill-rule="nonzero"/><path stroke="#cccccc" stroke-width="1.0" stroke-linecap="butt" d="M92.5 51.5L92.5 332.5" fill-rule="nonzero"/><path stroke="#cccccc" stroke-width="1.0" stroke-linecap="butt" d="M172.5 51.5L172.5 332.5" fill-rule="nonzero"/><path stroke="#cccccc" stroke-width="1.0" stroke-linecap="butt" d="M253.5 51.5L253.5 332.5" fill-rule="nonzero"/><path stroke="#cccccc" stroke-width="1.0" stroke-linecap="butt" d="M333.5 51.5L333.5 332.5" fill-rule="nonzero"/><path stroke="#cccccc" stroke-width="1.0" stroke-linecap="butt" d="M413.5 51.5L413.5 332.5" fill-rule="nonzero"/><path stroke="#cccccc" stroke-width="1.0" stroke-linecap="butt" d="M494.5 51.5L494.5 332.5" fill-rule="nonzero"/><path stroke="#cccccc" stroke-width="1.0" stroke-linecap="butt" d="M574.5 51.5L574.5 332.5" fill-rule="nonzero"/><path stroke="#333333" stroke-width="1.0" stroke-linecap="butt" d="M45.5 332.5L581.5 332.5" fill-rule="nonzero"/><path stroke="#cccccc" stroke-width="1.0" stroke-linecap="butt" d="M45.5 276.5L581.5 276.5" fill-rule="nonzero"/><path stroke="#cccccc" stroke-width="1.0" stroke-linecap="butt" d="M45.5 220.5L581.5 220.5" fill-rule="nonzero"/><path stroke="#cccccc" stroke-width="1.0" stroke-linecap="butt" d="M45.5 164.5L581.5 164.5" fill-rule="nonzero"/><path stroke="#cccccc" stroke-width="1.0" stroke-linecap="butt" d="M45.5 108.5L581.5 108.5" fill-rule="nonzero"/><path stroke="#cccccc" stroke-width="1.0" stroke-linecap="butt" d="M45.5 51.5L581.5 51.5" fill-rule="nonzero"/><clipPath id="id_0"><path d="M45.55 51.916668L581.45 51.916668L581.45 332.45L45.55 332.45L45.55 51.916668Z" clip-rule="nonzero"/></clipPath><path fill="#4f81bd" clip-path="url(#id_0)" d="M56.871784 248.29C56.871784 250.77528 54.857067 252.79 52.371784 252.79C49.886505 252.79 47.871784 250.77528 47.871784 248.29C47.871784 245.80472 49.886505 243.79 52.371784 243.79C54.857067 243.79 56.871784 245.80472 56.871784 248.29Z" fill-rule="nonzero"/><path fill="#4f81bd" clip-path="url(#id_0)" d="M97.04536 269.61053C97.04536 272.09583 95.03064 274.11053 92.54536 274.11053C90.060074 274.11053 88.04536 272.09583 88.04536 269.61053C88.04536 267.12524 90.060074 265.11053 92.54536 265.11053C95.03064 265.11053 97.04536 267.12524 97.04536 269.61053Z" fill-rule="nonzero"/><path fill="#4f81bd" clip-path="url(#id_0)" d="M137.21893 214.626C137.21893 217.11128 135.20421 219.126 132.71893 219.126C130.23364 219.126 128.21893 217.11128 128.21893 214.626C128.21893 212.14072 130.23364 210.126 132.71893 210.126C135.20421 210.126 137.21893 212.14072 137.21893 214.626Z" fill-rule="nonzero"/><path fill="#4f81bd" clip-path="url(#id_0)" d="M177.3925 222.48093C177.3925 224.96622 175.37778 226.98093 172.8925 226.98093C170.40721 226.98093 168.3925 224.96622 168.3925 222.48093C168.3925 219.99565 170.40721 217.98093 172.8925 217.98093C175.37778 217.98093 177.3925 219.99565 177.3925 222.48093Z" fill-rule="nonzero"/><path fill="#4f81bd" clip-path="url(#id_0)" d="M217.56607 216.87027C217.56607 219.35555 215.55135 221.37027 213.06607 221.37027C210.5808 221.37027 208.56607 219.35555 208.56607 216.87027C208.56607 214.38498 210.5808 212.37027 213.06607 212.37027C215.55135 212.37027 217.56607 214.38498 217.56607 216.87027Z" fill-rule="nonzero"/><path fill="#4f81bd" clip-path="url(#id_0)" d="M257.73965 197.794C257.73965 200.27928 255.72493 202.294 253.23964 202.294C250.75436 202.294 248.73964 200.27928 248.73964 197.794C248.73964 195.30872 250.75436 193.294 253.23964 193.294C255.72493 193.294 257.73965 195.30872 257.73965 197.794Z" fill-rule="nonzero"/><path fill="#4f81bd" clip-path="url(#id_0)" d="M297.9132 242.67934C297.9132 245.16461 295.8985 247.17934 293.4132 247.17934C290.92795 247.17934 288.9132 245.16461 288.9132 242.67934C288.9132 240.19405 290.92795 238.17934 293.4132 238.17934C295.8985 238.17934 297.9132 240.19405 297.9132 242.67934Z" fill-rule="nonzero"/><path fill="#4f81bd" clip-path="url(#id_0)" d="M338.0868 220.23666C338.0868 222.72195 336.07205 224.73666 333.5868 224.73666C331.1015 224.73666 329.0868 222.72195 329.0868 220.23666C329.0868 217.75139 331.1015 215.73666 333.5868 215.73666C336.07205 215.73666 338.0868 217.75139 338.0868 220.23666Z" fill-rule="nonzero"/><path fill="#4f81bd" clip-path="url(#id_0)" d="M378.26035 253.90067C378.26035 256.38596 376.24564 258.40067 373.76035 258.40067C371.2751 258.40067 369.26035 256.38596 369.26035 253.90067C369.26035 251.41539 371.2751 249.40067 373.76035 249.40067C376.24564 249.40067 378.26035 251.41539 378.26035 253.90067Z" fill-rule="nonzero"/><path fill="#4f81bd" clip-path="url(#id_0)" d="M418.43393 231.458C418.43393 233.94328 416.41922 235.958 413.93393 235.958C411.44864 235.958 409.43393 233.94328 409.43393 231.458C409.43393 228.97272 411.44864 226.958 413.93393 226.958C416.41922 226.958 418.43393 228.97272 418.43393 231.458Z" fill-rule="nonzero"/><path fill="#4f81bd" clip-path="url(#id_0)" d="M458.6075 237.06866C458.6075 239.55396 456.59277 241.56866 454.1075 241.56866C451.62222 241.56866 449.6075 239.55396 449.6075 237.06866C449.6075 234.58339 451.62222 232.56866 454.1075 232.56866C456.59277 232.56866 458.6075 234.58339 458.6075 237.06866Z" fill-rule="nonzero"/><path fill="#4f81bd" clip-path="url(#id_0)" d="M498.78107 209.01534C498.78107 211.50061 496.76636 213.51534 494.28107 213.51534C491.79578 213.51534 489.78107 211.50061 489.78107 209.01534C489.78107 206.53004 491.79578 204.51534 494.28107 204.51534C496.76636 204.51534 498.78107 206.53004 498.78107 209.01534Z" fill-rule="nonzero"/><path fill="#4f81bd" clip-path="url(#id_0)" d="M538.95465 192.18333C538.95465 194.66861 536.93994 196.68333 534.45465 196.68333C531.96936 196.68333 529.95465 194.66861 529.95465 192.18333C529.95465 189.69806 531.96936 187.68333 534.45465 187.68333C536.93994 187.68333 538.95465 189.69806 538.95465 192.18333Z" fill-rule="nonzero"/><path fill="#4f81bd" clip-path="url(#id_0)" d="M579.12823 197.794C579.12823 200.27928 577.1135 202.294 574.62823 202.294C572.14294 202.294 570.12823 200.27928 570.12823 197.794C570.12823 195.30872 572.14294 193.294 574.62823 193.294C577.1135 193.294 579.12823 195.30872 579.12823 197.794Z" fill-rule="nonzero"/><path fill="#c0504d" clip-path="url(#id_0)" d="M56.871784 203.40466C56.871784 205.88995 54.857067 207.90466 52.371784 207.90466C49.886505 207.90466 47.871784 205.88995 47.871784 203.40466C47.871784 200.91939 49.886505 198.90466 52.371784 198.90466C54.857067 198.90466 56.871784 200.91939 56.871784 203.40466Z" fill-rule="nonzero"/><path fill="#c0504d" clip-path="url(#id_0)" d="M97.04536 186.57266C97.04536 189.05795 95.03064 191.07266 92.54536 191.07266C90.060074 191.07266 88.04536 189.05795 88.04536 186.57266C88.04536 184.08739 90.060074 182.07266 92.54536 182.07266C95.03064 182.07266 97.04536 184.08739 97.04536 186.57266Z" fill-rule="nonzero"/><path fill="#c0504d" clip-path="url(#id_0)" d="M137.21893 166.37427C137.21893 168.85954 135.20421 170.87427 132.71893 170.87427C130.23364 170.87427 128.21893 168.85954 128.21893 166.37427C128.21893 163.88899 130.23364 161.87427 132.71893 161.87427C135.20421 161.87427 137.21893 163.88899 137.21893 166.37427Z" fill-rule="nonzero"/><path fill="#c0504d" clip-path="url(#id_0)" d="M177.3925 200.03827C177.3925 202.52354 175.37778 204.53827 172.8925 204.53827C170.40721 204.53827 168.3925 202.52354 168.3925 200.03827C168.3925 197.55298 170.40721 195.53827 172.8925 195.53827C175.37778 195.53827 177.3925 197.55298 177.3925 200.03827Z" fill-rule="nonzero"/><path fill="#c0504d" clip-path="url(#id_0)" d="M217.56607 158.51933C217.56607 161.00461 215.55135 163.01933 213.06607 163.01933C210.5808 163.01933 208.56607 161.00461 208.56607 158.51933C208.56607 156.03406 210.5808 154.01933 213.06607 154.01933C215.55135 154.01933 217.56607 156.03406 217.56607 158.51933Z" fill-rule="nonzero"/><path fill="#c0504d" clip-path="url(#id_0)" d="M257.73965 177.5956C257.73965 180.08089 255.72493 182.0956 253.23964 182.0956C250.75436 182.0956 248.73964 180.08089 248.73964 177.5956C248.73964 175.11032 250.75436 173.0956 253.23964 173.0956C255.72493 173.0956 257.73965 175.11032 257.73965 177.5956Z" fill-rule="nonzero"/><path fill="#c0504d" clip-path="url(#id_0)" d="M297.9132 141.68733C297.9132 144.1726 295.8985 146.18733 293.4132 146.18733C290.92795 146.18733 288.9132 144.1726 288.9132 141.68733C288.9132 139.20206 290.92795 137.18733 293.4132 137.18733C295.8985 137.18733 297.9132 139.20206 297.9132 141.68733Z" fill-rule="nonzero"/><path fill="#c0504d" clip-path="url(#id_0)" d="M338.0868 82.214264C338.0868 84.69955 336.07205 86.714264 333.5868 86.714264C331.1015 86.714264 329.0868 84.69955 329.0868 82.214264C329.0868 79.72899 331.1015 77.714264 333.5868 77.714264C336.07205 77.714264 338.0868 79.72899 338.0868 82.214264Z" fill-rule="nonzero"/><path fill="#c0504d" clip-path="url(#id_0)" d="M378.26035 154.0308C378.26035 156.51608 376.24564 158.5308 373.76035 158.5308C371.2751 158.5308 369.26035 156.51608 369.26035 154.0308C369.26035 151.54552 371.2751 149.5308 373.76035 149.5308C376.24564 149.5308 378.26035 151.54552 378.26035 154.0308Z" fill-rule="nonzero"/><path fill="#c0504d" clip-path="url(#id_0)" d="M418.43393 261.7556C418.43393 264.24088 416.41922 266.2556 413.93393 266.2556C411.44864 266.2556 409.43393 264.24088 409.43393 261.7556C409.43393 259.27032 411.44864 257.2556 413.93393 257.2556C416.41922 257.2556 418.43393 259.27032 418.43393 261.7556Z" fill-rule="nonzero"/><path fill="#c0504d" clip-path="url(#id_0)" d="M458.6075 184.3284C458.6075 186.81367 456.59277 188.8284 454.1075 188.8284C451.62222 188.8284 449.6075 186.81367 449.6075 184.3284C449.6075 181.84312 451.62222 179.8284 454.1075 179.8284C456.59277 179.8284 458.6075 181.84312 458.6075 184.3284Z" fill-rule="nonzero"/><path fill="#c0504d" clip-path="url(#id_0)" d="M498.78107 237.06866C498.78107 239.55396 496.76636 241.56866 494.28107 241.56866C491.79578 241.56866 489.78107 239.55396 489.78107 237.06866C489.78107 234.58339 491.79578 232.56866 494.28107 232.56866C496.76636 232.56866 498.78107 234.58339 498.78107 237.06866Z" fill-rule="nonzero"/><path fill="#c0504d" clip-path="url(#id_0)" d="M538.95465 238.1908C538.95465 240.67609 536.93994 242.6908 534.45465 242.6908C531.96936 242.6908 529.95465 240.67609 529.95465 238.1908C529.95465 235.70552 531.96936 233.6908 534.45465 233.6908C536.93994 233.6908 538.95465 235.70552 538.95465 238.1908Z" fill-rule="nonzero"/><path fill="#c0504d" clip-path="url(#id_0)" d="M579.12823 175.35133C579.12823 177.83661 577.1135 179.85133 574.62823 179.85133C572.14294 179.85133 570.12823 177.83661 570.12823 175.35133C570.12823 172.86606 572.14294 170.85133 574.62823 170.85133C577.1135 170.85133 579.12823 172.86606 579.12823 175.35133Z" fill-rule="nonzero"/><path fill="#000000" d="M33.05 332.21564Q33.05 330.6844 33.3625 329.7625Q33.675 328.825 34.284374 328.325Q34.909374 327.825 35.846874 327.825Q36.534374 327.825 37.05 328.10626Q37.58125 328.3875 37.925 328.91876Q38.26875 329.4344 38.45625 330.1844Q38.64375 330.9344 38.64375 332.21564Q38.64375 333.73126 38.33125 334.65314Q38.034374 335.575 37.409374 336.09064Q36.8 336.59064 35.846874 336.59064Q34.6125 336.59064 33.89375 335.7Q33.05 334.6375 33.05 332.21564ZM34.128124 332.21564Q34.128124 334.325 34.628124 335.02814Q35.128124 335.73126 35.846874 335.73126Q36.58125 335.73126 37.065624 335.02814Q37.565624 334.325 37.565624 332.21564Q37.565624 330.09064 37.065624 329.40314Q36.58125 328.7 35.83125 328.7Q35.1125 328.7 34.675 329.3094Q34.128124 330.09064 34.128124 332.21564Z" fill-rule="nonzero"/><path fill="#000000" d="M26.05 278.09332L27.159374 277.99957Q27.284374 278.81207 27.721874 279.21832Q28.175 279.62457 28.815624 279.62457Q29.565624 279.62457 30.096874 279.04645Q30.628124 278.46832 30.628124 277.53082Q30.628124 276.62457 30.1125 276.10895Q29.6125 275.5777 28.784374 275.5777Q28.284374 275.5777 27.8625 275.81207Q27.45625 276.04645 27.221874 276.40582L26.2375 276.28082L27.065624 271.87457L31.346874 271.87457L31.346874 272.87457L27.909374 272.87457L27.45625 275.18707Q28.221874 274.6402 29.065624 274.6402Q30.190624 274.6402 30.95625 275.42145Q31.7375 276.2027 31.7375 277.43707Q31.7375 278.59332 31.065624 279.4527Q30.2375 280.48395 28.815624 280.48395Q27.64375 280.48395 26.89375 279.8277Q26.159374 279.17145 26.05 278.09332ZM33.05 276.10895Q33.05 274.5777 33.3625 273.65582Q33.675 272.71832 34.284374 272.21832Q34.909374 271.71832 35.846874 271.71832Q36.534374 271.71832 37.05 271.99957Q37.58125 272.28082 37.925 272.81207Q38.26875 273.3277 38.45625 274.0777Q38.64375 274.8277 38.64375 276.10895Q38.64375 277.62457 38.33125 278.54645Q38.034374 279.46832 37.409374 279.98395Q36.8 280.48395 35.846874 280.48395Q34.6125 280.48395 33.89375 279.59332Q33.05 278.53082 33.05 276.10895ZM34.128124 276.10895Q34.128124 278.21832 34.628124 278.92145Q35.128124 279.62457 35.846874 279.62457Q36.58125 279.62457 37.065624 278.92145Q37.565624 278.21832 37.565624 276.10895Q37.565624 273.98395 37.065624 273.29645Q36.58125 272.59332 35.83125 272.59332Q35.1125 272.59332 34.675 273.2027Q34.128124 273.98395 34.128124 276.10895Z" fill-rule="nonzero"/><path fill="#000000" d="M23.01875 224.23666L21.971874 224.23666L21.971874 217.51791Q21.58125 217.87729 20.95625 218.25229Q20.346874 218.61166 19.8625 218.78354L19.8625 217.76791Q20.7375 217.34604 21.39375 216.76791Q22.065624 216.17416 22.346874 215.61166L23.01875 215.61166L23.01875 224.23666ZM26.05 220.00229Q26.05 218.47104 26.3625 217.54916Q26.675 216.61166 27.284374 216.11166Q27.909374 215.61166 28.846874 215.61166Q29.534374 215.61166 30.05 215.89291Q30.58125 216.17416 30.925 216.70541Q31.26875 217.22104 31.45625 217.97104Q31.64375 218.72104 31.64375 220.00229Q31.64375 221.51791 31.33125 222.43979Q31.034374 223.36166 30.409374 223.87729Q29.8 224.37729 28.846874 224.37729Q27.6125 224.37729 26.89375 223.48666Q26.05 222.42416 26.05 220.00229ZM27.128124 220.00229Q27.128124 222.11166 27.628124 222.81479Q28.128124 223.51791 28.846874 223.51791Q29.58125 223.51791 30.065624 222.81479Q30.565624 222.11166 30.565624 220.00229Q30.565624 217.87729 30.065624 217.18979Q29.58125 216.48666 28.83125 216.48666Q28.1125 216.48666 27.675 217.09604Q27.128124 217.87729 27.128124 220.00229ZM33.05 220.00229Q33.05 218.47104 33.3625 217.54916Q33.675 216.61166 34.284374 216.11166Q34.909374 215.61166 35.846874 215.61166Q36.534374 215.61166 37.05 215.89291Q37.58125 216.17416 37.925 216.70541Q38.26875 217.22104 38.45625 217.97104Q38.64375 218.72104 38.64375 220.00229Q38.64375 221.51791 38.33125 222.43979Q38.034374 223.36166 37.409374 223.87729Q36.8 224.37729 35.846874 224.37729Q34.6125 224.37729 33.89375 223.48666Q33.05 222.42416 33.05 220.00229ZM34.128124 220.00229Q34.128124 222.11166 34.628124 222.81479Q35.128124 223.51791 35.846874 223.51791Q36.58125 223.51791 37.065624 222.81479Q37.565624 222.11166 37.565624 220.00229Q37.565624 217.87729 37.065624 217.18979Q36.58125 216.48666 35.83125 216.48666Q35.1125 216.48666 34.675 217.09604Q34.128124 217.87729 34.128124 220.00229Z" fill-rule="nonzero"/><path fill="#000000" d="M23.01875 168.13L21.971874 168.13L21.971874 161.41125Q21.58125 161.77063 20.95625 162.14563Q20.346874 162.505 19.8625 162.67688L19.8625 161.66125Q20.7375 161.23938 21.39375 160.66125Q22.065624 160.0675 22.346874 159.505L23.01875 159.505L23.01875 168.13ZM26.05 165.88L27.159374 165.78625Q27.284374 166.59875 27.721874 167.005Q28.175 167.41125 28.815624 167.41125Q29.565624 167.41125 30.096874 166.83313Q30.628124 166.255 30.628124 165.3175Q30.628124 164.41125 30.1125 163.89563Q29.6125 163.36438 28.784374 163.36438Q28.284374 163.36438 27.8625 163.59875Q27.45625 163.83313 27.221874 164.1925L26.2375 164.0675L27.065624 159.66125L31.346874 159.66125L31.346874 160.66125L27.909374 160.66125L27.45625 162.97375Q28.221874 162.42688 29.065624 162.42688Q30.190624 162.42688 30.95625 163.20813Q31.7375 163.98938 31.7375 165.22375Q31.7375 166.38 31.065624 167.23938Q30.2375 168.27063 28.815624 168.27063Q27.64375 168.27063 26.89375 167.61438Q26.159374 166.95813 26.05 165.88ZM33.05 163.89563Q33.05 162.36438 33.3625 161.4425Q33.675 160.505 34.284374 160.005Q34.909374 159.505 35.846874 159.505Q36.534374 159.505 37.05 159.78625Q37.58125 160.0675 37.925 160.59875Q38.26875 161.11438 38.45625 161.86438Q38.64375 162.61438 38.64375 163.89563Q38.64375 165.41125 38.33125 166.33313Q38.034374 167.255 37.409374 167.77063Q36.8 168.27063 35.846874 168.27063Q34.6125 168.27063 33.89375 167.38Q33.05 166.3175 33.05 163.89563ZM34.128124 163.89563Q34.128124 166.005 34.628124 166.70813Q35.128124 167.41125 35.846874 167.41125Q36.58125 167.41125 37.065624 166.70813Q37.565624 166.005 37.565624 163.89563Q37.565624 161.77063 37.065624 161.08313Q36.58125 160.38 35.83125 160.38Q35.1125 160.38 34.675 160.98938Q34.128124 161.77063 34.128124 163.89563Z" fill-rule="nonzero"/><path fill="#000000" d="M24.596874 111.007706L24.596874 112.02333L18.909374 112.02333Q18.909374 111.64833 19.034374 111.288956Q19.253124 110.71083 19.721874 110.14833Q20.20625 109.58583 21.1125 108.851456Q22.51875 107.695206 23.003124 107.02333Q23.503124 106.351456 23.503124 105.757706Q23.503124 105.132706 23.05 104.71083Q22.596874 104.27333 21.878124 104.27333Q21.1125 104.27333 20.659374 104.726456Q20.20625 105.17958 20.190624 105.99208L19.1125 105.882706Q19.221874 104.663956 19.940624 104.038956Q20.675 103.39833 21.909374 103.39833Q23.14375 103.39833 23.8625 104.08583Q24.58125 104.77333 24.58125 105.788956Q24.58125 106.30458 24.3625 106.80458Q24.159374 107.288956 23.659374 107.851456Q23.175 108.39833 22.05 109.351456Q21.096874 110.14833 20.815624 110.445206Q20.55 110.726456 20.378124 111.007706L24.596874 111.007706ZM26.05 107.788956Q26.05 106.257706 26.3625 105.33583Q26.675 104.39833 27.284374 103.89833Q27.909374 103.39833 28.846874 103.39833Q29.534374 103.39833 30.05 103.67958Q30.58125 103.96083 30.925 104.49208Q31.26875 105.007706 31.45625 105.757706Q31.64375 106.507706 31.64375 107.788956Q31.64375 109.30458 31.33125 110.226456Q31.034374 111.14833 30.409374 111.663956Q29.8 112.163956 28.846874 112.163956Q27.6125 112.163956 26.89375 111.27333Q26.05 110.21083 26.05 107.788956ZM27.128124 107.788956Q27.128124 109.89833 27.628124 110.601456Q28.128124 111.30458 28.846874 111.30458Q29.58125 111.30458 30.065624 110.601456Q30.565624 109.89833 30.565624 107.788956Q30.565624 105.663956 30.065624 104.976456Q29.58125 104.27333 28.83125 104.27333Q28.1125 104.27333 27.675 104.882706Q27.128124 105.663956 27.128124 107.788956ZM33.05 107.788956Q33.05 106.257706 33.3625 105.33583Q33.675 104.39833 34.284374 103.89833Q34.909374 103.39833 35.846874 103.39833Q36.534374 103.39833 37.05 103.67958Q37.58125 103.96083 37.925 104.49208Q38.26875 105.007706 38.45625 105.757706Q38.64375 106.507706 38.64375 107.788956Q38.64375 109.30458 38.33125 110.226456Q38.034374 111.14833 37.409374 111.663956Q36.8 112.163956 35.846874 112.163956Q34.6125 112.163956 33.89375 111.27333Q33.05 110.21083 33.05 107.788956ZM34.128124 107.788956Q34.128124 109.89833 34.628124 110.601456Q35.128124 111.30458 35.846874 111.30458Q36.58125 111.30458 37.065624 110.601456Q37.565624 109.89833 37.565624 107.788956Q37.565624 105.663956 37.065624 104.976456Q36.58125 104.27333 35.83125 104.27333Q35.1125 104.27333 34.675 104.882706Q34.128124 105.663956 34.128124 107.788956Z" fill-rule="nonzero"/><path fill="#000000" d="M24.596874 54.901043L24.596874 55.916668L18.909374 55.916668Q18.909374 55.541668 19.034374 55.182293Q19.253124 54.604168 19.721874 54.041668Q20.20625 53.479168 21.1125 52.744793Q22.51875 51.588543 23.003124 50.916668Q23.503124 50.244793 23.503124 49.651043Q23.503124 49.026043 23.05 48.604168Q22.596874 48.166668 21.878124 48.166668Q21.1125 48.166668 20.659374 48.619793Q20.20625 49.072918 20.190624 49.885418L19.1125 49.776043Q19.221874 48.557293 19.940624 47.932293Q20.675 47.291668 21.909374 47.291668Q23.14375 47.291668 23.8625 47.979168Q24.58125 48.666668 24.58125 49.682293Q24.58125 50.197918 24.3625 50.697918Q24.159374 51.182293 23.659374 51.744793Q23.175 52.291668 22.05 53.244793Q21.096874 54.041668 20.815624 54.338543Q20.55 54.619793 20.378124 54.901043L24.596874 54.901043ZM26.05 53.666668L27.159374 53.572918Q27.284374 54.385418 27.721874 54.791668Q28.175 55.197918 28.815624 55.197918Q29.565624 55.197918 30.096874 54.619793Q30.628124 54.041668 30.628124 53.104168Q30.628124 52.197918 30.1125 51.682293Q29.6125 51.151043 28.784374 51.151043Q28.284374 51.151043 27.8625 51.385418Q27.45625 51.619793 27.221874 51.979168L26.2375 51.854168L27.065624 47.447918L31.346874 47.447918L31.346874 48.447918L27.909374 48.447918L27.45625 50.760418Q28.221874 50.213543 29.065624 50.213543Q30.190624 50.213543 30.95625 50.994793Q31.7375 51.776043 31.7375 53.010418Q31.7375 54.166668 31.065624 55.026043Q30.2375 56.057293 28.815624 56.057293Q27.64375 56.057293 26.89375 55.401043Q26.159374 54.744793 26.05 53.666668ZM33.05 51.682293Q33.05 50.151043 33.3625 49.229168Q33.675 48.291668 34.284374 47.791668Q34.909374 47.291668 35.846874 47.291668Q36.534374 47.291668 37.05 47.572918Q37.58125 47.854168 37.925 48.385418Q38.26875 48.901043 38.45625 49.651043Q38.64375 50.401043 38.64375 51.682293Q38.64375 53.197918 38.33125 54.119793Q38.034374 55.041668 37.409374 55.557293Q36.8 56.057293 35.846874 56.057293Q34.6125 56.057293 33.89375 55.166668Q33.05 54.104168 33.05 51.682293ZM34.128124 51.682293Q34.128124 53.791668 34.628124 54.494793Q35.128124 55.197918 35.846874 55.197918Q36.58125 55.197918 37.065624 54.494793Q37.565624 53.791668 37.565624 51.682293Q37.565624 49.557293 37.065624 48.869793Q36.58125 48.166668 35.83125 48.166668Q35.1125 48.166668 34.675 48.776043Q34.128124 49.557293 34.128124 51.682293Z" fill-rule="nonzero"/><path fill="#000000" d="M95.09223 348.4344L95.09223 349.45L89.40473 349.45Q89.40473 349.075 89.52973 348.71564Q89.74848 348.1375 90.21723 347.575Q90.70161 347.0125 91.60786 346.27814Q93.01411 345.1219 93.49848 344.45Q93.99848 343.77814 93.99848 343.1844Q93.99848 342.5594 93.54536 342.1375Q93.09223 341.7 92.37348 341.7Q91.60786 341.7 91.15473 342.15314Q90.70161 342.60626 90.68598 343.41876L89.60786 343.3094Q89.71723 342.09064 90.43598 341.46564Q91.17036 340.825 92.40473 340.825Q93.63911 340.825 94.35786 341.5125Q95.07661 342.2 95.07661 343.21564Q95.07661 343.73126 94.85786 344.23126Q94.65473 344.71564 94.15473 345.27814Q93.67036 345.825 92.54536 346.77814Q91.59223 347.575 91.31098 347.8719Q91.04536 348.15314 90.87348 348.4344L95.09223 348.4344Z" fill-rule="nonzero"/><path fill="#000000" d="M173.2675 349.45L173.2675 347.3875L169.54875 347.3875L169.54875 346.41876L173.47063 340.85626L174.33 340.85626L174.33 346.41876L175.48625 346.41876L175.48625 347.3875L174.33 347.3875L174.33 349.45L173.2675 349.45ZM173.2675 346.41876L173.2675 342.5594L170.58 346.41876L173.2675 346.41876Z" fill-rule="nonzero"/><path fill="#000000" d="M255.70839 342.96564L254.66151 343.04376Q254.52089 342.41876 254.27089 342.1375Q253.83339 341.6844 253.20839 341.6844Q252.70839 341.6844 252.31776 341.96564Q251.83339 342.34064 251.53651 343.04376Q251.25526 343.73126 251.23964 345.0125Q251.61464 344.4344 252.16151 344.15314Q252.72401 343.8719 253.33339 343.8719Q254.38026 343.8719 255.11464 344.65314Q255.86464 345.4344 255.86464 346.65314Q255.86464 347.46564 255.50526 348.16876Q255.16151 348.85626 254.55214 349.23126Q253.94276 349.59064 253.17714 349.59064Q251.84901 349.59064 251.02089 348.6219Q250.19276 347.65314 250.19276 345.4344Q250.19276 342.9344 251.11464 341.8094Q251.91151 340.825 253.27089 340.825Q254.28651 340.825 254.92714 341.40314Q255.58339 341.96564 255.70839 342.96564ZM251.41151 346.66876Q251.41151 347.21564 251.63026 347.71564Q251.86464 348.2 252.27089 348.46564Q252.69276 348.73126 253.16151 348.73126Q253.81776 348.73126 254.30214 348.2Q254.78651 347.65314 254.78651 346.73126Q254.78651 345.84064 254.30214 345.325Q253.83339 344.8094 253.11464 344.8094Q252.39589 344.8094 251.89589 345.325Q251.41151 345.84064 251.41151 346.66876Z" fill-rule="nonzero"/><path fill="#000000" d="M332.2118 344.79376Q331.55554 344.54376 331.22742 344.10626Q330.91492 343.65314 330.91492 343.04376Q330.91492 342.10626 331.5868 341.46564Q332.2743 340.825 333.38367 340.825Q334.50867 340.825 335.19617 341.48126Q335.88367 342.1375 335.88367 343.075Q335.88367 343.66876 335.57117 344.10626Q335.25867 344.54376 334.61804 344.79376Q335.41492 345.04376 335.82117 345.6219Q336.22742 346.2 336.22742 346.9969Q336.22742 348.09064 335.44617 348.84064Q334.68054 349.59064 333.3993 349.59064Q332.13367 349.59064 331.35242 348.84064Q330.57117 348.09064 330.57117 346.96564Q330.57117 346.1219 330.99304 345.5594Q331.43054 344.9969 332.2118 344.79376ZM331.99304 342.9969Q331.99304 343.60626 332.38367 343.9969Q332.78992 344.3875 333.41492 344.3875Q334.0243 344.3875 334.41492 344.0125Q334.80554 343.6219 334.80554 343.0594Q334.80554 342.48126 334.3993 342.09064Q333.99304 341.6844 333.3993 341.6844Q332.78992 341.6844 332.38367 342.075Q331.99304 342.46564 331.99304 342.9969ZM331.66492 346.96564Q331.66492 347.41876 331.86804 347.84064Q332.0868 348.2625 332.50867 348.4969Q332.93054 348.73126 333.41492 348.73126Q334.16492 348.73126 334.6493 348.2469Q335.1493 347.7625 335.1493 347.0125Q335.1493 346.2469 334.6493 345.7469Q334.1493 345.2469 333.38367 345.2469Q332.63367 345.2469 332.1493 345.7469Q331.66492 346.23126 331.66492 346.96564Z" fill-rule="nonzero"/><path fill="#000000" d="M411.40268 349.45L410.3558 349.45L410.3558 342.73126Q409.96518 343.09064 409.34018 343.46564Q408.7308 343.825 408.24643 343.9969L408.24643 342.98126Q409.12143 342.5594 409.77768 341.98126Q410.44955 341.3875 410.7308 340.825L411.40268 340.825L411.40268 349.45ZM414.43393 345.21564Q414.43393 343.6844 414.74643 342.7625Q415.05893 341.825 415.6683 341.325Q416.2933 340.825 417.2308 340.825Q417.9183 340.825 418.43393 341.10626Q418.96518 341.3875 419.30893 341.91876Q419.65268 342.4344 419.84018 343.1844Q420.02768 343.9344 420.02768 345.21564Q420.02768 346.73126 419.71518 347.65314Q419.4183 348.575 418.7933 349.09064Q418.18393 349.59064 417.2308 349.59064Q415.99643 349.59064 415.27768 348.7Q414.43393 347.6375 414.43393 345.21564ZM415.51205 345.21564Q415.51205 347.325 416.01205 348.02814Q416.51205 348.73126 417.2308 348.73126Q417.96518 348.73126 418.44955 348.02814Q418.94955 347.325 418.94955 345.21564Q418.94955 343.09064 418.44955 342.40314Q417.96518 341.7 417.21518 341.7Q416.49643 341.7 416.05893 342.3094Q415.51205 343.09064 415.51205 345.21564Z" fill-rule="nonzero"/><path fill="#000000" d="M491.74982 349.45L490.70294 349.45L490.70294 342.73126Q490.31232 343.09064 489.68732 343.46564Q489.07794 343.825 488.59357 343.9969L488.59357 342.98126Q489.46857 342.5594 490.12482 341.98126Q490.7967 341.3875 491.07794 340.825L491.74982 340.825L491.74982 349.45ZM500.32794 348.4344L500.32794 349.45L494.64044 349.45Q494.64044 349.075 494.76544 348.71564Q494.9842 348.1375 495.45294 347.575Q495.93732 347.0125 496.84357 346.27814Q498.24982 345.1219 498.7342 344.45Q499.2342 343.77814 499.2342 343.1844Q499.2342 342.5594 498.78107 342.1375Q498.32794 341.7 497.6092 341.7Q496.84357 341.7 496.39044 342.15314Q495.93732 342.60626 495.9217 343.41876L494.84357 343.3094Q494.95294 342.09064 495.6717 341.46564Q496.40607 340.825 497.64044 340.825Q498.87482 340.825 499.59357 341.5125Q500.31232 342.2 500.31232 343.21564Q500.31232 343.73126 500.09357 344.23126Q499.89044 344.71564 499.39044 345.27814Q498.90607 345.825 497.78107 346.77814Q496.82794 347.575 496.5467 347.8719Q496.28107 348.15314 496.1092 348.4344L500.32794 348.4344Z" fill-rule="nonzero"/><path fill="#000000" d="M572.097 349.45L571.0501 349.45L571.0501 342.73126Q570.6595 343.09064 570.0345 343.46564Q569.4251 343.825 568.94073 343.9969L568.94073 342.98126Q569.81573 342.5594 570.472 341.98126Q571.14386 341.3875 571.4251 340.825L572.097 340.825L572.097 349.45ZM578.50323 349.45L578.50323 347.3875L574.7845 347.3875L574.7845 346.41876L578.70636 340.85626L579.56573 340.85626L579.56573 346.41876L580.722 346.41876L580.722 347.3875L579.56573 347.3875L579.56573 349.45L578.50323 349.45ZM578.50323 346.41876L578.50323 342.5594L575.81573 346.41876L578.50323 346.41876Z" fill-rule="nonzero"/><path fill="#4f81bd" d="M116.0 25.55C116.0 28.863708 113.313705 31.55 110.0 31.55C106.686295 31.55 104.0 28.863708 104.0 25.55C104.0 22.236292 106.686295 19.55 110.0 19.55C113.313705 19.55 116.0 22.236292 116.0 25.55Z" fill-rule="nonzero"/><path fill="#1a1a1a" d="M124.875 29.55L124.875 20.95625L126.015625 20.95625L126.015625 28.534374L130.25 28.534374L130.25 29.55L124.875 29.55ZM131.40625 26.440624Q131.40625 24.70625 132.35938 23.878124Q133.15625 23.190624 134.3125 23.190624Q135.59375 23.190624 136.40625 24.034374Q137.23438 24.8625 137.23438 26.346874Q137.23438 27.55 136.875 28.2375Q136.51562 28.925 135.8125 29.315624Q135.125 29.690624 134.3125 29.690624Q133.01562 29.690624 132.20312 28.8625Q131.40625 28.01875 131.40625 26.440624ZM132.48438 26.440624Q132.48438 27.628124 133.0 28.221874Q133.53125 28.815624 134.3125 28.815624Q135.10938 28.815624 135.625 28.221874Q136.14062 27.628124 136.14062 26.409374Q136.14062 25.253124 135.60938 24.659374Q135.09375 24.065624 134.3125 24.065624Q133.53125 24.065624 133.0 24.659374Q132.48438 25.2375 132.48438 26.440624ZM138.79688 29.55L138.79688 23.33125L139.73438 23.33125L139.73438 24.20625Q140.42188 23.190624 141.71875 23.190624Q142.28125 23.190624 142.75 23.39375Q143.23438 23.596874 143.46875 23.925Q143.70312 24.253124 143.79688 24.690624Q143.84375 24.9875 143.84375 25.721874L143.84375 29.55L142.79688 29.55L142.79688 25.76875Q142.79688 25.1125 142.67188 24.8Q142.54688 24.4875 142.23438 24.3Q141.92188 24.096874 141.5 24.096874Q140.82812 24.096874 140.32812 24.534374Q139.84375 24.95625 139.84375 26.14375L139.84375 29.55L138.79688 29.55ZM145.59375 30.065624L146.625 30.221874Q146.6875 30.690624 146.98438 30.909374Q147.375 31.20625 148.04688 31.20625Q148.78125 31.20625 149.17188 30.909374Q149.57812 30.6125 149.71875 30.096874Q149.8125 29.76875 149.79688 28.7375Q149.10938 29.55 148.07812 29.55Q146.79688 29.55 146.09375 28.628124Q145.39062 27.690624 145.39062 26.409374Q145.39062 25.51875 145.70312 24.76875Q146.03125 24.003124 146.64062 23.596874Q147.25 23.190624 148.07812 23.190624Q149.1875 23.190624 149.90625 24.08125L149.90625 23.33125L150.875 23.33125L150.875 28.70625Q150.875 30.159374 150.57812 30.76875Q150.28125 31.378124 149.64062 31.721874Q149.0 32.08125 148.0625 32.08125Q146.95312 32.08125 146.26562 31.58125Q145.57812 31.08125 145.59375 30.065624ZM146.46875 26.33125Q146.46875 27.55 146.95312 28.1125Q147.4375 28.675 148.17188 28.675Q148.90625 28.675 149.39062 28.1125Q149.89062 27.55 149.89062 26.3625Q149.89062 25.221874 149.375 24.64375Q148.875 24.065624 148.15625 24.065624Q147.45312 24.065624 146.95312 24.64375Q146.46875 25.20625 146.46875 26.33125ZM152.79688 22.175L152.79688 20.95625L153.85938 20.95625L153.85938 22.175L152.79688 22.175ZM152.79688 29.55L152.79688 23.33125L153.85938 23.33125L153.85938 29.55L152.79688 29.55ZM158.09375 28.6125L158.25 29.534374Q157.79688 29.628124 157.45312 29.628124Q156.875 29.628124 156.5625 29.45625Q156.25 29.26875 156.10938 28.971874Q155.98438 28.675 155.98438 27.721874L155.98438 24.14375L155.21875 24.14375L155.21875 23.33125L155.98438 23.33125L155.98438 21.784374L157.03125 21.159374L157.03125 23.33125L158.09375 23.33125L158.09375 24.14375L157.03125 24.14375L157.03125 27.784374Q157.03125 28.2375 157.07812 28.3625Q157.14062 28.4875 157.26562 28.565624Q157.39062 28.64375 157.625 28.64375Q157.8125 28.64375 158.09375 28.6125ZM162.875 29.55L162.875 28.628124Q162.14062 29.690624 160.89062 29.690624Q160.34375 29.690624 159.85938 29.4875Q159.39062 29.26875 159.15625 28.95625Q158.92188 28.628124 158.82812 28.159374Q158.76562 27.8625 158.76562 27.175L158.76562 23.33125L159.82812 23.33125L159.82812 26.784374Q159.82812 27.596874 159.89062 27.89375Q159.98438 28.3 160.29688 28.55Q160.625 28.784374 161.10938 28.784374Q161.57812 28.784374 161.98438 28.55Q162.40625 28.3 162.57812 27.878124Q162.76562 27.45625 162.76562 26.659374L162.76562 23.33125L163.8125 23.33125L163.8125 29.55L162.875 29.55ZM169.82812 29.55L169.82812 28.76875Q169.23438 29.690624 168.09375 29.690624Q167.34375 29.690624 166.71875 29.284374Q166.09375 28.8625 165.75 28.128124Q165.40625 27.39375 165.40625 26.440624Q165.40625 25.51875 165.71875 24.753124Q166.03125 23.9875 166.65625 23.596874Q167.28125 23.190624 168.04688 23.190624Q168.60938 23.190624 169.04688 23.425Q169.48438 23.659374 169.76562 24.034374L169.76562 20.95625L170.8125 20.95625L170.8125 29.55L169.82812 29.55ZM166.5 26.440624Q166.5 27.64375 167.0 28.2375Q167.5 28.815624 168.1875 28.815624Q168.875 28.815624 169.35938 28.253124Q169.84375 27.690624 169.84375 26.534374Q169.84375 25.253124 169.34375 24.659374Q168.85938 24.065624 168.14062 24.065624Q167.4375 24.065624 166.96875 24.64375Q166.5 25.20625 166.5 26.440624ZM175.78125 29.55L175.78125 23.33125L176.73438 23.33125L176.73438 24.26875Q177.09375 23.6125 177.39062 23.409374Q177.70312 23.190624 178.07812 23.190624Q178.60938 23.190624 179.15625 23.51875L178.79688 24.503124Q178.40625 24.26875 178.03125 24.26875Q177.67188 24.26875 177.39062 24.4875Q177.125 24.690624 177.01562 25.065624Q176.82812 25.628124 176.82812 26.284374L176.82812 29.55L175.78125 29.55ZM183.85938 28.784374Q183.26562 29.284374 182.71875 29.4875Q182.1875 29.690624 181.5625 29.690624Q180.53125 29.690624 179.98438 29.190624Q179.4375 28.690624 179.4375 27.909374Q179.4375 27.45625 179.64062 27.08125Q179.84375 26.690624 180.1875 26.471874Q180.53125 26.2375 180.95312 26.128124Q181.25 26.034374 181.89062 25.95625Q183.15625 25.815624 183.76562 25.596874Q183.76562 25.378124 183.76562 25.33125Q183.76562 24.675 183.46875 24.409374Q183.0625 24.065624 182.26562 24.065624Q181.53125 24.065624 181.17188 24.33125Q180.8125 24.58125 180.64062 25.2375L179.60938 25.096874Q179.75 24.440624 180.07812 24.034374Q180.40625 23.628124 181.01562 23.409374Q181.625 23.190624 182.42188 23.190624Q183.21875 23.190624 183.71875 23.378124Q184.21875 23.565624 184.45312 23.846874Q184.6875 24.128124 184.78125 24.565624Q184.82812 24.83125 184.82812 25.534374L184.82812 26.940624Q184.82812 28.409374 184.89062 28.8Q184.96875 29.190624 185.17188 29.55L184.0625 29.55Q183.90625 29.221874 183.85938 28.784374ZM183.76562 26.425Q183.1875 26.659374 182.04688 26.83125Q181.39062 26.925 181.125 27.05Q180.85938 27.159374 180.70312 27.378124Q180.5625 27.596874 180.5625 27.878124Q180.5625 28.3 180.875 28.58125Q181.20312 28.8625 181.8125 28.8625Q182.42188 28.8625 182.89062 28.596874Q183.375 28.33125 183.59375 27.8625Q183.76562 27.503124 183.76562 26.815624L183.76562 26.425ZM187.15625 29.55L187.15625 23.33125L188.21875 23.33125L188.21875 29.55L187.15625 29.55ZM187.10938 22.55L187.89062 20.909374L189.28125 20.909374L187.98438 22.55L187.10938 22.55ZM189.23438 29.55L189.23438 28.690624L193.20312 24.14375Q192.51562 24.175 192.0 24.175L189.46875 24.175L189.46875 23.33125L194.5625 23.33125L194.5625 24.01875L191.1875 27.971874L190.53125 28.690624Q191.25 28.64375 191.85938 28.64375L194.75 28.64375L194.75 29.55L189.23438 29.55ZM199.8125 32.08125Q198.9375 30.971874 198.32812 29.503124Q197.73438 28.01875 197.73438 26.440624Q197.73438 25.05 198.17188 23.76875Q198.70312 22.284374 199.8125 20.815624L200.5625 20.815624Q199.85938 22.034374 199.625 22.55Q199.26562 23.3625 199.0625 24.2375Q198.8125 25.33125 198.8125 26.440624Q198.8125 29.26875 200.5625 32.08125L199.8125 32.08125ZM201.79688 29.55L201.79688 23.33125L202.73438 23.33125L202.73438 24.20625Q203.03125 23.7375 203.51562 23.471874Q204.0 23.190624 204.625 23.190624Q205.3125 23.190624 205.75 23.471874Q206.20312 23.753124 206.375 24.26875Q207.125 23.190624 208.29688 23.190624Q209.23438 23.190624 209.71875 23.70625Q210.21875 24.20625 210.21875 25.284374L210.21875 29.55L209.17188 29.55L209.17188 25.628124Q209.17188 25.003124 209.0625 24.721874Q208.96875 24.440624 208.70312 24.26875Q208.4375 24.096874 208.0625 24.096874Q207.40625 24.096874 206.96875 24.534374Q206.54688 24.971874 206.54688 25.940624L206.54688 29.55L205.48438 29.55L205.48438 25.503124Q205.48438 24.8 205.21875 24.45625Q204.96875 24.096874 204.39062 24.096874Q203.9375 24.096874 203.5625 24.33125Q203.1875 24.565624 203.01562 25.01875Q202.84375 25.471874 202.84375 26.315624L202.84375 29.55L201.79688 29.55ZM212.79688 29.55L212.79688 23.33125L213.73438 23.33125L213.73438 24.20625Q214.03125 23.7375 214.51562 23.471874Q215.0 23.190624 215.625 23.190624Q216.3125 23.190624 216.75 23.471874Q217.20312 23.753124 217.375 24.26875Q218.125 23.190624 219.29688 23.190624Q220.23438 23.190624 220.71875 23.70625Q221.21875 24.20625 221.21875 25.284374L221.21875 29.55L220.17188 29.55L220.17188 25.628124Q220.17188 25.003124 220.0625 24.721874Q219.96875 24.440624 219.70312 24.26875Q219.4375 24.096874 219.0625 24.096874Q218.40625 24.096874 217.96875 24.534374Q217.54688 24.971874 217.54688 25.940624L217.54688 29.55L216.48438 29.55L216.48438 25.503124Q216.48438 24.8 216.21875 24.45625Q215.96875 24.096874 215.39062 24.096874Q214.9375 24.096874 214.5625 24.33125Q214.1875 24.565624 214.01562 25.01875Q213.84375 25.471874 213.84375 26.315624L213.84375 29.55L212.79688 29.55ZM224.48438 32.08125L223.73438 32.08125Q225.48438 29.26875 225.48438 26.440624Q225.48438 25.346874 225.23438 24.253124Q225.03125 23.378124 224.67188 22.565624Q224.4375 22.05 223.73438 20.815624L224.48438 20.815624Q225.57812 22.284374 226.10938 23.76875Q226.5625 25.05 226.5625 26.440624Q226.5625 28.01875 225.95312 29.503124Q225.34375 30.971874 224.48438 32.08125ZM234.46875 29.55L233.42188 29.55L233.42188 22.83125Q233.03125 23.190624 232.40625 23.565624Q231.79688 23.925 231.3125 24.096874L231.3125 23.08125Q232.1875 22.659374 232.84375 22.08125Q233.51562 21.4875 233.79688 20.925L234.46875 20.925L234.46875 29.55ZM241.46875 29.55L240.42188 29.55L240.42188 22.83125Q240.03125 23.190624 239.40625 23.565624Q238.79688 23.925 238.3125 24.096874L238.3125 23.08125Q239.1875 22.659374 239.84375 22.08125Q240.51562 21.4875 240.79688 20.925L241.46875 20.925L241.46875 29.55ZM244.0 29.690624L246.48438 20.815624L247.32812 20.815624L244.84375 29.690624L244.0 29.690624ZM247.5 25.315624Q247.5 23.784374 247.8125 22.8625Q248.125 21.925 248.73438 21.425Q249.35938 20.925 250.29688 20.925Q250.98438 20.925 251.5 21.20625Q252.03125 21.4875 252.375 22.01875Q252.71875 22.534374 252.90625 23.284374Q253.09375 24.034374 253.09375 25.315624Q253.09375 26.83125 252.78125 27.753124Q252.48438 28.675 251.85938 29.190624Q251.25 29.690624 250.29688 29.690624Q249.0625 29.690624 248.34375 28.8Q247.5 27.7375 247.5 25.315624ZM248.57812 25.315624Q248.57812 27.425 249.07812 28.128124Q249.57812 28.83125 250.29688 28.83125Q251.03125 28.83125 251.51562 28.128124Q252.01562 27.425 252.01562 25.315624Q252.01562 23.190624 251.51562 22.503124Q251.03125 21.8 250.28125 21.8Q249.5625 21.8 249.125 22.409374Q248.57812 23.190624 248.57812 25.315624ZM260.04688 28.534374L260.04688 29.55L254.35938 29.55Q254.35938 29.175 254.48438 28.815624Q254.70312 28.2375 255.17188 27.675Q255.65625 27.1125 256.5625 26.378124Q257.96875 25.221874 258.45312 24.55Q258.95312 23.878124 258.95312 23.284374Q258.95312 22.659374 258.5 22.2375Q258.04688 21.8 257.32812 21.8Q256.5625 21.8 256.10938 22.253124Q255.65625 22.70625 255.64062 23.51875L254.5625 23.409374Q254.67188 22.190624 255.39062 21.565624Q256.125 20.925 257.35938 20.925Q258.59375 20.925 259.3125 21.6125Q260.03125 22.3 260.03125 23.315624Q260.03125 23.83125 259.8125 24.33125Q259.60938 24.815624 259.10938 25.378124Q258.625 25.925 257.5 26.878124Q256.54688 27.675 256.26562 27.971874Q256.0 28.253124 255.82812 28.534374L260.04688 28.534374ZM261.0 29.690624L263.48438 20.815624L264.32812 20.815624L261.84375 29.690624L261.0 29.690624ZM270.04688 28.534374L270.04688 29.55L264.35938 29.55Q264.35938 29.175 264.48438 28.815624Q264.70312 28.2375 265.17188 27.675Q265.65625 27.1125 266.5625 26.378124Q267.96875 25.221874 268.45312 24.55Q268.95312 23.878124 268.95312 23.284374Q268.95312 22.659374 268.5 22.2375Q268.04688 21.8 267.32812 21.8Q266.5625 21.8 266.10938 22.253124Q265.65625 22.70625 265.64062 23.51875L264.5625 23.409374Q264.67188 22.190624 265.39062 21.565624Q266.125 20.925 267.35938 20.925Q268.59375 20.925 269.3125 21.6125Q270.03125 22.3 270.03125 23.315624Q270.03125 23.83125 269.8125 24.33125Q269.60938 24.815624 269.10938 25.378124Q268.625 25.925 267.5 26.878124Q266.54688 27.675 266.26562 27.971874Q266.0 28.253124 265.82812 28.534374L270.04688 28.534374ZM271.5 25.315624Q271.5 23.784374 271.8125 22.8625Q272.125 21.925 272.73438 21.425Q273.35938 20.925 274.29688 20.925Q274.98438 20.925 275.5 21.20625Q276.03125 21.4875 276.375 22.01875Q276.71875 22.534374 276.90625 23.284374Q277.09375 24.034374 277.09375 25.315624Q277.09375 26.83125 276.78125 27.753124Q276.48438 28.675 275.85938 29.190624Q275.25 29.690624 274.29688 29.690624Q273.0625 29.690624 272.34375 28.8Q271.5 27.7375 271.5 25.315624ZM272.57812 25.315624Q272.57812 27.425 273.07812 28.128124Q273.57812 28.83125 274.29688 28.83125Q275.03125 28.83125 275.51562 28.128124Q276.01562 27.425 276.01562 25.315624Q276.01562 23.190624 275.51562 22.503124Q275.03125 21.8 274.28125 21.8Q273.5625 21.8 273.125 22.409374Q272.57812 23.190624 272.57812 25.315624ZM284.04688 28.534374L284.04688 29.55L278.35938 29.55Q278.35938 29.175 278.48438 28.815624Q278.70312 28.2375 279.17188 27.675Q279.65625 27.1125 280.5625 26.378124Q281.96875 25.221874 282.45312 24.55Q282.95312 23.878124 282.95312 23.284374Q282.95312 22.659374 282.5 22.2375Q282.04688 21.8 281.32812 21.8Q280.5625 21.8 280.10938 22.253124Q279.65625 22.70625 279.64062 23.51875L278.5625 23.409374Q278.67188 22.190624 279.39062 21.565624Q280.125 20.925 281.35938 20.925Q282.59375 20.925 283.3125 21.6125Q284.03125 22.3 284.03125 23.315624Q284.03125 23.83125 283.8125 24.33125Q283.60938 24.815624 283.10938 25.378124Q282.625 25.925 281.5 26.878124Q280.54688 27.675 280.26562 27.971874Q280.0 28.253124 279.82812 28.534374L284.04688 28.534374ZM285.5 27.3L286.60938 27.20625Q286.73438 28.01875 287.17188 28.425Q287.625 28.83125 288.26562 28.83125Q289.01562 28.83125 289.54688 28.253124Q290.07812 27.675 290.07812 26.7375Q290.07812 25.83125 289.5625 25.315624Q289.0625 24.784374 288.23438 24.784374Q287.73438 24.784374 287.3125 25.01875Q286.90625 25.253124 286.67188 25.6125L285.6875 25.4875L286.51562 21.08125L290.79688 21.08125L290.79688 22.08125L287.35938 22.08125L286.90625 24.39375Q287.67188 23.846874 288.51562 23.846874Q289.64062 23.846874 290.40625 24.628124Q291.1875 25.409374 291.1875 26.64375Q291.1875 27.8 290.51562 28.659374Q289.6875 29.690624 288.26562 29.690624Q287.09375 29.690624 286.34375 29.034374Q285.60938 28.378124 285.5 27.3Z" fill-rule="nonzero"/><path fill="#c0504d" d="M320.0 25.55C320.0 28.863708 317.31372 31.55 314.0 31.55C310.68628 31.55 308.0 28.863708 308.0 25.55C308.0 22.236292 310.68628 19.55 314.0 19.55C317.31372 19.55 320.0 22.236292 320.0 25.55Z" fill-rule="nonzero"/><path fill="#1a1a1a" d="M328.875 29.55L328.875 20.95625L330.01562 20.95625L330.01562 28.534374L334.25 28.534374L334.25 29.55L328.875 29.55ZM335.40625 26.440624Q335.40625 24.70625 336.35938 23.878124Q337.15625 23.190624 338.3125 23.190624Q339.59375 23.190624 340.40625 24.034374Q341.23438 24.8625 341.23438 26.346874Q341.23438 27.55 340.875 28.2375Q340.51562 28.925 339.8125 29.315624Q339.125 29.690624 338.3125 29.690624Q337.01562 29.690624 336.20312 28.8625Q335.40625 28.01875 335.40625 26.440624ZM336.48438 26.440624Q336.48438 27.628124 337.0 28.221874Q337.53125 28.815624 338.3125 28.815624Q339.10938 28.815624 339.625 28.221874Q340.14062 27.628124 340.14062 26.409374Q340.14062 25.253124 339.60938 24.659374Q339.09375 24.065624 338.3125 24.065624Q337.53125 24.065624 337.0 24.659374Q336.48438 25.2375 336.48438 26.440624ZM342.79688 29.55L342.79688 23.33125L343.73438 23.33125L343.73438 24.20625Q344.42188 23.190624 345.71875 23.190624Q346.28125 23.190624 346.75 23.39375Q347.23438 23.596874 347.46875 23.925Q347.70312 24.253124 347.79688 24.690624Q347.84375 24.9875 347.84375 25.721874L347.84375 29.55L346.79688 29.55L346.79688 25.76875Q346.79688 25.1125 346.67188 24.8Q346.54688 24.4875 346.23438 24.3Q345.92188 24.096874 345.5 24.096874Q344.82812 24.096874 344.32812 24.534374Q343.84375 24.95625 343.84375 26.14375L343.84375 29.55L342.79688 29.55ZM349.59375 30.065624L350.625 30.221874Q350.6875 30.690624 350.98438 30.909374Q351.375 31.20625 352.04688 31.20625Q352.78125 31.20625 353.17188 30.909374Q353.57812 30.6125 353.71875 30.096874Q353.8125 29.76875 353.79688 28.7375Q353.10938 29.55 352.07812 29.55Q350.79688 29.55 350.09375 28.628124Q349.39062 27.690624 349.39062 26.409374Q349.39062 25.51875 349.70312 24.76875Q350.03125 24.003124 350.64062 23.596874Q351.25 23.190624 352.07812 23.190624Q353.1875 23.190624 353.90625 24.08125L353.90625 23.33125L354.875 23.33125L354.875 28.70625Q354.875 30.159374 354.57812 30.76875Q354.28125 31.378124 353.64062 31.721874Q353.0 32.08125 352.0625 32.08125Q350.95312 32.08125 350.26562 31.58125Q349.57812 31.08125 349.59375 30.065624ZM350.46875 26.33125Q350.46875 27.55 350.95312 28.1125Q351.4375 28.675 352.17188 28.675Q352.90625 28.675 353.39062 28.1125Q353.89062 27.55 353.89062 26.3625Q353.89062 25.221874 353.375 24.64375Q352.875 24.065624 352.15625 24.065624Q351.45312 24.065624 350.95312 24.64375Q350.46875 25.20625 350.46875 26.33125ZM356.79688 22.175L356.79688 20.95625L357.85938 20.95625L357.85938 22.175L356.79688 22.175ZM356.79688 29.55L356.79688 23.33125L357.85938 23.33125L357.85938 29.55L356.79688 29.55ZM362.09375 28.6125L362.25 29.534374Q361.79688 29.628124 361.45312 29.628124Q360.875 29.628124 360.5625 29.45625Q360.25 29.26875 360.10938 28.971874Q359.98438 28.675 359.98438 27.721874L359.98438 24.14375L359.21875 24.14375L359.21875 23.33125L359.98438 23.33125L359.98438 21.784374L361.03125 21.159374L361.03125 23.33125L362.09375 23.33125L362.09375 24.14375L361.03125 24.14375L361.03125 27.784374Q361.03125 28.2375 361.07812 28.3625Q361.14062 28.4875 361.26562 28.565624Q361.39062 28.64375 361.625 28.64375Q361.8125 28.64375 362.09375 28.6125ZM366.875 29.55L366.875 28.628124Q366.14062 29.690624 364.89062 29.690624Q364.34375 29.690624 363.85938 29.4875Q363.39062 29.26875 363.15625 28.95625Q362.92188 28.628124 362.82812 28.159374Q362.76562 27.8625 362.76562 27.175L362.76562 23.33125L363.82812 23.33125L363.82812 26.784374Q363.82812 27.596874 363.89062 27.89375Q363.98438 28.3 364.29688 28.55Q364.625 28.784374 365.10938 28.784374Q365.57812 28.784374 365.98438 28.55Q366.40625 28.3 366.57812 27.878124Q366.76562 27.45625 366.76562 26.659374L366.76562 23.33125L367.8125 23.33125L367.8125 29.55L366.875 29.55ZM373.82812 29.55L373.82812 28.76875Q373.23438 29.690624 372.09375 29.690624Q371.34375 29.690624 370.71875 29.284374Q370.09375 28.8625 369.75 28.128124Q369.40625 27.39375 369.40625 26.440624Q369.40625 25.51875 369.71875 24.753124Q370.03125 23.9875 370.65625 23.596874Q371.28125 23.190624 372.04688 23.190624Q372.60938 23.190624 373.04688 23.425Q373.48438 23.659374 373.76562 24.034374L373.76562 20.95625L374.8125 20.95625L374.8125 29.55L373.82812 29.55ZM370.5 26.440624Q370.5 27.64375 371.0 28.2375Q371.5 28.815624 372.1875 28.815624Q372.875 28.815624 373.35938 28.253124Q373.84375 27.690624 373.84375 26.534374Q373.84375 25.253124 373.34375 24.659374Q372.85938 24.065624 372.14062 24.065624Q371.4375 24.065624 370.96875 24.64375Q370.5 25.20625 370.5 26.440624ZM379.78125 29.55L379.78125 23.33125L380.73438 23.33125L380.73438 24.26875Q381.09375 23.6125 381.39062 23.409374Q381.70312 23.190624 382.07812 23.190624Q382.60938 23.190624 383.15625 23.51875L382.79688 24.503124Q382.40625 24.26875 382.03125 24.26875Q381.67188 24.26875 381.39062 24.4875Q381.125 24.690624 381.01562 25.065624Q380.82812 25.628124 380.82812 26.284374L380.82812 29.55L379.78125 29.55ZM387.85938 28.784374Q387.26562 29.284374 386.71875 29.4875Q386.1875 29.690624 385.5625 29.690624Q384.53125 29.690624 383.98438 29.190624Q383.4375 28.690624 383.4375 27.909374Q383.4375 27.45625 383.64062 27.08125Q383.84375 26.690624 384.1875 26.471874Q384.53125 26.2375 384.95312 26.128124Q385.25 26.034374 385.89062 25.95625Q387.15625 25.815624 387.76562 25.596874Q387.76562 25.378124 387.76562 25.33125Q387.76562 24.675 387.46875 24.409374Q387.0625 24.065624 386.26562 24.065624Q385.53125 24.065624 385.17188 24.33125Q384.8125 24.58125 384.64062 25.2375L383.60938 25.096874Q383.75 24.440624 384.07812 24.034374Q384.40625 23.628124 385.01562 23.409374Q385.625 23.190624 386.42188 23.190624Q387.21875 23.190624 387.71875 23.378124Q388.21875 23.565624 388.45312 23.846874Q388.6875 24.128124 388.78125 24.565624Q388.82812 24.83125 388.82812 25.534374L388.82812 26.940624Q388.82812 28.409374 388.89062 28.8Q388.96875 29.190624 389.17188 29.55L388.0625 29.55Q387.90625 29.221874 387.85938 28.784374ZM387.76562 26.425Q387.1875 26.659374 386.04688 26.83125Q385.39062 26.925 385.125 27.05Q384.85938 27.159374 384.70312 27.378124Q384.5625 27.596874 384.5625 27.878124Q384.5625 28.3 384.875 28.58125Q385.20312 28.8625 385.8125 28.8625Q386.42188 28.8625 386.89062 28.596874Q387.375 28.33125 387.59375 27.8625Q387.76562 27.503124 387.76562 26.815624L387.76562 26.425ZM391.15625 29.55L391.15625 23.33125L392.21875 23.33125L392.21875 29.55L391.15625 29.55ZM391.10938 22.55L391.89062 20.909374L393.28125 20.909374L391.98438 22.55L391.10938 22.55ZM393.23438 29.55L393.23438 28.690624L397.20312 24.14375Q396.51562 24.175 396.0 24.175L393.46875 24.175L393.46875 23.33125L398.5625 23.33125L398.5625 24.01875L395.1875 27.971874L394.53125 28.690624Q395.25 28.64375 395.85938 28.64375L398.75 28.64375L398.75 29.55L393.23438 29.55ZM403.8125 32.08125Q402.9375 30.971874 402.32812 29.503124Q401.73438 28.01875 401.73438 26.440624Q401.73438 25.05 402.17188 23.76875Q402.70312 22.284374 403.8125 20.815624L404.5625 20.815624Q403.85938 22.034374 403.625 22.55Q403.26562 23.3625 403.0625 24.2375Q402.8125 25.33125 402.8125 26.440624Q402.8125 29.26875 404.5625 32.08125L403.8125 32.08125ZM405.79688 29.55L405.79688 23.33125L406.73438 23.33125L406.73438 24.20625Q407.03125 23.7375 407.51562 23.471874Q408.0 23.190624 408.625 23.190624Q409.3125 23.190624 409.75 23.471874Q410.20312 23.753124 410.375 24.26875Q411.125 23.190624 412.29688 23.190624Q413.23438 23.190624 413.71875 23.70625Q414.21875 24.20625 414.21875 25.284374L414.21875 29.55L413.17188 29.55L413.17188 25.628124Q413.17188 25.003124 413.0625 24.721874Q412.96875 24.440624 412.70312 24.26875Q412.4375 24.096874 412.0625 24.096874Q411.40625 24.096874 410.96875 24.534374Q410.54688 24.971874 410.54688 25.940624L410.54688 29.55L409.48438 29.55L409.48438 25.503124Q409.48438 24.8 409.21875 24.45625Q408.96875 24.096874 408.39062 24.096874Q407.9375 24.096874 407.5625 24.33125Q407.1875 24.565624 407.01562 25.01875Q406.84375 25.471874 406.84375 26.315624L406.84375 29.55L405.79688 29.55ZM416.79688 29.55L416.79688 23.33125L417.73438 23.33125L417.73438 24.20625Q418.03125 23.7375 418.51562 23.471874Q419.0 23.190624 419.625 23.190624Q420.3125 23.190624 420.75 23.471874Q421.20312 23.753124 421.375 24.26875Q422.125 23.190624 423.29688 23.190624Q424.23438 23.190624 424.71875 23.70625Q425.21875 24.20625 425.21875 25.284374L425.21875 29.55L424.17188 29.55L424.17188 25.628124Q424.17188 25.003124 424.0625 24.721874Q423.96875 24.440624 423.70312 24.26875Q423.4375 24.096874 423.0625 24.096874Q422.40625 24.096874 421.96875 24.534374Q421.54688 24.971874 421.54688 25.940624L421.54688 29.55L420.48438 29.55L420.48438 25.503124Q420.48438 24.8 420.21875 24.45625Q419.96875 24.096874 419.39062 24.096874Q418.9375 24.096874 418.5625 24.33125Q418.1875 24.565624 418.01562 25.01875Q417.84375 25.471874 417.84375 26.315624L417.84375 29.55L416.79688 29.55ZM428.48438 32.08125L427.73438 32.08125Q429.48438 29.26875 429.48438 26.440624Q429.48438 25.346874 429.23438 24.253124Q429.03125 23.378124 428.67188 22.565624Q428.4375 22.05 427.73438 20.815624L428.48438 20.815624Q429.57812 22.284374 430.10938 23.76875Q430.5625 25.05 430.5625 26.440624Q430.5625 28.01875 429.95312 29.503124Q429.34375 30.971874 428.48438 32.08125ZM438.46875 29.55L437.42188 29.55L437.42188 22.83125Q437.03125 23.190624 436.40625 23.565624Q435.79688 23.925 435.3125 24.096874L435.3125 23.08125Q436.1875 22.659374 436.84375 22.08125Q437.51562 21.4875 437.79688 20.925L438.46875 20.925L438.46875 29.55ZM445.46875 29.55L444.42188 29.55L444.42188 22.83125Q444.03125 23.190624 443.40625 23.565624Q442.79688 23.925 442.3125 24.096874L442.3125 23.08125Q443.1875 22.659374 443.84375 22.08125Q444.51562 21.4875 444.79688 20.925L445.46875 20.925L445.46875 29.55ZM448.0 29.690624L450.48438 20.815624L451.32812 20.815624L448.84375 29.690624L448.0 29.690624ZM451.5 25.315624Q451.5 23.784374 451.8125 22.8625Q452.125 21.925 452.73438 21.425Q453.35938 20.925 454.29688 20.925Q454.98438 20.925 455.5 21.20625Q456.03125 21.4875 456.375 22.01875Q456.71875 22.534374 456.90625 23.284374Q457.09375 24.034374 457.09375 25.315624Q457.09375 26.83125 456.78125 27.753124Q456.48438 28.675 455.85938 29.190624Q455.25 29.690624 454.29688 29.690624Q453.0625 29.690624 452.34375 28.8Q451.5 27.7375 451.5 25.315624ZM452.57812 25.315624Q452.57812 27.425 453.07812 28.128124Q453.57812 28.83125 454.29688 28.83125Q455.03125 28.83125 455.51562 28.128124Q456.01562 27.425 456.01562 25.315624Q456.01562 23.190624 455.51562 22.503124Q455.03125 21.8 454.28125 21.8Q453.5625 21.8 453.125 22.409374Q452.57812 23.190624 452.57812 25.315624ZM458.5 27.284374L459.5625 27.14375Q459.73438 28.034374 460.17188 28.440624Q460.60938 28.83125 461.23438 28.83125Q461.98438 28.83125 462.5 28.315624Q463.01562 27.8 463.01562 27.034374Q463.01562 26.315624 462.53125 25.846874Q462.0625 25.3625 461.32812 25.3625Q461.03125 25.3625 460.57812 25.4875L460.70312 24.55Q460.8125 24.565624 460.875 24.565624Q461.54688 24.565624 462.07812 24.221874Q462.625 23.8625 462.625 23.128124Q462.625 22.55 462.23438 22.175Q461.84375 21.784374 461.21875 21.784374Q460.60938 21.784374 460.1875 22.175Q459.78125 22.565624 459.67188 23.33125L458.60938 23.14375Q458.79688 22.096874 459.48438 21.51875Q460.17188 20.925 461.1875 20.925Q461.89062 20.925 462.48438 21.2375Q463.07812 21.534374 463.39062 22.05Q463.70312 22.565624 463.70312 23.159374Q463.70312 23.70625 463.40625 24.175Q463.10938 24.628124 462.53125 24.89375Q463.28125 25.065624 463.70312 25.628124Q464.125 26.175 464.125 27.01875Q464.125 28.14375 463.29688 28.925Q462.48438 29.70625 461.23438 29.70625Q460.10938 29.70625 459.35938 29.034374Q458.60938 28.346874 458.5 27.284374ZM465.0 29.690624L467.48438 20.815624L468.32812 20.815624L465.84375 29.690624L465.0 29.690624ZM474.04688 28.534374L474.04688 29.55L468.35938 29.55Q468.35938 29.175 468.48438 28.815624Q468.70312 28.2375 469.17188 27.675Q469.65625 27.1125 470.5625 26.378124Q471.96875 25.221874 472.45312 24.55Q472.95312 23.878124 472.95312 23.284374Q472.95312 22.659374 472.5 22.2375Q472.04688 21.8 471.32812 21.8Q470.5625 21.8 470.10938 22.253124Q469.65625 22.70625 469.64062 23.51875L468.5625 23.409374Q468.67188 22.190624 469.39062 21.565624Q470.125 20.925 471.35938 20.925Q472.59375 20.925 473.3125 21.6125Q474.03125 22.3 474.03125 23.315624Q474.03125 23.83125 473.8125 24.33125Q473.60938 24.815624 473.10938 25.378124Q472.625 25.925 471.5 26.878124Q470.54688 27.675 470.26562 27.971874Q470.0 28.253124 469.82812 28.534374L474.04688 28.534374ZM475.5 25.315624Q475.5 23.784374 475.8125 22.8625Q476.125 21.925 476.73438 21.425Q477.35938 20.925 478.29688 20.925Q478.98438 20.925 479.5 21.20625Q480.03125 21.4875 480.375 22.01875Q480.71875 22.534374 480.90625 23.284374Q481.09375 24.034374 481.09375 25.315624Q481.09375 26.83125 480.78125 27.753124Q480.48438 28.675 479.85938 29.190624Q479.25 29.690624 478.29688 29.690624Q477.0625 29.690624 476.34375 28.8Q475.5 27.7375 475.5 25.315624ZM476.57812 25.315624Q476.57812 27.425 477.07812 28.128124Q477.57812 28.83125 478.29688 28.83125Q479.03125 28.83125 479.51562 28.128124Q480.01562 27.425 480.01562 25.315624Q480.01562 23.190624 479.51562 22.503124Q479.03125 21.8 478.28125 21.8Q477.5625 21.8 477.125 22.409374Q476.57812 23.190624 476.57812 25.315624ZM488.04688 28.534374L488.04688 29.55L482.35938 29.55Q482.35938 29.175 482.48438 28.815624Q482.70312 28.2375 483.17188 27.675Q483.65625 27.1125 484.5625 26.378124Q485.96875 25.221874 486.45312 24.55Q486.95312 23.878124 486.95312 23.284374Q486.95312 22.659374 486.5 22.2375Q486.04688 21.8 485.32812 21.8Q484.5625 21.8 484.10938 22.253124Q483.65625 22.70625 483.64062 23.51875L482.5625 23.409374Q482.67188 22.190624 483.39062 21.565624Q484.125 20.925 485.35938 20.925Q486.59375 20.925 487.3125 21.6125Q488.03125 22.3 488.03125 23.315624Q488.03125 23.83125 487.8125 24.33125Q487.60938 24.815624 487.10938 25.378124Q486.625 25.925 485.5 26.878124Q484.54688 27.675 484.26562 27.971874Q484.0 28.253124 483.82812 28.534374L488.04688 28.534374ZM489.5 27.3L490.60938 27.20625Q490.73438 28.01875 491.17188 28.425Q491.625 28.83125 492.26562 28.83125Q493.01562 28.83125 493.54688 28.253124Q494.07812 27.675 494.07812 26.7375Q494.07812 25.83125 493.5625 25.315624Q493.0625 24.784374 492.23438 24.784374Q491.73438 24.784374 491.3125 25.01875Q490.90625 25.253124 490.67188 25.6125L489.6875 25.4875L490.51562 21.08125L494.79688 21.08125L494.79688 22.08125L491.35938 22.08125L490.90625 24.39375Q491.67188 23.846874 492.51562 23.846874Q493.64062 23.846874 494.40625 24.628124Q495.1875 25.409374 495.1875 26.64375Q495.1875 27.8 494.51562 28.659374Q493.6875 29.690624 492.26562 29.690624Q491.09375 29.690624 490.34375 29.034374Q489.60938 28.378124 489.5 27.3Z" fill-rule="nonzero"/></svg>