<svg version="1.1" viewBox="0.0 0.0 600.0 371.0" fill="none" stroke="none" stroke-linecap="square" stroke-miterlimit="10" width="600" height="371" xmlns:xlink="http://www.w3.org/1999/xlink" xmlns="http://www.w3.org/2000/svg"><path fill="#ffffff" d="M0 0L600.0 0L600.0 371.0L0 371.0L0 0Z" fill-rule="nonzero"/><path stroke="#cccccc" stroke-width="1.0" stroke-linecap="butt" d="M92.5 51.5L92.5 332.5" fill-rule="nonzero"/><path stroke="#cccccc" stroke-width="1.0" stroke-linecap="butt" d="M172.5 51.5L172.5 332.5" fill-rule="nonzero"/><path stroke="#cccccc" stroke-width="1.0" stroke-linecap="butt" d="M253.5 51.5L253.5 332.5" fill-rule="nonzero"/><path stroke="#cccccc" stroke-width="1.0" stroke-linecap="butt" d="M333.5 51.5L333.5 332.5" fill-rule="nonzero"/><path stroke="#cccccc" stroke-width="1.0" stroke-linecap="butt" d="M413.5 51.5L413.5 332.5" fill-rule="nonzero"/><path stroke="#cccccc" stroke-width="1.0" stroke-linecap="butt" d="M494.5 51.5L494.5 332.5" fill-rule="nonzero"/><path stroke="#cccccc" stroke-width="1.0" stroke-linecap="butt" d="M574.5 51.5L574.5 332.5" fill-rule="nonzero"/><path stroke="#333333" stroke-width="1.0" stroke-linecap="butt" d="M45.5 332.5L581.5 332.5" fill-rule="nonzero"/><path stroke="#cccccc" stroke-width="1.0" stroke-linecap="butt" d="M45.5 276.5L581.5 276.5" fill-rule="nonzero"/><path stroke="#cccccc" stroke-width="1.0" stroke-linecap="butt" d="M45.5 220.5L581.5 220.5" fill-rule="nonzero"/><path stroke="#cccccc" stroke-width="1.0" stroke-linecap="butt" d="M45.5 164.5L581.5 164.5" fill-rule="nonzero"/><path stroke="#cccccc" stroke-width="1.0" stroke-linecap="butt" d="M45.5 108.5L581.5 108.5" fill-rule="nonzero"/><path stroke="#cccccc" stroke-width="1.0" stroke-linecap="butt" d="M45.5 51.5L581.5 51.5" fill-rule="nonzero"/><clipPath id="id_0"><path d="M45.55 51.916668L581.45 51.916668L581.45 332.45L45.55 332.45L45.55 51.916668Z" clip-rule="nonzero"/></clipPath><path fill="#4f81bd" clip-path="url(#id_0)" d="M56.871784 164.13C56.871784 166.61528 54.857067 168.63 52.371784 168.63C49.886505 168.63 47.871784 166.61528 47.871784 164.13C47.871784 161.64471 49.886505 159.63 52.371784 159.63C54.857067 159.63 56.871784 161.64471 56.871784 164.13Z" fill-rule="nonzero"/><path fill="#4f81bd" clip-path="url(#id_0)" d="M97.04536 220.23666C97.04536 222.72195 95.03064 224.73666 92.54536 224.73666C90.060074 224.73666 88.04536 222.72195 88.04536 220.23666C88.04536 217.75139 90.060074 215.73666 92.54536 215.73666C95.03064 215.73666 97.04536 217.75139 97.04536 220.23666Z" fill-rule="nonzero"/><path fill="#4f81bd" clip-path="url(#id_0)" d="M137.21893 108.02333C137.21893 110.50861 135.20421 112.52333 132.71893 112.52333C130.23364 112.52333 128.21893 110.50861 128.21893 108.02333C128.21893 105.538055 130.23364 103.52333 132.71893 103.52333C135.20421 103.52333 137.21893 105.538055 137.21893 108.02333Z" fill-rule="nonzero"/><path fill="#4f81bd" clip-path="url(#id_0)" d="M177.3925 164.13C177.3925 166.61528 175.37778 168.63 172.8925 168.63C170.40721 168.63 168.3925 166.61528 168.3925 164.13C168.3925 161.64471 170.40721 159.63 172.8925 159.63C175.37778 159.63 177.3925 161.64471 177.3925 164.13Z" fill-rule="nonzero"/><path fill="#4f81bd" clip-path="url(#id_0)" d="M217.56607 220.23666C217.56607 222.72195 215.55135 224.73666 213.06607 224.73666C210.5808 224.73666 208.56607 222.72195 208.56607 220.23666C208.56607 217.75139 210.5808 215.73666 213.06607 215.73666C215.55135 215.73666 217.56607 217.75139 217.56607 220.23666Z" fill-rule="nonzero"/><path fill="#4f81bd" clip-path="url(#id_0)" d="M257.73965 136.07666C257.73965 138.56195 255.72493 140.57666 253.23964 140.57666C250.75436 140.57666 248.73964 138.56195 248.73964 136.07666C248.73964 133.59138 250.75436 131.57666 253.23964 131.57666C255.72493 131.57666 257.73965 133.59138 257.73965 136.07666Z" fill-rule="nonzero"/><path fill="#4f81bd" clip-path="url(#id_0)" d="M297.9132 164.13C297.9132 166.61528 295.8985 168.63 293.4132 168.63C290.92795 168.63 288.9132 166.61528 288.9132 164.13C288.9132 161.64471 290.92795 159.63 293.4132 159.63C295.8985 159.63 297.9132 161.64471 297.9132 164.13Z" fill-rule="nonzero"/><path fill="#4f81bd" clip-path="url(#id_0)" d="M338.0868 164.13C338.0868 166.61528 336.07205 168.63 333.5868 168.63C331.1015 168.63 329.0868 166.61528 329.0868 164.13C329.0868 161.64471 331.1015 159.63 333.5868 159.63C336.07205 159.63 338.0868 161.64471 338.0868 164.13Z" fill-rule="nonzero"/><path fill="#4f81bd" clip-path="url(#id_0)" d="M378.26035 108.02333C378.26035 110.50861 376.24564 112.52333 373.76035 112.52333C371.2751 112.52333 369.26035 110.50861 369.26035 108.02333C369.26035 105.538055 371.2751 103.52333 373.76035 103.52333C376.24564 103.52333 378.26035 105.538055 378.26035 108.02333Z" fill-rule="nonzero"/><path fill="#4f81bd" clip-path="url(#id_0)" d="M418.43393 108.02333C418.43393 110.50861 416.41922 112.52333 413.93393 112.52333C411.44864 112.52333 409.43393 110.50861 409.43393 108.02333C409.43393 105.538055 411.44864 103.52333 413.93393 103.52333C416.41922 103.52333 418.43393 105.538055 418.43393 108.02333Z" fill-rule="nonzero"/><path fill="#4f81bd" clip-path="url(#id_0)" d="M458.6075 108.02333C458.6075 110.50861 456.59277 112.52333 454.1075 112.52333C451.62222 112.52333 449.6075 110.50861 449.6075 108.02333C449.6075 105.538055 451.62222 103.52333 454.1075 103.52333C456.59277 103.52333 458.6075 105.538055 458.6075 108.02333Z" fill-rule="nonzero"/><path fill="#4f81bd" clip-path="url(#id_0)" d="M498.78107 108.02333C498.78107 110.50861 496.76636 112.52333 494.28107 112.52333C491.79578 112.52333 489.78107 110.50861 489.78107 108.02333C489.78107 105.538055 491.79578 103.52333 494.28107 103.52333C496.76636 103.52333 498.78107 105.538055 498.78107 108.02333Z" fill-rule="nonzero"/><path fill="#4f81bd" clip-path="url(#id_0)" d="M538.95465 108.02333C538.95465 110.50861 536.93994 112.52333 534.45465 112.52333C531.96936 112.52333 529.95465 110.50861 529.95465 108.02333C529.95465 105.538055 531.96936 103.52333 534.45465 103.52333C536.93994 103.52333 538.95465 105.538055 538.95465 108.02333Z" fill-rule="nonzero"/><path fill="#4f81bd" clip-path="url(#id_0)" d="M579.12823 164.13C579.12823 166.61528 577.1135 168.63 574.62823 168.63C572.14294 168.63 570.12823 166.61528 570.12823 164.13C570.12823 161.64471 572.14294 159.63 574.62823 159.63C577.1135 159.63 579.12823 161.64471 579.12823 164.13Z" fill-rule="nonzero"/><path fill="#c0504d" clip-path="url(#id_0)" d="M56.871784 108.02333C56.871784 110.50861 54.857067 112.52333 52.371784 112.52333C49.886505 112.52333 47.871784 110.50861 47.871784 108.02333C47.871784 105.538055 49.886505 103.52333 52.371784 103.52333C54.857067 103.52333 56.871784 105.538055 56.871784 108.02333Z" fill-rule="nonzero"/><path fill="#c0504d" clip-path="url(#id_0)" d="M97.04536 108.02333C97.04536 110.50861 95.03064 112.52333 92.54536 112.52333C90.060074 112.52333 88.04536 110.50861 88.04536 108.02333C88.04536 105.538055 90.060074 103.52333 92.54536 103.52333C95.03064 103.52333 97.04536 105.538055 97.04536 108.02333Z" fill-rule="nonzero"/><path fill="#c0504d" clip-path="url(#id_0)" d="M137.21893 108.02333C137.21893 110.50861 135.20421 112.52333 132.71893 112.52333C130.23364 112.52333 128.21893 110.50861 128.21893 108.02333C128.21893 105.538055 130.23364 103.52333 132.71893 103.52333C135.20421 103.52333 137.21893 105.538055 137.21893 108.02333Z" fill-rule="nonzero"/><path fill="#c0504d" clip-path="url(#id_0)" d="M177.3925 108.02333C177.3925 110.50861 175.37778 112.52333 172.8925 112.52333C170.40721 112.52333 168.3925 110.50861 168.3925 108.02333C168.3925 105.538055 170.40721 103.52333 172.8925 103.52333C175.37778 103.52333 177.3925 105.538055 177.3925 108.02333Z" fill-rule="nonzero"/><path fill="#c0504d" clip-path="url(#id_0)" d="M217.56607 108.02333C217.56607 110.50861 215.55135 112.52333 213.06607 112.52333C210.5808 112.52333 208.56607 110.50861 208.56607 108.02333C208.56607 105.538055 210.5808 103.52333 213.06607 103.52333C215.55135 103.52333 217.56607 105.538055 217.56607 108.02333Z" fill-rule="nonzero"/><path fill="#c0504d" clip-path="url(#id_0)" d="M257.73965 108.02333C257.73965 110.50861 255.72493 112.52333 253.23964 112.52333C250.75436 112.52333 248.73964 110.50861 248.73964 108.02333C248.73964 105.538055 250.75436 103.52333 253.23964 103.52333C255.72493 103.52333 257.73965 105.538055 257.73965 108.02333Z" fill-rule="nonzero"/><path fill="#c0504d" clip-path="url(#id_0)" d="M297.9132 164.13C297.9132 166.61528 295.8985 168.63 293.4132 168.63C290.92795 168.63 288.9132 166.61528 288.9132 164.13C288.9132 161.64471 290.92795 159.63 293.4132 159.63C295.8985 159.63 297.9132 161.64471 297.9132 164.13Z" fill-rule="nonzero"/><path fill="#c0504d" clip-path="url(#id_0)" d="M338.0868 108.02333C338.0868 110.50861 336.07205 112.52333 333.5868 112.52333C331.1015 112.52333 329.0868 110.50861 329.0868 108.02333C329.0868 105.538055 331.1015 103.52333 333.5868 103.52333C336.07205 103.52333 338.0868 105.538055 338.0868 108.02333Z" fill-rule="nonzero"/><path fill="#c0504d" clip-path="url(#id_0)" d="M378.26035 164.13C378.26035 166.61528 376.24564 168.63 373.76035 168.63C371.2751 168.63 369.26035 166.61528 369.26035 164.13C369.26035 161.64471 371.2751 159.63 373.76035 159.63C376.24564 159.63 378.26035 161.64471 378.26035 164.13Z" fill-rule="nonzero"/><path fill="#c0504d" clip-path="url(#id_0)" d="M418.43393 108.02333C418.43393 110.50861 416.41922 112.52333 413.93393 112.52333C411.44864 112.52333 409.43393 110.50861 409.43393 108.02333C409.43393 105.538055 411.44864 103.52333 413.93393 103.52333C416.41922 103.52333 418.43393 105.538055 418.43393 108.02333Z" fill-rule="nonzero"/><path fill="#c0504d" clip-path="url(#id_0)" d="M458.6075 51.916668C458.6075 54.401947 456.59277 56.416668 454.1075 56.416668C451.62222 56.416668 449.6075 54.401947 449.6075 51.916668C449.6075 49.431385 451.62222 47.416668 454.1075 47.416668C456.59277 47.416668 458.6075 49.431385 458.6075 51.916668Z" fill-rule="nonzero"/><path fill="#c0504d" clip-path="url(#id_0)" d="M498.78107 108.02333C498.78107 110.50861 496.76636 112.52333 494.28107 112.52333C491.79578 112.52333 489.78107 110.50861 489.78107 108.02333C489.78107 105.538055 491.79578 103.52333 494.28107 103.52333C496.76636 103.52333 498.78107 105.538055 498.78107 108.02333Z" fill-rule="nonzero"/><path fill="#c0504d" clip-path="url(#id_0)" d="M538.95465 108.02333C538.95465 110.50861 536.93994 112.52333 534.45465 112.52333C531.96936 112.52333 529.95465 110.50861 529.95465 108.02333C529.95465 105.538055 531.96936 103.52333 534.45465 103.52333C536.93994 103.52333 538.95465 105.538055 538.95465 108.02333Z" fill-rule="nonzero"/><path fill="#c0504d" clip-path="url(#id_0)" d="M579.12823 108.02333C579.12823 110.50861 577.1135 112.52333 574.62823 112.52333C572.14294 112.52333 570.12823 110.50861 570.12823 108.02333C570.12823 105.538055 572.14294 103.52333 574.62823 103.52333C577.1135 103.52333 579.12823 105.538055 579.12823 108.02333Z" fill-rule="nonzero"/><path fill="#000000" d="M23.05 332.21564Q23.05 330.6844 23.3625 329.7625Q23.675 328.825 24.284374 328.325Q24.909374 327.825 25.846874 327.825Q26.534374 327.825 27.05 328.10626Q27.58125 328.3875 27.925 328.91876Q28.26875 329.4344 28.45625 330.1844Q28.64375 330.9344 28.64375 332.21564Q28.64375 333.73126 28.33125 334.65314Q28.034374 335.575 27.409374 336.09064Q26.8 336.59064 25.846874 336.59064Q24.6125 336.59064 23.89375 335.7Q23.05 334.6375 23.05 332.21564ZM24.128124 332.21564Q24.128124 334.325 24.628124 335.02814Q25.128124 335.73126 25.846874 335.73126Q26.58125 335.73126 27.065624 335.02814Q27.565624 334.325 27.565624 332.21564Q27.565624 330.09064 27.065624 329.40314Q26.58125 328.7 25.83125 328.7Q25.1125 328.7 24.675 329.3094Q24.128124 330.09064 24.128124 332.21564ZM30.6125 336.45L30.6125 335.2469L31.815624 335.2469L31.815624 336.45Q31.815624 337.10626 31.58125 337.5125Q31.346874 337.9344 30.846874 338.15314L30.55 337.7Q30.878124 337.5594 31.034374 337.2625Q31.190624 336.98126 31.221874 336.45L30.6125 336.45ZM33.05 332.21564Q33.05 330.6844 33.3625 329.7625Q33.675 328.825 34.284374 328.325Q34.909374 327.825 35.846874 327.825Q36.534374 327.825 37.05 328.10626Q37.58125 328.3875 37.925 328.91876Q38.26875 329.4344 38.45625 330.1844Q38.64375 330.9344 38.64375 332.21564Q38.64375 333.73126 38.33125 334.65314Q38.034374 335.575 37.409374 336.09064Q36.8 336.59064 35.846874 336.59064Q34.6125 336.59064 33.89375 335.7Q33.05 334.6375 33.05 332.21564ZM34.128124 332.21564Q34.128124 334.325 34.628124 335.02814Q35.128124 335.73126 35.846874 335.73126Q36.58125 335.73126 37.065624 335.02814Q37.565624 334.325 37.565624 332.21564Q37.565624 330.09064 37.065624 329.40314Q36.58125 328.7 35.83125 328.7Q35.1125 328.7 34.675 329.3094Q34.128124 330.09064 34.128124 332.21564Z" fill-rule="nonzero"/><path fill="#000000" d="M27.01875 280.34332L25.971874 280.34332L25.971874 273.62457Q25.58125 273.98395 24.95625 274.35895Q24.346874 274.71832 23.8625 274.8902L23.8625 273.87457Q24.7375 273.4527 25.39375 272.87457Q26.065624 272.28082 26.346874 271.71832L27.01875 271.71832L27.01875 280.34332ZM30.6125 280.34332L30.6125 279.1402L31.815624 279.1402L31.815624 280.34332Q31.815624 280.99957 31.58125 281.40582Q31.346874 281.8277 30.846874 282.04645L30.55 281.59332Q30.878124 281.4527 31.034374 281.15582Q31.190624 280.87457 31.221874 280.34332L30.6125 280.34332ZM33.05 276.10895Q33.05 274.5777 33.3625 273.65582Q33.675 272.71832 34.284374 272.21832Q34.909374 271.71832 35.846874 271.71832Q36.534374 271.71832 37.05 271.99957Q37.58125 272.28082 37.925 272.81207Q38.26875 273.3277 38.45625 274.0777Q38.64375 274.8277 38.64375 276.10895Q38.64375 277.62457 38.33125 278.54645Q38.034374 279.46832 37.409374 279.98395Q36.8 280.48395 35.846874 280.48395Q34.6125 280.48395 33.89375 279.59332Q33.05 278.53082 33.05 276.10895ZM34.128124 276.10895Q34.128124 278.21832 34.628124 278.92145Q35.128124 279.62457 35.846874 279.62457Q36.58125 279.62457 37.065624 278.92145Q37.565624 278.21832 37.565624 276.10895Q37.565624 273.98395 37.065624 273.29645Q36.58125 272.59332 35.83125 272.59332Q35.1125 272.59332 34.675 273.2027Q34.128124 273.98395 34.128124 276.10895Z" fill-rule="nonzero"/><path fill="#000000" d="M28.596874 223.22104L28.596874 224.23666L22.909374 224.23666Q22.909374 223.86166 23.034374 223.50229Q23.253124 222.92416 23.721874 222.36166Q24.20625 221.79916 25.1125 221.06479Q26.51875 219.90854 27.003124 219.23666Q27.503124 218.56479 27.503124 217.97104Q27.503124 217.34604 27.05 216.92416Q26.596874 216.48666 25.878124 216.48666Q25.1125 216.48666 24.659374 216.93979Q24.20625 217.39291 24.190624 218.20541L23.1125 218.09604Q23.221874 216.87729 23.940624 216.25229Q24.675 215.61166 25.909374 215.61166Q27.14375 215.61166 27.8625 216.29916Q28.58125 216.98666 28.58125 218.00229Q28.58125 218.51791 28.3625 219.01791Q28.159374 219.50229 27.659374 220.06479Q27.175 220.61166 26.05 221.56479Q25.096874 222.36166 24.815624 222.65854Q24.55 222.93979 24.378124 223.22104L28.596874 223.22104ZM30.6125 224.23666L30.6125 223.03354L31.815624 223.03354L31.815624 224.23666Q31.815624 224.89291 31.58125 225.29916Q31.346874 225.72104 30.846874 225.93979L30.55 225.48666Q30.878124 225.34604 31.034374 225.04916Q31.190624 224.76791 31.221874 224.23666L30.6125 224.23666ZM33.05 220.00229Q33.05 218.47104 33.3625 217.54916Q33.675 216.61166 34.284374 216.11166Q34.909374 215.61166 35.846874 215.61166Q36.534374 215.61166 37.05 215.89291Q37.58125 216.17416 37.925 216.70541Q38.26875 217.22104 38.45625 217.97104Q38.64375 218.72104 38.64375 220.00229Q38.64375 221.51791 38.33125 222.43979Q38.034374 223.36166 37.409374 223.87729Q36.8 224.37729 35.846874 224.37729Q34.6125 224.37729 33.89375 223.48666Q33.05 222.42416 33.05 220.00229ZM34.128124 220.00229Q34.128124 222.11166 34.628124 222.81479Q35.128124 223.51791 35.846874 223.51791Q36.58125 223.51791 37.065624 222.81479Q37.565624 222.11166 37.565624 220.00229Q37.565624 217.87729 37.065624 217.18979Q36.58125 216.48666 35.83125 216.48666Q35.1125 216.48666 34.675 217.09604Q34.128124 217.87729 34.128124 220.00229Z" fill-rule="nonzero"/><path fill="#000000" d="M23.05 165.86438L24.1125 165.72375Q24.284374 166.61438 24.721874 167.02063Q25.159374 167.41125 25.784374 167.41125Q26.534374 167.41125 27.05 166.89563Q27.565624 166.38 27.565624 165.61438Q27.565624 164.89563 27.08125 164.42688Q26.6125 163.9425 25.878124 163.9425Q25.58125 163.9425 25.128124 164.0675L25.253124 163.13Q25.3625 163.14563 25.425 163.14563Q26.096874 163.14563 26.628124 162.80188Q27.175 162.4425 27.175 161.70813Q27.175 161.13 26.784374 160.755Q26.39375 160.36438 25.76875 160.36438Q25.159374 160.36438 24.7375 160.755Q24.33125 161.14563 24.221874 161.91125L23.159374 161.72375Q23.346874 160.67688 24.034374 160.09875Q24.721874 159.505 25.7375 159.505Q26.440624 159.505 27.034374 159.8175Q27.628124 160.11438 27.940624 160.63Q28.253124 161.14563 28.253124 161.73938Q28.253124 162.28625 27.95625 162.755Q27.659374 163.20813 27.08125 163.47375Q27.83125 163.64563 28.253124 164.20813Q28.675 164.755 28.675 165.59875Q28.675 166.72375 27.846874 167.505Q27.034374 168.28625 25.784374 168.28625Q24.659374 168.28625 23.909374 167.61438Q23.159374 166.92688 23.05 165.86438ZM30.6125 168.13L30.6125 166.92688L31.815624 166.92688L31.815624 168.13Q31.815624 168.78625 31.58125 169.1925Q31.346874 169.61438 30.846874 169.83313L30.55 169.38Q30.878124 169.23938 31.034374 168.9425Q31.190624 168.66125 31.221874 168.13L30.6125 168.13ZM33.05 163.89563Q33.05 162.36438 33.3625 161.4425Q33.675 160.505 34.284374 160.005Q34.909374 159.505 35.846874 159.505Q36.534374 159.505 37.05 159.78625Q37.58125 160.0675 37.925 160.59875Q38.26875 161.11438 38.45625 161.86438Q38.64375 162.61438 38.64375 163.89563Q38.64375 165.41125 38.33125 166.33313Q38.034374 167.255 37.409374 167.77063Q36.8 168.27063 35.846874 168.27063Q34.6125 168.27063 33.89375 167.38Q33.05 166.3175 33.05 163.89563ZM34.128124 163.89563Q34.128124 166.005 34.628124 166.70813Q35.128124 167.41125 35.846874 167.41125Q36.58125 167.41125 37.065624 166.70813Q37.565624 166.005 37.565624 163.89563Q37.565624 161.77063 37.065624 161.08313Q36.58125 160.38 35.83125 160.38Q35.1125 160.38 34.675 160.98938Q34.128124 161.77063 34.128124 163.89563Z" fill-rule="nonzero"/><path fill="#000000" d="M26.425 112.02333L26.425 109.96083L22.70625 109.96083L22.70625 108.99208L26.628124 103.42958L27.4875 103.42958L27.4875 108.99208L28.64375 108.99208L28.64375 109.96083L27.4875 109.96083L27.4875 112.02333L26.425 112.02333ZM26.425 108.99208L26.425 105.132706L23.7375 108.99208L26.425 108.99208ZM30.6125 112.02333L30.6125 110.820206L31.815624 110.820206L31.815624 112.02333Q31.815624 112.67958 31.58125 113.08583Q31.346874 113.507706 30.846874 113.726456L30.55 113.27333Q30.878124 113.132706 31.034374 112.83583Q31.190624 112.55458 31.221874 112.02333L30.6125 112.02333ZM33.05 107.788956Q33.05 106.257706 33.3625 105.33583Q33.675 104.39833 34.284374 103.89833Q34.909374 103.39833 35.846874 103.39833Q36.534374 103.39833 37.05 103.67958Q37.58125 103.96083 37.925 104.49208Q38.26875 105.007706 38.45625 105.757706Q38.64375 106.507706 38.64375 107.788956Q38.64375 109.30458 38.33125 110.226456Q38.034374 111.14833 37.409374 111.663956Q36.8 112.163956 35.846874 112.163956Q34.6125 112.163956 33.89375 111.27333Q33.05 110.21083 33.05 107.788956ZM34.128124 107.788956Q34.128124 109.89833 34.628124 110.601456Q35.128124 111.30458 35.846874 111.30458Q36.58125 111.30458 37.065624 110.601456Q37.565624 109.89833 37.565624 107.788956Q37.565624 105.663956 37.065624 104.976456Q36.58125 104.27333 35.83125 104.27333Q35.1125 104.27333 34.675 104.882706Q34.128124 105.663956 34.128124 107.788956Z" fill-rule="nonzero"/><path fill="#000000" d="M23.05 53.666668L24.159374 53.572918Q24.284374 54.385418 24.721874 54.791668Q25.175 55.197918 25.815624 55.197918Q26.565624 55.197918 27.096874 54.619793Q27.628124 54.041668 27.628124 53.104168Q27.628124 52.197918 27.1125 51.682293Q26.6125 51.151043 25.784374 51.151043Q25.284374 51.151043 24.8625 51.385418Q24.45625 51.619793 24.221874 51.979168L23.2375 51.854168L24.065624 47.447918L28.346874 47.447918L28.346874 48.447918L24.909374 48.447918L24.45625 50.760418Q25.221874 50.213543 26.065624 50.213543Q27.190624 50.213543 27.95625 50.994793Q28.7375 51.776043 28.7375 53.010418Q28.7375 54.166668 28.065624 55.026043Q27.2375 56.057293 25.815624 56.057293Q24.64375 56.057293 23.89375 55.401043Q23.159374 54.744793 23.05 53.666668ZM30.6125 55.916668L30.6125 54.713543L31.815624 54.713543L31.815624 55.916668Q31.815624 56.572918 31.58125 56.979168Q31.346874 57.401043 30.846874 57.619793L30.55 57.166668Q30.878124 57.026043 31.034374 56.729168Q31.190624 56.447918 31.221874 55.916668L30.6125 55.916668ZM33.05 51.682293Q33.05 50.151043 33.3625 49.229168Q33.675 48.291668 34.284374 47.791668Q34.909374 47.291668 35.846874 47.291668Q36.534374 47.291668 37.05 47.572918Q37.58125 47.854168 37.925 48.385418Q38.26875 48.901043 38.45625 49.651043Q38.64375 50.401043 38.64375 51.682293Q38.64375 53.197918 38.33125 54.119793Q38.034374 55.041668 37.409374 55.557293Q36.8 56.057293 35.846874 56.057293Q34.6125 56.057293 33.89375 55.166668Q33.05 54.104168 33.05 51.682293ZM34.128124 51.682293Q34.128124 53.791668 34.628124 54.494793Q35.128124 55.197918 35.846874 55.197918Q36.58125 55.197918 37.065624 54.494793Q37.565624 53.791668 37.565624 51.682293Q37.565624 49.557293 37.065624 48.869793Q36.58125 48.166668 35.83125 48.166668Q35.1125 48.166668 34.675 48.776043Q34.128124 49.557293 34.128124 51.682293Z" fill-rule="nonzero"/><path fill="#000000" d="M95.09223 348.4344L95.09223 349.45L89.40473 349.45Q89.40473 349.075 89.52973 348.71564Q89.74848 348.1375 90.21723 347.575Q90.70161 347.0125 91.60786 346.27814Q93.01411 345.1219 93.49848 344.45Q93.99848 343.77814 93.99848 343.1844Q93.99848 342.5594 93.54536 342.1375Q93.09223 341.7 92.37348 341.7Q91.60786 341.7 91.15473 342.15314Q90.70161 342.60626 90.68598 343.41876L89.60786 343.3094Q89.71723 342.09064 90.43598 341.46564Q91.17036 340.825 92.40473 340.825Q93.63911 340.825 94.35786 341.5125Q95.07661 342.2 95.07661 343.21564Q95.07661 343.73126 94.85786 344.23126Q94.65473 344.71564 94.15473 345.27814Q93.67036 345.825 92.54536 346.77814Q91.59223 347.575 91.31098 347.8719Q91.04536 348.15314 90.87348 348.4344L95.09223 348.4344Z" fill-rule="nonzero"/><path fill="#000000" d="M173.2675 349.45L173.2675 347.3875L169.54875 347.3875L169.54875 346.41876L173.47063 340.85626L174.33 340.85626L174.33 346.41876L175.48625 346.41876L175.48625 347.3875L174.33 347.3875L174.33 349.45L173.2675 349.45ZM173.2675 346.41876L173.2675 342.5594L170.58 346.41876L173.2675 346.41876Z" fill-rule="nonzero"/><path fill="#000000" d="M255.70839 342.96564L254.66151 343.04376Q254.52089 342.41876 254.27089 342.1375Q253.83339 341.6844 253.20839 341.6844Q252.70839 341.6844 252.31776 341.96564Q251.83339 342.34064 251.53651 343.04376Q251.25526 343.73126 251.23964 345.0125Q251.61464 344.4344 252.16151 344.15314Q252.72401 343.8719 253.33339 343.8719Q254.38026 343.8719 255.11464 344.65314Q255.86464 345.4344 255.86464 346.65314Q255.86464 347.46564 255.50526 348.16876Q255.16151 348.85626 254.55214 349.23126Q253.94276 349.59064 253.17714 349.59064Q251.84901 349.59064 251.02089 348.6219Q250.19276 347.65314 250.19276 345.4344Q250.19276 342.9344 251.11464 341.8094Q251.91151 340.825 253.27089 340.825Q254.28651 340.825 254.92714 341.40314Q255.58339 341.96564 255.70839 342.96564ZM251.41151 346.66876Q251.41151 347.21564 251.63026 347.71564Q251.86464 348.2 252.27089 348.46564Q252.69276 348.73126 253.16151 348.73126Q253.81776 348.73126 254.30214 348.2Q254.78651 347.65314 254.78651 346.73126Q254.78651 345.84064 254.30214 345.325Q253.83339 344.8094 253.11464 344.8094Q252.39589 344.8094 251.89589 345.325Q251.41151 345.84064 251.41151 346.66876Z" fill-rule="nonzero"/><path fill="#000000" d="M332.2118 344.79376Q331.55554 344.54376 331.22742 344.10626Q330.91492 343.65314 330.91492 343.04376Q330.91492 342.10626 331.5868 341.46564Q332.2743 340.825 333.38367 340.825Q334.50867 340.825 335.19617 341.48126Q335.88367 342.1375 335.88367 343.075Q335.88367 343.66876 335.57117 344.10626Q335.25867 344.54376 334.61804 344.79376Q335.41492 345.04376 335.82117 345.6219Q336.22742 346.2 336.22742 346.9969Q336.22742 348.09064 335.44617 348.84064Q334.68054 349.59064 333.3993 349.59064Q332.13367 349.59064 331.35242 348.84064Q330.57117 348.09064 330.57117 346.96564Q330.57117 346.1219 330.99304 345.5594Q331.43054 344.9969 332.2118 344.79376ZM331.99304 342.9969Q331.99304 343.60626 332.38367 343.9969Q332.78992 344.3875 333.41492 344.3875Q334.0243 344.3875 334.41492 344.0125Q334.80554 343.6219 334.80554 343.0594Q334.80554 342.48126 334.3993 342.09064Q333.99304 341.6844 333.3993 341.6844Q332.78992 341.6844 332.38367 342.075Q331.99304 342.46564 331.99304 342.9969ZM331.66492 346.96564Q331.66492 347.41876 331.86804 347.84064Q332.0868 348.2625 332.50867 348.4969Q332.93054 348.73126 333.41492 348.73126Q334.16492 348.73126 334.6493 348.2469Q335.1493 347.7625 335.1493 347.0125Q335.1493 346.2469 334.6493 345.7469Q334.1493 345.2469 333.38367 345.2469Q332.63367 345.2469 332.1493 345.7469Q331.66492 346.23126 331.66492 346.96564Z" fill-rule="nonzero"/><path fill="#000000" d="M411.40268 349.45L410.3558 349.45L410.3558 342.73126Q409.96518 343.09064 409.34018 343.46564Q408.7308 343.825 408.24643 343.9969L408.24643 342.98126Q409.12143 342.5594 409.77768 341.98126Q410.44955 341.3875 410.7308 340.825L411.40268 340.825L411.40268 349.45ZM414.43393 345.21564Q414.43393 343.6844 414.74643 342.7625Q415.05893 341.825 415.6683 341.325Q416.2933 340.825 417.2308 340.825Q417.9183 340.825 418.43393 341.10626Q418.96518 341.3875 419.30893 341.91876Q419.65268 342.4344 419.84018 343.1844Q420.02768 343.9344 420.02768 345.21564Q420.02768 346.73126 419.71518 347.65314Q419.4183 348.575 418.7933 349.09064Q418.18393 349.59064 417.2308 349.59064Q415.99643 349.59064 415.27768 348.7Q414.43393 347.6375 414.43393 345.21564ZM415.51205 345.21564Q415.51205 347.325 416.01205 348.02814Q416.51205 348.73126 417.2308 348.73126Q417.96518 348.73126 418.44955 348.02814Q418.94955 347.325 418.94955 345.21564Q418.94955 343.09064 418.44955 342.40314Q417.96518 341.7 417.21518 341.7Q416.49643 341.7 416.05893 342.3094Q415.51205 343.09064 415.51205 345.21564Z" fill-rule="nonzero"/><path fill="#000000" d="M491.74982 349.45L490.70294 349.45L490.70294 342.73126Q490.31232 343.09064 489.68732 343.46564Q489.07794 343.825 488.59357 343.9969L488.59357 342.98126Q489.46857 342.5594 490.12482 341.98126Q490.7967 341.3875 491.07794 340.825L491.74982 340.825L491.74982 349.45ZM500.32794 348.4344L500.32794 349.45L494.64044 349.45Q494.64044 349.075 494.76544 348.71564Q494.9842 348.1375 495.45294 347.575Q495.93732 347.0125 496.84357 346.27814Q498.24982 345.1219 498.7342 344.45Q499.2342 343.77814 499.2342 343.1844Q499.2342 342.5594 498.78107 342.1375Q498.32794 341.7 497.6092 341.7Q496.84357 341.7 496.39044 342.15314Q495.93732 342.60626 495.9217 343.41876L494.84357 343.3094Q494.95294 342.09064 495.6717 341.46564Q496.40607 340.825 497.64044 340.825Q498.87482 340.825 499.59357 341.5125Q500.31232 342.2 500.31232 343.21564Q500.31232 343.73126 500.09357 344.23126Q499.89044 344.71564 499.39044 345.27814Q498.90607 345.825 497.78107 346.77814Q496.82794 347.575 496.5467 347.8719Q496.28107 348.15314 496.1092 348.4344L500.32794 348.4344Z" fill-rule="nonzero"/><path fill="#000000" d="M572.097 349.45L571.0501 349.45L571.0501 342.73126Q570.6595 343.09064 570.0345 343.46564Q569.4251 343.825 568.94073 343.9969L568.94073 342.98126Q569.81573 342.5594 570.472 341.98126Q571.14386 341.3875 571.4251 340.825L572.097 340.825L572.097 349.45ZM578.50323 349.45L578.50323 347.3875L574.7845 347.3875L574.7845 346.41876L578.70636 340.85626L579.56573 340.85626L579.56573 346.41876L580.722 346.41876L580.722 347.3875L579.56573 347.3875L579.56573 349.45L578.50323 349.45ZM578.50323 346.41876L578.50323 342.5594L575.81573 346.41876L578.50323 346.41876Z" fill-rule="nonzero"/><path fill="#4f81bd" d="M122.0 25.55C122.0 28.863708 119.313705 31.55 116.0 31.55C112.686295 31.55 110.0 28.863708 110.0 25.55C110.0 22.236292 112.686295 19.55 116.0 19.55C119.313705 19.55 122.0 22.236292 122.0 25.55Z" fill-rule="nonzero"/><path fill="#1a1a1a" d="M134.95312 26.175L134.95312 25.175L138.57812 25.159374L138.57812 28.346874Q137.75 29.01875 136.85938 29.3625Q135.96875 29.690624 135.03125 29.690624Q133.76562 29.690624 132.71875 29.159374Q131.6875 28.6125 131.15625 27.596874Q130.64062 26.565624 130.64062 25.3Q130.64062 24.034374 131.15625 22.95625Q131.6875 21.8625 132.67188 21.346874Q133.65625 20.815624 134.9375 20.815624Q135.875 20.815624 136.625 21.1125Q137.375 21.409374 137.79688 21.95625Q138.23438 22.4875 138.45312 23.3625L137.4375 23.64375Q137.23438 22.9875 136.9375 22.6125Q136.65625 22.2375 136.125 22.01875Q135.59375 21.784374 134.95312 21.784374Q134.17188 21.784374 133.59375 22.01875Q133.03125 22.253124 132.67188 22.64375Q132.32812 23.034374 132.14062 23.503124Q131.8125 24.3 131.8125 25.221874Q131.8125 26.378124 132.20312 27.159374Q132.60938 27.925 133.35938 28.3Q134.10938 28.675 134.96875 28.675Q135.70312 28.675 136.40625 28.39375Q137.10938 28.096874 137.46875 27.784374L137.46875 26.175L134.95312 26.175ZM139.78125 29.55L139.78125 23.33125L140.73438 23.33125L140.73438 24.26875Q141.09375 23.6125 141.39062 23.409374Q141.70312 23.190624 142.07812 23.190624Q142.60938 23.190624 143.15625 23.51875L142.79688 24.503124Q142.40625 24.26875 142.03125 24.26875Q141.67188 24.26875 141.39062 24.4875Q141.125 24.690624 141.01562 25.065624Q140.82812 25.628124 140.82812 26.284374L140.82812 29.55L139.78125 29.55ZM143.40625 26.440624Q143.40625 24.70625 144.35938 23.878124Q145.15625 23.190624 146.3125 23.190624Q147.59375 23.190624 148.40625 24.034374Q149.23438 24.8625 149.23438 26.346874Q149.23438 27.55 148.875 28.2375Q148.51562 28.925 147.8125 29.315624Q147.125 29.690624 146.3125 29.690624Q145.01562 29.690624 144.20312 28.8625Q143.40625 28.01875 143.40625 26.440624ZM144.48438 26.440624Q144.48438 27.628124 145.0 28.221874Q145.53125 28.815624 146.3125 28.815624Q147.10938 28.815624 147.625 28.221874Q148.14062 27.628124 148.14062 26.409374Q148.14062 25.253124 147.60938 24.659374Q147.09375 24.065624 146.3125 24.065624Q145.53125 24.065624 145.0 24.659374Q144.48438 25.2375 144.48438 26.440624ZM150.375 27.690624L151.40625 27.534374Q151.5 28.159374 151.89062 28.4875Q152.29688 28.815624 153.03125 28.815624Q153.75 28.815624 154.09375 28.534374Q154.45312 28.2375 154.45312 27.83125Q154.45312 27.471874 154.14062 27.26875Q153.92188 27.128124 153.0625 26.909374Q151.90625 26.6125 151.45312 26.409374Q151.01562 26.190624 150.78125 25.815624Q150.54688 25.440624 150.54688 24.971874Q150.54688 24.565624 150.73438 24.20625Q150.92188 23.846874 151.25 23.6125Q151.5 23.440624 151.92188 23.315624Q152.34375 23.190624 152.84375 23.190624Q153.5625 23.190624 154.10938 23.409374Q154.67188 23.6125 154.9375 23.971874Q155.20312 24.33125 155.29688 24.925L154.26562 25.065624Q154.20312 24.596874 153.85938 24.33125Q153.53125 24.05 152.90625 24.05Q152.1875 24.05 151.875 24.3Q151.5625 24.534374 151.5625 24.8625Q151.5625 25.065624 151.6875 25.221874Q151.82812 25.39375 152.09375 25.503124Q152.25 25.565624 153.03125 25.76875Q154.15625 26.08125 154.59375 26.26875Q155.03125 26.45625 155.28125 26.815624Q155.53125 27.175 155.53125 27.721874Q155.53125 28.253124 155.21875 28.721874Q154.92188 29.175 154.34375 29.440624Q153.76562 29.690624 153.03125 29.690624Q151.8125 29.690624 151.17188 29.190624Q150.54688 28.675 150.375 27.690624ZM157.40625 26.440624Q157.40625 24.70625 158.35938 23.878124Q159.15625 23.190624 160.3125 23.190624Q161.59375 23.190624 162.40625 24.034374Q163.23438 24.8625 163.23438 26.346874Q163.23438 27.55 162.875 28.2375Q162.51562 28.925 161.8125 29.315624Q161.125 29.690624 160.3125 29.690624Q159.01562 29.690624 158.20312 28.8625Q157.40625 28.01875 157.40625 26.440624ZM158.48438 26.440624Q158.48438 27.628124 159.0 28.221874Q159.53125 28.815624 160.3125 28.815624Q161.10938 28.815624 161.625 28.221874Q162.14062 27.628124 162.14062 26.409374Q162.14062 25.253124 161.60938 24.659374Q161.09375 24.065624 160.3125 24.065624Q159.53125 24.065624 159.0 24.659374Q158.48438 25.2375 158.48438 26.440624ZM164.78125 29.55L164.78125 23.33125L165.73438 23.33125L165.73438 24.26875Q166.09375 23.6125 166.39062 23.409374Q166.70312 23.190624 167.07812 23.190624Q167.60938 23.190624 168.15625 23.51875L167.79688 24.503124Q167.40625 24.26875 167.03125 24.26875Q166.67188 24.26875 166.39062 24.4875Q166.125 24.690624 166.01562 25.065624Q165.82812 25.628124 165.82812 26.284374L165.82812 29.55L164.78125 29.55ZM174.09375 28.6125L174.25 29.534374Q173.79688 29.628124 173.45312 29.628124Q172.875 29.628124 172.5625 29.45625Q172.25 29.26875 172.10938 28.971874Q171.98438 28.675 171.98438 27.721874L171.98438 24.14375L171.21875 24.14375L171.21875 23.33125L171.98438 23.33125L171.98438 21.784374L173.03125 21.159374L173.03125 23.33125L174.09375 23.33125L174.09375 24.14375L173.03125 24.14375L173.03125 27.784374Q173.03125 28.2375 173.07812 28.3625Q173.14062 28.4875 173.26562 28.565624Q173.39062 28.64375 173.625 28.64375Q173.8125 28.64375 174.09375 28.6125ZM178.85938 28.784374Q178.26562 29.284374 177.71875 29.4875Q177.1875 29.690624 176.5625 29.690624Q175.53125 29.690624 174.98438 29.190624Q174.4375 28.690624 174.4375 27.909374Q174.4375 27.45625 174.64062 27.08125Q174.84375 26.690624 175.1875 26.471874Q175.53125 26.2375 175.95312 26.128124Q176.25 26.034374 176.89062 25.95625Q178.15625 25.815624 178.76562 25.596874Q178.76562 25.378124 178.76562 25.33125Q178.76562 24.675 178.46875 24.409374Q178.0625 24.065624 177.26562 24.065624Q176.53125 24.065624 176.17188 24.33125Q175.8125 24.58125 175.64062 25.2375L174.60938 25.096874Q174.75 24.440624 175.07812 24.034374Q175.40625 23.628124 176.01562 23.409374Q176.625 23.190624 177.42188 23.190624Q178.21875 23.190624 178.71875 23.378124Q179.21875 23.565624 179.45312 23.846874Q179.6875 24.128124 179.78125 24.565624Q179.82812 24.83125 179.82812 25.534374L179.82812 26.940624Q179.82812 28.409374 179.89062 28.8Q179.96875 29.190624 180.17188 29.55L179.0625 29.55Q178.90625 29.221874 178.85938 28.784374ZM178.76562 26.425Q178.1875 26.659374 177.04688 26.83125Q176.39062 26.925 176.125 27.05Q175.85938 27.159374 175.70312 27.378124Q175.5625 27.596874 175.5625 27.878124Q175.5625 28.3 175.875 28.58125Q176.20312 28.8625 176.8125 28.8625Q177.42188 28.8625 177.89062 28.596874Q178.375 28.33125 178.59375 27.8625Q178.76562 27.503124 178.76562 26.815624L178.76562 26.425ZM181.76562 29.55L181.76562 20.95625L182.82812 20.95625L182.82812 29.55L181.76562 29.55ZM184.76562 29.55L184.76562 20.95625L185.82812 20.95625L185.82812 29.55L184.76562 29.55ZM187.40625 26.440624Q187.40625 24.70625 188.35938 23.878124Q189.15625 23.190624 190.3125 23.190624Q191.59375 23.190624 192.40625 24.034374Q193.23438 24.8625 193.23438 26.346874Q193.23438 27.55 192.875 28.2375Q192.51562 28.925 191.8125 29.315624Q191.125 29.690624 190.3125 29.690624Q189.01562 29.690624 188.20312 28.8625Q187.40625 28.01875 187.40625 26.440624ZM188.48438 26.440624Q188.48438 27.628124 189.0 28.221874Q189.53125 28.815624 190.3125 28.815624Q191.10938 28.815624 191.625 28.221874Q192.14062 27.628124 192.14062 26.409374Q192.14062 25.253124 191.60938 24.659374Q191.09375 24.065624 190.3125 24.065624Q189.53125 24.065624 189.0 24.659374Q188.48438 25.2375 188.48438 26.440624ZM199.8125 32.08125Q198.9375 30.971874 198.32812 29.503124Q197.73438 28.01875 197.73438 26.440624Q197.73438 25.05 198.17188 23.76875Q198.70312 22.284374 199.8125 20.815624L200.5625 20.815624Q199.85938 22.034374 199.625 22.55Q199.26562 23.3625 199.0625 24.2375Q198.8125 25.33125 198.8125 26.440624Q198.8125 29.26875 200.5625 32.08125L199.8125 32.08125ZM201.79688 29.55L201.79688 23.33125L202.73438 23.33125L202.73438 24.20625Q203.03125 23.7375 203.51562 23.471874Q204.0 23.190624 204.625 23.190624Q205.3125 23.190624 205.75 23.471874Q206.20312 23.753124 206.375 24.26875Q207.125 23.190624 208.29688 23.190624Q209.23438 23.190624 209.71875 23.70625Q210.21875 24.20625 210.21875 25.284374L210.21875 29.55L209.17188 29.55L209.17188 25.628124Q209.17188 25.003124 209.0625 24.721874Q208.96875 24.440624 208.70312 24.26875Q208.4375 24.096874 208.0625 24.096874Q207.40625 24.096874 206.96875 24.534374Q206.54688 24.971874 206.54688 25.940624L206.54688 29.55L205.48438 29.55L205.48438 25.503124Q205.48438 24.8 205.21875 24.45625Q204.96875 24.096874 204.39062 24.096874Q203.9375 24.096874 203.5625 24.33125Q203.1875 24.565624 203.01562 25.01875Q202.84375 25.471874 202.84375 26.315624L202.84375 29.55L201.79688 29.55ZM212.79688 29.55L212.79688 23.33125L213.73438 23.33125L213.73438 24.20625Q214.03125 23.7375 214.51562 23.471874Q215.0 23.190624 215.625 23.190624Q216.3125 23.190624 216.75 23.471874Q217.20312 23.753124 217.375 24.26875Q218.125 23.190624 219.29688 23.190624Q220.23438 23.190624 220.71875 23.70625Q221.21875 24.20625 221.21875 25.284374L221.21875 29.55L220.17188 29.55L220.17188 25.628124Q220.17188 25.003124 220.0625 24.721874Q219.96875 24.440624 219.70312 24.26875Q219.4375 24.096874 219.0625 24.096874Q218.40625 24.096874 217.96875 24.534374Q217.54688 24.971874 217.54688 25.940624L217.54688 29.55L216.48438 29.55L216.48438 25.503124Q216.48438 24.8 216.21875 24.45625Q215.96875 24.096874 215.39062 24.096874Q214.9375 24.096874 214.5625 24.33125Q214.1875 24.565624 214.01562 25.01875Q213.84375 25.471874 213.84375 26.315624L213.84375 29.55L212.79688 29.55ZM224.48438 32.08125L223.73438 32.08125Q225.48438 29.26875 225.48438 26.440624Q225.48438 25.346874 225.23438 24.253124Q225.03125 23.378124 224.67188 22.565624Q224.4375 22.05 223.73438 20.815624L224.48438 20.815624Q225.57812 22.284374 226.10938 23.76875Q226.5625 25.05 226.5625 26.440624Q226.5625 28.01875 225.95312 29.503124Q225.34375 30.971874 224.48438 32.08125ZM234.46875 29.55L233.42188 29.55L233.42188 22.83125Q233.03125 23.190624 232.40625 23.565624Q231.79688 23.925 231.3125 24.096874L231.3125 23.08125Q232.1875 22.659374 232.84375 22.08125Q233.51562 21.4875 233.79688 20.925L234.46875 20.925L234.46875 29.55ZM241.46875 29.55L240.42188 29.55L240.42188 22.83125Q240.03125 23.190624 239.40625 23.565624Q238.79688 23.925 238.3125 24.096874L238.3125 23.08125Q239.1875 22.659374 239.84375 22.08125Q240.51562 21.4875 240.79688 20.925L241.46875 20.925L241.46875 29.55ZM244.0 29.690624L246.48438 20.815624L247.32812 20.815624L244.84375 29.690624L244.0 29.690624ZM247.5 25.315624Q247.5 23.784374 247.8125 22.8625Q248.125 21.925 248.73438 21.425Q249.35938 20.925 250.29688 20.925Q250.98438 20.925 251.5 21.20625Q252.03125 21.4875 252.375 22.01875Q252.71875 22.534374 252.90625 23.284374Q253.09375 24.034374 253.09375 25.315624Q253.09375 26.83125 252.78125 27.753124Q252.48438 28.675 251.85938 29.190624Q251.25 29.690624 250.29688 29.690624Q249.0625 29.690624 248.34375 28.8Q247.5 27.7375 247.5 25.315624ZM248.57812 25.315624Q248.57812 27.425 249.07812 28.128124Q249.57812 28.83125 250.29688 28.83125Q251.03125 28.83125 251.51562 28.128124Q252.01562 27.425 252.01562 25.315624Q252.01562 23.190624 251.51562 22.503124Q251.03125 21.8 250.28125 21.8Q249.5625 21.8 249.125 22.409374Q248.57812 23.190624 248.57812 25.315624ZM260.04688 28.534374L260.04688 29.55L254.35938 29.55Q254.35938 29.175 254.48438 28.815624Q254.70312 28.2375 255.17188 27.675Q255.65625 27.1125 256.5625 26.378124Q257.96875 25.221874 258.45312 24.55Q258.95312 23.878124 258.95312 23.284374Q258.95312 22.659374 258.5 22.2375Q258.04688 21.8 257.32812 21.8Q256.5625 21.8 256.10938 22.253124Q255.65625 22.70625 255.64062 23.51875L254.5625 23.409374Q254.67188 22.190624 255.39062 21.565624Q256.125 20.925 257.35938 20.925Q258.59375 20.925 259.3125 21.6125Q260.03125 22.3 260.03125 23.315624Q260.03125 23.83125 259.8125 24.33125Q259.60938 24.815624 259.10938 25.378124Q258.625 25.925 257.5 26.878124Q256.54688 27.675 256.26562 27.971874Q256.0 28.253124 255.82812 28.534374L260.04688 28.534374ZM261.0 29.690624L263.48438 20.815624L264.32812 20.815624L261.84375 29.690624L261.0 29.690624ZM270.04688 28.534374L270.04688 29.55L264.35938 29.55Q264.35938 29.175 264.48438 28.815624Q264.70312 28.2375 265.17188 27.675Q265.65625 27.1125 266.5625 26.378124Q267.96875 25.221874 268.45312 24.55Q268.95312 23.878124 268.95312 23.284374Q268.95312 22.659374 268.5 22.2375Q268.04688 21.8 267.32812 21.8Q266.5625 21.8 266.10938 22.253124Q265.65625 22.70625 265.64062 23.51875L264.5625 23.409374Q264.67188 22.190624 265.39062 21.565624Q266.125 20.925 267.35938 20.925Q268.59375 20.925 269.3125 21.6125Q270.03125 22.3 270.03125 23.315624Q270.03125 23.83125 269.8125 24.33125Q269.60938 24.815624 269.10938 25.378124Q268.625 25.925 267.5 26.878124Q266.54688 27.675 266.26562 27.971874Q266.0 28.253124 265.82812 28.534374L270.04688 28.534374ZM271.5 25.315624Q271.5 23.784374 271.8125 22.8625Q272.125 21.925 272.73438 21.425Q273.35938 20.925 274.29688 20.925Q274.98438 20.925 275.5 21.20625Q276.03125 21.4875 276.375 22.01875Q276.71875 22.534374 276.90625 23.284374Q277.09375 24.034374 277.09375 25.315624Q277.09375 26.83125 276.78125 27.753124Q276.48438 28.675 275.85938 29.190624Q275.25 29.690624 274.29688 29.690624Q273.0625 29.690624 272.34375 28.8Q271.5 27.7375 271.5 25.315624ZM272.57812 25.315624Q272.57812 27.425 273.07812 28.128124Q273.57812 28.83125 274.29688 28.83125Q275.03125 28.83125 275.51562 28.128124Q276.01562 27.425 276.01562 25.315624Q276.01562 23.190624 275.51562 22.503124Q275.03125 21.8 274.28125 21.8Q273.5625 21.8 273.125 22.409374Q272.57812 23.190624 272.57812 25.315624ZM284.04688 28.534374L284.04688 29.55L278.35938 29.55Q278.35938 29.175 278.48438 28.815624Q278.70312 28.2375 279.17188 27.675Q279.65625 27.1125 280.5625 26.378124Q281.96875 25.221874 282.45312 24.55Q282.95312 23.878124 282.95312 23.284374Q282.95312 22.659374 282.5 22.2375Q282.04688 21.8 281.32812 21.8Q280.5625 21.8 280.10938 22.253124Q279.65625 22.70625 279.64062 23.51875L278.5625 23.409374Q278.67188 22.190624 279.39062 21.565624Q280.125 20.925 281.35938 20.925Q282.59375 20.925 283.3125 21.6125Q284.03125 22.3 284.03125 23.315624Q284.03125 23.83125 283.8125 24.33125Q283.60938 24.815624 283.10938 25.378124Q282.625 25.925 281.5 26.878124Q280.54688 27.675 280.26562 27.971874Q280.0 28.253124 279.82812 28.534374L284.04688 28.534374ZM285.5 27.3L286.60938 27.20625Q286.73438 28.01875 287.17188 28.425Q287.625 28.83125 288.26562 28.83125Q289.01562 28.83125 289.54688 28.253124Q290.07812 27.675 290.07812 26.7375Q290.07812 25.83125 289.5625 25.315624Q289.0625 24.784374 288.23438 24.784374Q287.73438 24.784374 287.3125 25.01875Q286.90625 25.253124 286.67188 25.6125L285.6875 25.4875L286.51562 21.08125L290.79688 21.08125L290.79688 22.08125L287.35938 22.08125L286.90625 24.39375Q287.67188 23.846874 288.51562 23.846874Q289.64062 23.846874 290.40625 24.628124Q291.1875 25.409374 291.1875 26.64375Q291.1875 27.8 290.51562 28.659374Q289.6875 29.690624 288.26562 29.690624Q287.09375 29.690624 286.34375 29.034374Q285.60938 28.378124 285.5 27.3Z" fill-rule="nonzero"/><path fill="#c0504d" d="M320.0 25.55C320.0 28.863708 317.31372 31.55 314.0 31.55C310.68628 31.55 308.0 28.863708 308.0 25.55C308.0 22.236292 310.68628 19.55 314.0 19.55C317.31372 19.55 320.0 22.236292 320.0 25.55Z" fill-rule="nonzero"/><path fill="#1a1a1a" d="M332.95312 26.175L332.95312 25.175L336.57812 25.159374L336.57812 28.346874Q335.75 29.01875 334.85938 29.3625Q333.96875 29.690624 333.03125 29.690624Q331.76562 29.690624 330.71875 29.159374Q329.6875 28.6125 329.15625 27.596874Q328.64062 26.565624 328.64062 25.3Q328.64062 24.034374 329.15625 22.95625Q329.6875 21.8625 330.67188 21.346874Q331.65625 20.815624 332.9375 20.815624Q333.875 20.815624 334.625 21.1125Q335.375 21.409374 335.79688 21.95625Q336.23438 22.4875 336.45312 23.3625L335.4375 23.64375Q335.23438 22.9875 334.9375 22.6125Q334.65625 22.2375 334.125 22.01875Q333.59375 21.784374 332.95312 21.784374Q332.17188 21.784374 331.59375 22.01875Q331.03125 22.253124 330.67188 22.64375Q330.32812 23.034374 330.14062 23.503124Q329.8125 24.3 329.8125 25.221874Q329.8125 26.378124 330.20312 27.159374Q330.60938 27.925 331.35938 28.3Q332.10938 28.675 332.96875 28.675Q333.70312 28.675 334.40625 28.39375Q335.10938 28.096874 335.46875 27.784374L335.46875 26.175L332.95312 26.175ZM337.78125 29.55L337.78125 23.33125L338.73438 23.33125L338.73438 24.26875Q339.09375 23.6125 339.39062 23.409374Q339.70312 23.190624 340.07812 23.190624Q340.60938 23.190624 341.15625 23.51875L340.79688 24.503124Q340.40625 24.26875 340.03125 24.26875Q339.67188 24.26875 339.39062 24.4875Q339.125 24.690624 339.01562 25.065624Q338.82812 25.628124 338.82812 26.284374L338.82812 29.55L337.78125 29.55ZM341.40625 26.440624Q341.40625 24.70625 342.35938 23.878124Q343.15625 23.190624 344.3125 23.190624Q345.59375 23.190624 346.40625 24.034374Q347.23438 24.8625 347.23438 26.346874Q347.23438 27.55 346.875 28.2375Q346.51562 28.925 345.8125 29.315624Q345.125 29.690624 344.3125 29.690624Q343.01562 29.690624 342.20312 28.8625Q341.40625 28.01875 341.40625 26.440624ZM342.48438 26.440624Q342.48438 27.628124 343.0 28.221874Q343.53125 28.815624 344.3125 28.815624Q345.10938 28.815624 345.625 28.221874Q346.14062 27.628124 346.14062 26.409374Q346.14062 25.253124 345.60938 24.659374Q345.09375 24.065624 344.3125 24.065624Q343.53125 24.065624 343.0 24.659374Q342.48438 25.2375 342.48438 26.440624ZM348.375 27.690624L349.40625 27.534374Q349.5 28.159374 349.89062 28.4875Q350.29688 28.815624 351.03125 28.815624Q351.75 28.815624 352.09375 28.534374Q352.45312 28.2375 352.45312 27.83125Q352.45312 27.471874 352.14062 27.26875Q351.92188 27.128124 351.0625 26.909374Q349.90625 26.6125 349.45312 26.409374Q349.01562 26.190624 348.78125 25.815624Q348.54688 25.440624 348.54688 24.971874Q348.54688 24.565624 348.73438 24.20625Q348.92188 23.846874 349.25 23.6125Q349.5 23.440624 349.92188 23.315624Q350.34375 23.190624 350.84375 23.190624Q351.5625 23.190624 352.10938 23.409374Q352.67188 23.6125 352.9375 23.971874Q353.20312 24.33125 353.29688 24.925L352.26562 25.065624Q352.20312 24.596874 351.85938 24.33125Q351.53125 24.05 350.90625 24.05Q350.1875 24.05 349.875 24.3Q349.5625 24.534374 349.5625 24.8625Q349.5625 25.065624 349.6875 25.221874Q349.82812 25.39375 350.09375 25.503124Q350.25 25.565624 351.03125 25.76875Q352.15625 26.08125 352.59375 26.26875Q353.03125 26.45625 353.28125 26.815624Q353.53125 27.175 353.53125 27.721874Q353.53125 28.253124 353.21875 28.721874Q352.92188 29.175 352.34375 29.440624Q351.76562 29.690624 351.03125 29.690624Q349.8125 29.690624 349.17188 29.190624Q348.54688 28.675 348.375 27.690624ZM355.40625 26.440624Q355.40625 24.70625 356.35938 23.878124Q357.15625 23.190624 358.3125 23.190624Q359.59375 23.190624 360.40625 24.034374Q361.23438 24.8625 361.23438 26.346874Q361.23438 27.55 360.875 28.2375Q360.51562 28.925 359.8125 29.315624Q359.125 29.690624 358.3125 29.690624Q357.01562 29.690624 356.20312 28.8625Q355.40625 28.01875 355.40625 26.440624ZM356.48438 26.440624Q356.48438 27.628124 357.0 28.221874Q357.53125 28.815624 358.3125 28.815624Q359.10938 28.815624 359.625 28.221874Q360.14062 27.628124 360.14062 26.409374Q360.14062 25.253124 359.60938 24.659374Q359.09375 24.065624 358.3125 24.065624Q357.53125 24.065624 357.0 24.659374Q356.48438 25.2375 356.48438 26.440624ZM362.78125 29.55L362.78125 23.33125L363.73438 23.33125L363.73438 24.26875Q364.09375 23.6125 364.39062 23.409374Q364.70312 23.190624 365.07812 23.190624Q365.60938 23.190624 366.15625 23.51875L365.79688 24.503124Q365.40625 24.26875 365.03125 24.26875Q364.67188 24.26875 364.39062 24.4875Q364.125 24.690624 364.01562 25.065624Q363.82812 25.628124 363.82812 26.284374L363.82812 29.55L362.78125 29.55ZM372.09375 28.6125L372.25 29.534374Q371.79688 29.628124 371.45312 29.628124Q370.875 29.628124 370.5625 29.45625Q370.25 29.26875 370.10938 28.971874Q369.98438 28.675 369.98438 27.721874L369.98438 24.14375L369.21875 24.14375L369.21875 23.33125L369.98438 23.33125L369.98438 21.784374L371.03125 21.159374L371.03125 23.33125L372.09375 23.33125L372.09375 24.14375L371.03125 24.14375L371.03125 27.784374Q371.03125 28.2375 371.07812 28.3625Q371.14062 28.4875 371.26562 28.565624Q371.39062 28.64375 371.625 28.64375Q371.8125 28.64375 372.09375 28.6125ZM376.85938 28.784374Q376.26562 29.284374 375.71875 29.4875Q375.1875 29.690624 374.5625 29.690624Q373.53125 29.690624 372.98438 29.190624Q372.4375 28.690624 372.4375 27.909374Q372.4375 27.45625 372.64062 27.08125Q372.84375 26.690624 373.1875 26.471874Q373.53125 26.2375 373.95312 26.128124Q374.25 26.034374 374.89062 25.95625Q376.15625 25.815624 376.76562 25.596874Q376.76562 25.378124 376.76562 25.33125Q376.76562 24.675 376.46875 24.409374Q376.0625 24.065624 375.26562 24.065624Q374.53125 24.065624 374.17188 24.33125Q373.8125 24.58125 373.64062 25.2375L372.60938 25.096874Q372.75 24.440624 373.07812 24.034374Q373.40625 23.628124 374.01562 23.409374Q374.625 23.190624 375.42188 23.190624Q376.21875 23.190624 376.71875 23.378124Q377.21875 23.565624 377.45312 23.846874Q377.6875 24.128124 377.78125 24.565624Q377.82812 24.83125 377.82812 25.534374L377.82812 26.940624Q377.82812 28.409374 377.89062 28.8Q377.96875 29.190624 378.17188 29.55L377.0625 29.55Q376.90625 29.221874 376.85938 28.784374ZM376.76562 26.425Q376.1875 26.659374 375.04688 26.83125Q374.39062 26.925 374.125 27.05Q373.85938 27.159374 373.70312 27.378124Q373.5625 27.596874 373.5625 27.878124Q373.5625 28.3 373.875 28.58125Q374.20312 28.8625 374.8125 28.8625Q375.42188 28.8625 375.89062 28.596874Q376.375 28.33125 376.59375 27.8625Q376.76562 27.503124 376.76562 26.815624L376.76562 26.425ZM379.76562 29.55L379.76562 20.95625L380.82812 20.95625L380.82812 29.55L379.76562 29.55ZM382.76562 29.55L382.76562 20.95625L383.82812 20.95625L383.82812 29.55L382.76562 29.55ZM385.40625 26.440624Q385.40625 24.70625 386.35938 23.878124Q387.15625 23.190624 388.3125 23.190624Q389.59375 23.190624 390.40625 24.034374Q391.23438 24.8625 391.23438 26.346874Q391.23438 27.55 390.875 28.2375Q390.51562 28.925 389.8125 29.315624Q389.125 29.690624 388.3125 29.690624Q387.01562 29.690624 386.20312 28.8625Q385.40625 28.01875 385.40625 26.440624ZM386.48438 26.440624Q386.48438 27.628124 387.0 28.221874Q387.53125 28.815624 388.3125 28.815624Q389.10938 28.815624 389.625 28.221874Q390.14062 27.628124 390.14062 26.409374Q390.14062 25.253124 389.60938 24.659374Q389.09375 24.065624 388.3125 24.065624Q387.53125 24.065624 387.0 24.659374Q386.48438 25.2375 386.48438 26.440624ZM397.8125 32.08125Q396.9375 30.971874 396.32812 29.503124Q395.73438 28.01875 395.73438 26.440624Q395.73438 25.05 396.17188 23.76875Q396.70312 22.284374 397.8125 20.815624L398.5625 20.815624Q397.85938 22.034374 397.625 22.55Q397.26562 23.3625 397.0625 24.2375Q396.8125 25.33125 396.8125 26.440624Q396.8125 29.26875 398.5625 32.08125L397.8125 32.08125ZM399.79688 29.55L399.79688 23.33125L400.73438 23.33125L400.73438 24.20625Q401.03125 23.7375 401.51562 23.471874Q402.0 23.190624 402.625 23.190624Q403.3125 23.190624 403.75 23.471874Q404.20312 23.753124 404.375 24.26875Q405.125 23.190624 406.29688 23.190624Q407.23438 23.190624 407.71875 23.70625Q408.21875 24.20625 408.21875 25.284374L408.21875 29.55L407.17188 29.55L407.17188 25.628124Q407.17188 25.003124 407.0625 24.721874Q406.96875 24.440624 406.70312 24.26875Q406.4375 24.096874 406.0625 24.096874Q405.40625 24.096874 404.96875 24.534374Q404.54688 24.971874 404.54688 25.940624L404.54688 29.55L403.48438 29.55L403.48438 25.503124Q403.48438 24.8 403.21875 24.45625Q402.96875 24.096874 402.39062 24.096874Q401.9375 24.096874 401.5625 24.33125Q401.1875 24.565624 401.01562 25.01875Q400.84375 25.471874 400.84375 26.315624L400.84375 29.55L399.79688 29.55ZM410.79688 29.55L410.79688 23.33125L411.73438 23.33125L411.73438 24.20625Q412.03125 23.7375 412.51562 23.471874Q413.0 23.190624 413.625 23.190624Q414.3125 23.190624 414.75 23.471874Q415.20312 23.753124 415.375 24.26875Q416.125 23.190624 417.29688 23.190624Q418.23438 23.190624 418.71875 23.70625Q419.21875 24.20625 419.21875 25.284374L419.21875 29.55L418.17188 29.55L418.17188 25.628124Q418.17188 25.003124 418.0625 24.721874Q417.96875 24.440624 417.70312 24.26875Q417.4375 24.096874 417.0625 24.096874Q416.40625 24.096874 415.96875 24.534374Q415.54688 24.971874 415.54688 25.940624L415.54688 29.55L414.48438 29.55L414.48438 25.503124Q414.48438 24.8 414.21875 24.45625Q413.96875 24.096874 413.39062 24.096874Q412.9375 24.096874 412.5625 24.33125Q412.1875 24.565624 412.01562 25.01875Q411.84375 25.471874 411.84375 26.315624L411.84375 29.55L410.79688 29.55ZM422.48438 32.08125L421.73438 32.08125Q423.48438 29.26875 423.48438 26.440624Q423.48438 25.346874 423.23438 24.253124Q423.03125 23.378124 422.67188 22.565624Q422.4375 22.05 421.73438 20.815624L422.48438 20.815624Q423.57812 22.284374 424.10938 23.76875Q424.5625 25.05 424.5625 26.440624Q424.5625 28.01875 423.95312 29.503124Q423.34375 30.971874 422.48438 32.08125ZM432.46875 29.55L431.42188 29.55L431.42188 22.83125Q431.03125 23.190624 430.40625 23.565624Q429.79688 23.925 429.3125 24.096874L429.3125 23.08125Q430.1875 22.659374 430.84375 22.08125Q431.51562 21.4875 431.79688 20.925L432.46875 20.925L432.46875 29.55ZM439.46875 29.55L438.42188 29.55L438.42188 22.83125Q438.03125 23.190624 437.40625 23.565624Q436.79688 23.925 436.3125 24.096874L436.3125 23.08125Q437.1875 22.659374 437.84375 22.08125Q438.51562 21.4875 438.79688 20.925L439.46875 20.925L439.46875 29.55ZM442.0 29.690624L444.48438 20.815624L445.32812 20.815624L442.84375 29.690624L442.0 29.690624ZM445.5 25.315624Q445.5 23.784374 445.8125 22.8625Q446.125 21.925 446.73438 21.425Q447.35938 20.925 448.29688 20.925Q448.98438 20.925 449.5 21.20625Q450.03125 21.4875 450.375 22.01875Q450.71875 22.534374 450.90625 23.284374Q451.09375 24.034374 451.09375 25.315624Q451.09375 26.83125 450.78125 27.753124Q450.48438 28.675 449.85938 29.190624Q449.25 29.690624 448.29688 29.690624Q447.0625 29.690624 446.34375 28.8Q445.5 27.7375 445.5 25.315624ZM446.57812 25.315624Q446.57812 27.425 447.07812 28.128124Q447.57812 28.83125 448.29688 28.83125Q449.03125 28.83125 449.51562 28.128124Q450.01562 27.425 450.01562 25.315624Q450.01562 23.190624 449.51562 22.503124Q449.03125 21.8 448.28125 21.8Q447.5625 21.8 447.125 22.409374Q446.57812 23.190624 446.57812 25.315624ZM452.5 27.284374L453.5625 27.14375Q453.73438 28.034374 454.17188 28.440624Q454.60938 28.83125 455.23438 28.83125Q455.98438 28.83125 456.5 28.315624Q457.01562 27.8 457.01562 27.034374Q457.01562 26.315624 456.53125 25.846874Q456.0625 25.3625 455.32812 25.3625Q455.03125 25.3625 454.57812 25.4875L454.70312 24.55Q454.8125 24.565624 454.875 24.565624Q455.54688 24.565624 456.07812 24.221874Q456.625 23.8625 456.625 23.128124Q456.625 22.55 456.23438 22.175Q455.84375 21.784374 455.21875 21.784374Q454.60938 21.784374 454.1875 22.175Q453.78125 22.565624 453.67188 23.33125L452.60938 23.14375Q452.79688 22.096874 453.48438 21.51875Q454.17188 20.925 455.1875 20.925Q455.89062 20.925 456.48438 21.2375Q457.07812 21.534374 457.39062 22.05Q457.70312 22.565624 457.70312 23.159374Q457.70312 23.70625 457.40625 24.175Q457.10938 24.628124 456.53125 24.89375Q457.28125 25.065624 457.70312 25.628124Q458.125 26.175 458.125 27.01875Q458.125 28.14375 457.29688 28.925Q456.48438 29.70625 455.23438 29.70625Q454.10938 29.70625 453.35938 29.034374Q452.60938 28.346874 452.5 27.284374ZM459.0 29.690624L461.48438 20.815624L462.32812 20.815624L459.84375 29.690624L459.0 29.690624ZM468.04688 28.534374L468.04688 29.55L462.35938 29.55Q462.35938 29.175 462.48438 28.815624Q462.70312 28.2375 463.17188 27.675Q463.65625 27.1125 464.5625 26.378124Q465.96875 25.221874 466.45312 24.55Q466.95312 23.878124 466.95312 23.284374Q466.95312 22.659374 466.5 22.2375Q466.04688 21.8 465.32812 21.8Q464.5625 21.8 464.10938 22.253124Q463.65625 22.70625 463.64062 23.51875L462.5625 23.409374Q462.67188 22.190624 463.39062 21.565624Q464.125 20.925 465.35938 20.925Q466.59375 20.925 467.3125 21.6125Q468.03125 22.3 468.03125 23.315624Q468.03125 23.83125 467.8125 24.33125Q467.60938 24.815624 467.10938 25.378124Q466.625 25.925 465.5 26.878124Q464.54688 27.675 464.26562 27.971874Q464.0 28.253124 463.82812 28.534374L468.04688 28.534374ZM469.5 25.315624Q469.5 23.784374 469.8125 22.8625Q470.125 21.925 470.73438 21.425Q471.35938 20.925 472.29688 20.925Q472.98438 20.925 473.5 21.20625Q474.03125 21.4875 474.375 22.01875Q474.71875 22.534374 474.90625 23.284374Q475.09375 24.034374 475.09375 25.315624Q475.09375 26.83125 474.78125 27.753124Q474.48438 28.675 473.85938 29.190624Q473.25 29.690624 472.29688 29.690624Q471.0625 29.690624 470.34375 28.8Q469.5 27.7375 469.5 25.315624ZM470.57812 25.315624Q470.57812 27.425 471.07812 28.128124Q471.57812 28.83125 472.29688 28.83125Q473.03125 28.83125 473.51562 28.128124Q474.01562 27.425 474.01562 25.315624Q474.01562 23.190624 473.51562 22.503124Q473.03125 21.8 472.28125 21.8Q471.5625 21.8 471.125 22.409374Q470.57812 23.190624 470.57812 25.315624ZM482.04688 28.534374L482.04688 29.55L476.35938 29.55Q476.35938 29.175 476.48438 28.815624Q476.70312 28.2375 477.17188 27.675Q477.65625 27.1125 478.5625 26.378124Q479.96875 25.221874 480.45312 24.55Q480.95312 23.878124 480.95312 23.284374Q480.95312 22.659374 480.5 22.2375Q480.04688 21.8 479.32812 21.8Q478.5625 21.8 478.10938 22.253124Q477.65625 22.70625 477.64062 23.51875L476.5625 23.409374Q476.67188 22.190624 477.39062 21.565624Q478.125 20.925 479.35938 20.925Q480.59375 20.925 481.3125 21.6125Q482.03125 22.3 482.03125 23.315624Q482.03125 23.83125 481.8125 24.33125Q481.60938 24.815624 481.10938 25.378124Q480.625 25.925 479.5 26.878124Q478.54688 27.675 478.26562 27.971874Q478.0 28.253124 477.82812 28.534374L482.04688 28.534374ZM483.5 27.3L484.60938 27.20625Q484.73438 28.01875 485.17188 28.425Q485.625 28.83125 486.26562 28.83125Q487.01562 28.83125 487.54688 28.253124Q488.07812 27.675 488.07812 26.7375Q488.07812 25.83125 487.5625 25.315624Q487.0625 24.784374 486.23438 24.784374Q485.73438 24.784374 485.3125 25.01875Q484.90625 25.253124 484.67188 25.6125L483.6875 25.4875L484.51562 21.08125L488.79688 21.08125L488.79688 22.08125L485.35938 22.08125L484.90625 24.39375Q485.67188 23.846874 486.51562 23.846874Q487.64062 23.846874 488.40625 24.628124Q489.1875 25.409374 489.1875 26.64375Q489.1875 27.8 488.51562 28.659374Q487.6875 29.690624 486.26562 29.690624Q485.09375 29.690624 484.34375 29.034374Q483.60938 28.378124 483.5 27.3Z" fill-rule="nonzero"/></svg>