<svg version="1.1" viewBox="0.0 0.0 545.0 371.0" fill="none" stroke="none" stroke-linecap="square" stroke-miterlimit="10" width="545" height="371" xmlns:xlink="http://www.w3.org/1999/xlink" xmlns="http://www.w3.org/2000/svg"><path fill="#ffffff" d="M0 0L545.0 0L545.0 371.0L0 371.0L0 0Z" fill-rule="nonzero"/><path stroke="#cccccc" stroke-width="1.0" stroke-linecap="butt" d="M88.5 51.5L88.5 332.5" fill-rule="nonzero"/><path stroke="#cccccc" stroke-width="1.0" stroke-linecap="butt" d="M160.5 51.5L160.5 332.5" fill-rule="nonzero"/><path stroke="#cccccc" stroke-width="1.0" stroke-linecap="butt" d="M232.5 51.5L232.5 332.5" fill-rule="nonzero"/><path stroke="#cccccc" stroke-width="1.0" stroke-linecap="butt" d="M303.5 51.5L303.5 332.5" fill-rule="nonzero"/><path stroke="#cccccc" stroke-width="1.0" stroke-linecap="butt" d="M375.5 51.5L375.5 332.5" fill-rule="nonzero"/><path stroke="#cccccc" stroke-width="1.0" stroke-linecap="butt" d="M447.5 51.5L447.5 332.5" fill-rule="nonzero"/><path stroke="#cccccc" stroke-width="1.0" stroke-linecap="butt" d="M519.5 51.5L519.5 332.5" fill-rule="nonzero"/><path stroke="#333333" stroke-width="1.0" stroke-linecap="butt" d="M45.5 332.5L526.5 332.5" fill-rule="nonzero"/><path stroke="#cccccc" stroke-width="1.0" stroke-linecap="butt" d="M45.5 238.5L526.5 238.5" fill-rule="nonzero"/><path stroke="#cccccc" stroke-width="1.0" stroke-linecap="butt" d="M45.5 145.5L526.5 145.5" fill-rule="nonzero"/><path stroke="#cccccc" stroke-width="1.0" stroke-linecap="butt" d="M45.5 51.5L526.5 51.5" fill-rule="nonzero"/><clipPath id="id_0"><path d="M45.55 51.916668L526.45 51.916668L526.45 332.45L45.55 332.45L45.55 51.916668Z" clip-rule="nonzero"/></clipPath><path fill="#4f81bd" clip-path="url(#id_0)" d="M56.85198 320.1533C56.85198 322.63858 54.83726 324.6533 52.35198 324.6533C49.8667 324.6533 47.85198 322.63858 47.85198 320.1533C47.85198 317.668 49.8667 315.6533 52.35198 315.6533C54.83726 315.6533 56.85198 317.668 56.85198 320.1533Z" fill-rule="nonzero"/><path fill="#4f81bd" clip-path="url(#id_0)" d="M92.79783 320.71436C92.79783 323.19965 90.78311 325.21436 88.29783 325.21436C85.812546 325.21436 83.79783 323.19965 83.79783 320.71436C83.79783 318.22906 85.812546 316.21436 88.29783 316.21436C90.78311 316.21436 92.79783 318.22906 92.79783 320.71436Z" fill-rule="nonzero"/><path fill="#4f81bd" clip-path="url(#id_0)" d="M128.74368 320.9949C128.74368 323.48016 126.72896 325.4949 124.243675 325.4949C121.7584 325.4949 119.743675 323.48016 119.743675 320.9949C119.743675 318.5096 121.7584 316.4949 124.243675 316.4949C126.72896 316.4949 128.74368 318.5096 128.74368 320.9949Z" fill-rule="nonzero"/><path fill="#4f81bd" clip-path="url(#id_0)" d="M164.68953 318.93765C164.68953 321.4229 162.6748 323.43765 160.18953 323.43765C157.70424 323.43765 155.68953 321.4229 155.68953 318.93765C155.68953 316.45236 157.70424 314.43765 160.18953 314.43765C162.6748 314.43765 164.68953 316.45236 164.68953 318.93765Z" fill-rule="nonzero"/><path fill="#4f81bd" clip-path="url(#id_0)" d="M200.63538 319.4052C200.63538 321.89047 198.62065 323.9052 196.13538 323.9052C193.6501 323.9052 191.63538 321.89047 191.63538 319.4052C191.63538 316.91992 193.6501 314.9052 196.13538 314.9052C198.62065 314.9052 200.63538 316.91992 200.63538 319.4052Z" fill-rule="nonzero"/><path fill="#4f81bd" clip-path="url(#id_0)" d="M236.58122 320.7611C236.58122 323.2464 234.56651 325.2611 232.08122 325.2611C229.59595 325.2611 227.58122 323.2464 227.58122 320.7611C227.58122 318.27582 229.59595 316.2611 232.08122 316.2611C234.56651 316.2611 236.58122 318.27582 236.58122 320.7611Z" fill-rule="nonzero"/><path fill="#4f81bd" clip-path="url(#id_0)" d="M272.52707 323.1924C272.52707 325.67767 270.51236 327.6924 268.02707 327.6924C265.5418 327.6924 263.52707 325.67767 263.52707 323.1924C263.52707 320.70712 265.5418 318.6924 268.02707 318.6924C270.51236 318.6924 272.52707 320.70712 272.52707 323.1924Z" fill-rule="nonzero"/><path fill="#4f81bd" clip-path="url(#id_0)" d="M308.47293 322.49106C308.47293 324.97635 306.4582 326.99106 303.97293 326.99106C301.48764 326.99106 299.47293 324.97635 299.47293 322.49106C299.47293 320.0058 301.48764 317.99106 303.97293 317.99106C306.4582 317.99106 308.47293 320.0058 308.47293 322.49106Z" fill-rule="nonzero"/><path fill="#4f81bd" clip-path="url(#id_0)" d="M344.41876 320.2468C344.41876 322.7321 342.40405 324.7468 339.91876 324.7468C337.4335 324.7468 335.41876 322.7321 335.41876 320.2468C335.41876 317.7615 337.4335 315.7468 339.91876 315.7468C342.40405 315.7468 344.41876 317.7615 344.41876 320.2468Z" fill-rule="nonzero"/><path fill="#4f81bd" clip-path="url(#id_0)" d="M380.36462 323.33267C380.36462 325.81796 378.3499 327.83267 375.86462 327.83267C373.37933 327.83267 371.36462 325.81796 371.36462 323.33267C371.36462 320.84738 373.37933 318.83267 375.86462 318.83267C378.3499 318.83267 380.36462 320.84738 380.36462 323.33267Z" fill-rule="nonzero"/><path fill="#4f81bd" clip-path="url(#id_0)" d="M416.3105 321.41568C416.3105 323.90097 414.29575 325.91568 411.8105 325.91568C409.3252 325.91568 407.3105 323.90097 407.3105 321.41568C407.3105 318.93042 409.3252 316.91568 411.8105 316.91568C414.29575 316.91568 416.3105 318.93042 416.3105 321.41568Z" fill-rule="nonzero"/><path fill="#4f81bd" clip-path="url(#id_0)" d="M452.25632 322.39755C452.25632 324.88284 450.2416 326.89755 447.75632 326.89755C445.27103 326.89755 443.25632 324.88284 443.25632 322.39755C443.25632 319.91226 445.27103 317.89755 447.75632 317.89755C450.2416 317.89755 452.25632 319.91226 452.25632 322.39755Z" fill-rule="nonzero"/><path fill="#4f81bd" clip-path="url(#id_0)" d="M488.20218 323.14563C488.20218 325.63092 486.18744 327.64563 483.70218 327.64563C481.2169 327.64563 479.20218 325.63092 479.20218 323.14563C479.20218 320.66037 481.2169 318.64563 483.70218 318.64563C486.18744 318.64563 488.20218 320.66037 488.20218 323.14563Z" fill-rule="nonzero"/><path fill="#4f81bd" clip-path="url(#id_0)" d="M524.148 322.63135C524.148 325.1166 522.1333 327.13135 519.648 327.13135C517.1627 327.13135 515.148 325.1166 515.148 322.63135C515.148 320.14606 517.1627 318.13135 519.648 318.13135C522.1333 318.13135 524.148 320.14606 524.148 322.63135Z" fill-rule="nonzero"/><path fill="#c0504d" clip-path="url(#id_0)" d="M56.85198 269.7508C56.85198 272.23608 54.83726 274.2508 52.35198 274.2508C49.8667 274.2508 47.85198 272.23608 47.85198 269.7508C47.85198 267.26553 49.8667 265.2508 52.35198 265.2508C54.83726 265.2508 56.85198 267.26553 56.85198 269.7508Z" fill-rule="nonzero"/><path fill="#c0504d" clip-path="url(#id_0)" d="M92.79783 292.1467C92.79783 294.632 90.78311 296.6467 88.29783 296.6467C85.812546 296.6467 83.79783 294.632 83.79783 292.1467C83.79783 289.66144 85.812546 287.6467 88.29783 287.6467C90.78311 287.6467 92.79783 289.66144 92.79783 292.1467Z" fill-rule="nonzero"/><path fill="#c0504d" clip-path="url(#id_0)" d="M128.74368 218.13266C128.74368 220.61795 126.72896 222.63266 124.243675 222.63266C121.7584 222.63266 119.743675 220.61795 119.743675 218.13266C119.743675 215.64738 121.7584 213.63266 124.243675 213.63266C126.72896 213.63266 128.74368 215.64738 128.74368 218.13266Z" fill-rule="nonzero"/><path fill="#c0504d" clip-path="url(#id_0)" d="M164.68953 128.12822C164.68953 130.61351 162.6748 132.62822 160.18953 132.62822C157.70424 132.62822 155.68953 130.61351 155.68953 128.12822C155.68953 125.642944 157.70424 123.62822 160.18953 123.62822C162.6748 123.62822 164.68953 125.642944 164.68953 128.12822Z" fill-rule="nonzero"/><path fill="#c0504d" clip-path="url(#id_0)" d="M200.63538 212.98956C200.63538 215.47484 198.62065 217.48956 196.13538 217.48956C193.6501 217.48956 191.63538 215.47484 191.63538 212.98956C191.63538 210.50427 193.6501 208.48956 196.13538 208.48956C198.62065 208.48956 200.63538 210.50427 200.63538 212.98956Z" fill-rule="nonzero"/><path fill="#c0504d" clip-path="url(#id_0)" d="M236.58122 233.32822C236.58122 235.8135 234.56651 237.82822 232.08122 237.82822C229.59595 237.82822 227.58122 235.8135 227.58122 233.32822C227.58122 230.84294 229.59595 228.82822 232.08122 228.82822C234.56651 228.82822 236.58122 230.84294 236.58122 233.32822Z" fill-rule="nonzero"/><path fill="#c0504d" clip-path="url(#id_0)" d="M272.52707 245.95222C272.52707 248.4375 270.51236 250.45222 268.02707 250.45222C265.5418 250.45222 263.52707 248.4375 263.52707 245.95222C263.52707 243.46693 265.5418 241.45222 268.02707 241.45222C270.51236 241.45222 272.52707 243.46693 272.52707 245.95222Z" fill-rule="nonzero"/><path fill="#c0504d" clip-path="url(#id_0)" d="M308.47293 63.839333C308.47293 66.324615 306.4582 68.33933 303.97293 68.33933C301.48764 68.33933 299.47293 66.324615 299.47293 63.839333C299.47293 61.354053 301.48764 59.339333 303.97293 59.339333C306.4582 59.339333 308.47293 61.354053 308.47293 63.839333Z" fill-rule="nonzero"/><path fill="#c0504d" clip-path="url(#id_0)" d="M344.41876 207.14511C344.41876 209.63039 342.40405 211.64511 339.91876 211.64511C337.4335 211.64511 335.41876 209.63039 335.41876 207.14511C335.41876 204.65984 337.4335 202.64511 339.91876 202.64511C342.40405 202.64511 344.41876 204.65984 344.41876 207.14511Z" fill-rule="nonzero"/><path fill="#c0504d" clip-path="url(#id_0)" d="M380.36462 242.67934C380.36462 245.16461 378.3499 247.17934 375.86462 247.17934C373.37933 247.17934 371.36462 245.16461 371.36462 242.67934C371.36462 240.19405 373.37933 238.17934 375.86462 238.17934C378.3499 238.17934 380.36462 240.19405 380.36462 242.67934Z" fill-rule="nonzero"/><path fill="#c0504d" clip-path="url(#id_0)" d="M416.3105 145.194C416.3105 147.67928 414.29575 149.694 411.8105 149.694C409.3252 149.694 407.3105 147.67928 407.3105 145.194C407.3105 142.70872 409.3252 140.694 411.8105 140.694C414.29575 140.694 416.3105 142.70872 416.3105 145.194Z" fill-rule="nonzero"/><path fill="#c0504d" clip-path="url(#id_0)" d="M452.25632 168.338C452.25632 170.82329 450.2416 172.838 447.75632 172.838C445.27103 172.838 443.25632 170.82329 443.25632 168.338C443.25632 165.85272 445.27103 163.838 447.75632 163.838C450.2416 163.838 452.25632 165.85272 452.25632 168.338Z" fill-rule="nonzero"/><path fill="#c0504d" clip-path="url(#id_0)" d="M488.20218 211.11934C488.20218 213.60461 486.18744 215.61934 483.70218 215.61934C481.2169 215.61934 479.20218 213.60461 479.20218 211.11934C479.20218 208.63405 481.2169 206.61934 483.70218 206.61934C486.18744 206.61934 488.20218 208.63405 488.20218 211.11934Z" fill-rule="nonzero"/><path fill="#c0504d" clip-path="url(#id_0)" d="M524.148 242.44556C524.148 244.93083 522.1333 246.94556 519.648 246.94556C517.1627 246.94556 515.148 244.93083 515.148 242.44556C515.148 239.96028 517.1627 237.94556 519.648 237.94556C522.1333 237.94556 524.148 239.96028 524.148 242.44556Z" fill-rule="nonzero"/><path fill="#000000" d="M33.05 332.21564Q33.05 330.6844 33.3625 329.7625Q33.675 328.825 34.284374 328.325Q34.909374 327.825 35.846874 327.825Q36.534374 327.825 37.05 328.10626Q37.58125 328.3875 37.925 328.91876Q38.26875 329.4344 38.45625 330.1844Q38.64375 330.9344 38.64375 332.21564Q38.64375 333.73126 38.33125 334.65314Q38.034374 335.575 37.409374 336.09064Q36.8 336.59064 35.846874 336.59064Q34.6125 336.59064 33.89375 335.7Q33.05 334.6375 33.05 332.21564ZM34.128124 332.21564Q34.128124 334.325 34.628124 335.02814Q35.128124 335.73126 35.846874 335.73126Q36.58125 335.73126 37.065624 335.02814Q37.565624 334.325 37.565624 332.21564Q37.565624 330.09064 37.065624 329.40314Q36.58125 328.7 35.83125 328.7Q35.1125 328.7 34.675 329.3094Q34.128124 330.09064 34.128124 332.21564Z" fill-rule="nonzero"/><path fill="#000000" d="M31.596874 241.92326L31.596874 242.93889L25.909374 242.93889Q25.909374 242.56389 26.034374 242.20451Q26.253124 241.62639 26.721874 241.06389Q27.20625 240.50139 28.1125 239.76701Q29.51875 238.61076 30.003124 237.93889Q30.503124 237.26701 30.503124 236.67326Q30.503124 236.04826 30.05 235.62639Q29.596874 235.18889 28.878124 235.18889Q28.1125 235.18889 27.659374 235.64201Q27.20625 236.09514 27.190624 236.90764L26.1125 236.79826Q26.221874 235.57951 26.940624 234.95451Q27.675 234.31389 28.909374 234.31389Q30.14375 234.31389 30.8625 235.00139Q31.58125 235.68889 31.58125 236.70451Q31.58125 237.22014 31.3625 237.72014Q31.159374 238.20451 30.659374 238.76701Q30.175 239.31389 29.05 240.26701Q28.096874 241.06389 27.815624 241.36076Q27.55 241.64201 27.378124 241.92326L31.596874 241.92326ZM33.05 238.70451Q33.05 237.17326 33.3625 236.25139Q33.675 235.31389 34.284374 234.81389Q34.909374 234.31389 35.846874 234.31389Q36.534374 234.31389 37.05 234.59514Q37.58125 234.87639 37.925 235.40764Q38.26875 235.92326 38.45625 236.67326Q38.64375 237.42326 38.64375 238.70451Q38.64375 240.22014 38.33125 241.14201Q38.034374 242.06389 37.409374 242.57951Q36.8 243.07951 35.846874 243.07951Q34.6125 243.07951 33.89375 242.18889Q33.05 241.12639 33.05 238.70451ZM34.128124 238.70451Q34.128124 240.81389 34.628124 241.51701Q35.128124 242.22014 35.846874 242.22014Q36.58125 242.22014 37.065624 241.51701Q37.565624 240.81389 37.565624 238.70451Q37.565624 236.57951 37.065624 235.89201Q36.58125 235.18889 35.83125 235.18889Q35.1125 235.18889 34.675 235.79826Q34.128124 236.57951 34.128124 238.70451Z" fill-rule="nonzero"/><path fill="#000000" d="M29.425 149.42778L29.425 147.36528L25.70625 147.36528L25.70625 146.39653L29.628124 140.83403L30.4875 140.83403L30.4875 146.39653L31.64375 146.39653L31.64375 147.36528L30.4875 147.36528L30.4875 149.42778L29.425 149.42778ZM29.425 146.39653L29.425 142.53716L26.7375 146.39653L29.425 146.39653ZM33.05 145.1934Q33.05 143.66216 33.3625 142.74028Q33.675 141.80278 34.284374 141.30278Q34.909374 140.80278 35.846874 140.80278Q36.534374 140.80278 37.05 141.08403Q37.58125 141.36528 37.925 141.89653Q38.26875 142.41216 38.45625 143.16216Q38.64375 143.91216 38.64375 145.1934Q38.64375 146.70903 38.33125 147.6309Q38.034374 148.55278 37.409374 149.0684Q36.8 149.5684 35.846874 149.5684Q34.6125 149.5684 33.89375 148.67778Q33.05 147.61528 33.05 145.1934ZM34.128124 145.1934Q34.128124 147.30278 34.628124 148.0059Q35.128124 148.70903 35.846874 148.70903Q36.58125 148.70903 37.065624 148.0059Q37.565624 147.30278 37.565624 145.1934Q37.565624 143.0684 37.065624 142.3809Q36.58125 141.67778 35.83125 141.67778Q35.1125 141.67778 34.675 142.28716Q34.128124 143.0684 34.128124 145.1934Z" fill-rule="nonzero"/><path fill="#000000" d="M31.51875 49.432293L30.471874 49.510418Q30.33125 48.885418 30.08125 48.604168Q29.64375 48.151043 29.01875 48.151043Q28.51875 48.151043 28.128124 48.432293Q27.64375 48.807293 27.346874 49.510418Q27.065624 50.197918 27.05 51.479168Q27.425 50.901043 27.971874 50.619793Q28.534374 50.338543 29.14375 50.338543Q30.190624 50.338543 30.925 51.119793Q31.675 51.901043 31.675 53.119793Q31.675 53.932293 31.315624 54.635418Q30.971874 55.322918 30.3625 55.697918Q29.753124 56.057293 28.9875 56.057293Q27.659374 56.057293 26.83125 55.088543Q26.003124 54.119793 26.003124 51.901043Q26.003124 49.401043 26.925 48.276043Q27.721874 47.291668 29.08125 47.291668Q30.096874 47.291668 30.7375 47.869793Q31.39375 48.432293 31.51875 49.432293ZM27.221874 53.135418Q27.221874 53.682293 27.440624 54.182293Q27.675 54.666668 28.08125 54.932293Q28.503124 55.197918 28.971874 55.197918Q29.628124 55.197918 30.1125 54.666668Q30.596874 54.119793 30.596874 53.197918Q30.596874 52.307293 30.1125 51.791668Q29.64375 51.276043 28.925 51.276043Q28.20625 51.276043 27.70625 51.791668Q27.221874 52.307293 27.221874 53.135418ZM33.05 51.682293Q33.05 50.151043 33.3625 49.229168Q33.675 48.291668 34.284374 47.791668Q34.909374 47.291668 35.846874 47.291668Q36.534374 47.291668 37.05 47.572918Q37.58125 47.854168 37.925 48.385418Q38.26875 48.901043 38.45625 49.651043Q38.64375 50.401043 38.64375 51.682293Q38.64375 53.197918 38.33125 54.119793Q38.034374 55.041668 37.409374 55.557293Q36.8 56.057293 35.846874 56.057293Q34.6125 56.057293 33.89375 55.166668Q33.05 54.104168 33.05 51.682293ZM34.128124 51.682293Q34.128124 53.791668 34.628124 54.494793Q35.128124 55.197918 35.846874 55.197918Q36.58125 55.197918 37.065624 54.494793Q37.565624 53.791668 37.565624 51.682293Q37.565624 49.557293 37.065624 48.869793Q36.58125 48.166668 35.83125 48.166668Q35.1125 48.166668 34.675 48.776043Q34.128124 49.557293 34.128124 51.682293Z" fill-rule="nonzero"/><path fill="#000000" d="M90.8447 348.4344L90.8447 349.45L85.1572 349.45Q85.1572 349.075 85.2822 348.71564Q85.50095 348.1375 85.9697 347.575Q86.45408 347.0125 87.36033 346.27814Q88.76658 345.1219 89.25095 344.45Q89.75095 343.77814 89.75095 343.1844Q89.75095 342.5594 89.29783 342.1375Q88.8447 341.7 88.12595 341.7Q87.36033 341.7 86.9072 342.15314Q86.45408 342.60626 86.43845 343.41876L85.36033 343.3094Q85.4697 342.09064 86.18845 341.46564Q86.92283 340.825 88.1572 340.825Q89.39158 340.825 90.11033 341.5125Q90.82908 342.2 90.82908 343.21564Q90.82908 343.73126 90.61033 344.23126Q90.4072 344.71564 89.9072 345.27814Q89.42283 345.825 88.29783 346.77814Q87.3447 347.575 87.06345 347.8719Q86.79783 348.15314 86.62595 348.4344L90.8447 348.4344Z" fill-rule="nonzero"/><path fill="#000000" d="M160.56453 349.45L160.56453 347.3875L156.84578 347.3875L156.84578 346.41876L160.76765 340.85626L161.62703 340.85626L161.62703 346.41876L162.78328 346.41876L162.78328 347.3875L161.62703 347.3875L161.62703 349.45L160.56453 349.45ZM160.56453 346.41876L160.56453 342.5594L157.87703 346.41876L160.56453 346.41876Z" fill-rule="nonzero"/><path fill="#000000" d="M234.54997 342.96564L233.5031 343.04376Q233.36247 342.41876 233.11247 342.1375Q232.67497 341.6844 232.04997 341.6844Q231.54997 341.6844 231.15935 341.96564Q230.67497 342.34064 230.3781 343.04376Q230.09685 343.73126 230.08122 345.0125Q230.45622 344.4344 231.0031 344.15314Q231.5656 343.8719 232.17497 343.8719Q233.22185 343.8719 233.95622 344.65314Q234.70622 345.4344 234.70622 346.65314Q234.70622 347.46564 234.34685 348.16876Q234.0031 348.85626 233.39372 349.23126Q232.78435 349.59064 232.01872 349.59064Q230.6906 349.59064 229.86247 348.6219Q229.03435 347.65314 229.03435 345.4344Q229.03435 342.9344 229.95622 341.8094Q230.7531 340.825 232.11247 340.825Q233.1281 340.825 233.76872 341.40314Q234.42497 341.96564 234.54997 342.96564ZM230.2531 346.66876Q230.2531 347.21564 230.47185 347.71564Q230.70622 348.2 231.11247 348.46564Q231.53435 348.73126 232.0031 348.73126Q232.65935 348.73126 233.14372 348.2Q233.6281 347.65314 233.6281 346.73126Q233.6281 345.84064 233.14372 345.325Q232.67497 344.8094 231.95622 344.8094Q231.23747 344.8094 230.73747 345.325Q230.2531 345.84064 230.2531 346.66876Z" fill-rule="nonzero"/><path fill="#000000" d="M302.59793 344.79376Q301.94168 344.54376 301.61356 344.10626Q301.30106 343.65314 301.30106 343.04376Q301.30106 342.10626 301.97293 341.46564Q302.66043 340.825 303.7698 340.825Q304.8948 340.825 305.5823 341.48126Q306.2698 342.1375 306.2698 343.075Q306.2698 343.66876 305.9573 344.10626Q305.6448 344.54376 305.00418 344.79376Q305.80106 345.04376 306.2073 345.6219Q306.61356 346.2 306.61356 346.9969Q306.61356 348.09064 305.8323 348.84064Q305.06668 349.59064 303.78543 349.59064Q302.5198 349.59064 301.73856 348.84064Q300.9573 348.09064 300.9573 346.96564Q300.9573 346.1219 301.37918 345.5594Q301.81668 344.9969 302.59793 344.79376ZM302.37918 342.9969Q302.37918 343.60626 302.7698 343.9969Q303.17606 344.3875 303.80106 344.3875Q304.41043 344.3875 304.80106 344.0125Q305.19168 343.6219 305.19168 343.0594Q305.19168 342.48126 304.78543 342.09064Q304.37918 341.6844 303.78543 341.6844Q303.17606 341.6844 302.7698 342.075Q302.37918 342.46564 302.37918 342.9969ZM302.05106 346.96564Q302.05106 347.41876 302.25418 347.84064Q302.47293 348.2625 302.8948 348.4969Q303.31668 348.73126 303.80106 348.73126Q304.55106 348.73126 305.03543 348.2469Q305.53543 347.7625 305.53543 347.0125Q305.53543 346.2469 305.03543 345.7469Q304.53543 345.2469 303.7698 345.2469Q303.0198 345.2469 302.53543 345.7469Q302.05106 346.23126 302.05106 346.96564Z" fill-rule="nonzero"/><path fill="#000000" d="M373.33337 349.45L372.2865 349.45L372.2865 342.73126Q371.89587 343.09064 371.27087 343.46564Q370.6615 343.825 370.17712 343.9969L370.17712 342.98126Q371.05212 342.5594 371.70837 341.98126Q372.38025 341.3875 372.6615 340.825L373.33337 340.825L373.33337 349.45ZM376.36462 345.21564Q376.36462 343.6844 376.67712 342.7625Q376.98962 341.825 377.599 341.325Q378.224 340.825 379.1615 340.825Q379.849 340.825 380.36462 341.10626Q380.89587 341.3875 381.23962 341.91876Q381.58337 342.4344 381.77087 343.1844Q381.95837 343.9344 381.95837 345.21564Q381.95837 346.73126 381.64587 347.65314Q381.349 348.575 380.724 349.09064Q380.11462 349.59064 379.1615 349.59064Q377.92712 349.59064 377.20837 348.7Q376.36462 347.6375 376.36462 345.21564ZM377.44275 345.21564Q377.44275 347.325 377.94275 348.02814Q378.44275 348.73126 379.1615 348.73126Q379.89587 348.73126 380.38025 348.02814Q380.88025 347.325 380.88025 345.21564Q380.88025 343.09064 380.38025 342.40314Q379.89587 341.7 379.14587 341.7Q378.42712 341.7 377.98962 342.3094Q377.44275 343.09064 377.44275 345.21564Z" fill-rule="nonzero"/><path fill="#000000" d="M445.22507 349.45L444.1782 349.45L444.1782 342.73126Q443.78757 343.09064 443.16257 343.46564Q442.5532 343.825 442.06882 343.9969L442.06882 342.98126Q442.94382 342.5594 443.60007 341.98126Q444.27194 341.3875 444.5532 340.825L445.22507 340.825L445.22507 349.45ZM453.8032 348.4344L453.8032 349.45L448.1157 349.45Q448.1157 349.075 448.2407 348.71564Q448.45944 348.1375 448.9282 347.575Q449.41257 347.0125 450.31882 346.27814Q451.72507 345.1219 452.20944 344.45Q452.70944 343.77814 452.70944 343.1844Q452.70944 342.5594 452.25632 342.1375Q451.8032 341.7 451.08444 341.7Q450.31882 341.7 449.8657 342.15314Q449.41257 342.60626 449.39694 343.41876L448.31882 343.3094Q448.4282 342.09064 449.14694 341.46564Q449.88132 340.825 451.1157 340.825Q452.35007 340.825 453.06882 341.5125Q453.78757 342.2 453.78757 343.21564Q453.78757 343.73126 453.56882 344.23126Q453.3657 344.71564 452.8657 345.27814Q452.38132 345.825 451.25632 346.77814Q450.3032 347.575 450.02194 347.8719Q449.75632 348.15314 449.58444 348.4344L453.8032 348.4344Z" fill-rule="nonzero"/><path fill="#000000" d="M517.11676 349.45L516.0699 349.45L516.0699 342.73126Q515.67926 343.09064 515.05426 343.46564Q514.4449 343.825 513.9605 343.9969L513.9605 342.98126Q514.8355 342.5594 515.49176 341.98126Q516.16364 341.3875 516.4449 340.825L517.11676 340.825L517.11676 349.45ZM523.523 349.45L523.523 347.3875L519.80426 347.3875L519.80426 346.41876L523.72614 340.85626L524.5855 340.85626L524.5855 346.41876L525.74176 346.41876L525.74176 347.3875L524.5855 347.3875L524.5855 349.45L523.523 349.45ZM523.523 346.41876L523.523 342.5594L520.8355 346.41876L523.523 346.41876Z" fill-rule="nonzero"/><path fill="#4f81bd" d="M143.5 25.55C143.5 28.863708 140.8137 31.55 137.5 31.55C134.1863 31.55 131.5 28.863708 131.5 25.55C131.5 22.236292 134.1863 19.55 137.5 19.55C140.8137 19.55 143.5 22.236292 143.5 25.55Z" fill-rule="nonzero"/><path fill="#1a1a1a" d="M152.39062 29.55L152.39062 20.95625L154.10938 20.95625L156.14062 27.034374Q156.42188 27.89375 156.54688 28.315624Q156.6875 27.846874 157.0 26.940624L159.0625 20.95625L160.59375 20.95625L160.59375 29.55L159.5 29.55L159.5 22.3625L157.0 29.55L155.96875 29.55L153.48438 22.2375L153.48438 29.55L152.39062 29.55ZM165.35938 28.784374Q164.76562 29.284374 164.21875 29.4875Q163.6875 29.690624 163.0625 29.690624Q162.03125 29.690624 161.48438 29.190624Q160.9375 28.690624 160.9375 27.909374Q160.9375 27.45625 161.14062 27.08125Q161.34375 26.690624 161.6875 26.471874Q162.03125 26.2375 162.45312 26.128124Q162.75 26.034374 163.39062 25.95625Q164.65625 25.815624 165.26562 25.596874Q165.26562 25.378124 165.26562 25.33125Q165.26562 24.675 164.96875 24.409374Q164.5625 24.065624 163.76562 24.065624Q163.03125 24.065624 162.67188 24.33125Q162.3125 24.58125 162.14062 25.2375L161.10938 25.096874Q161.25 24.440624 161.57812 24.034374Q161.90625 23.628124 162.51562 23.409374Q163.125 23.190624 163.92188 23.190624Q164.71875 23.190624 165.21875 23.378124Q165.71875 23.565624 165.95312 23.846874Q166.1875 24.128124 166.28125 24.565624Q166.32812 24.83125 166.32812 25.534374L166.32812 26.940624Q166.32812 28.409374 166.39062 28.8Q166.46875 29.190624 166.67188 29.55L165.5625 29.55Q165.40625 29.221874 165.35938 28.784374ZM165.26562 26.425Q164.6875 26.659374 163.54688 26.83125Q162.89062 26.925 162.625 27.05Q162.35938 27.159374 162.20312 27.378124Q162.0625 27.596874 162.0625 27.878124Q162.0625 28.3 162.375 28.58125Q162.70312 28.8625 163.3125 28.8625Q163.92188 28.8625 164.39062 28.596874Q164.875 28.33125 165.09375 27.8625Q165.26562 27.503124 165.26562 26.815624L165.26562 26.425ZM167.875 27.690624L168.90625 27.534374Q169.0 28.159374 169.39062 28.4875Q169.79688 28.815624 170.53125 28.815624Q171.25 28.815624 171.59375 28.534374Q171.95312 28.2375 171.95312 27.83125Q171.95312 27.471874 171.64062 27.26875Q171.42188 27.128124 170.5625 26.909374Q169.40625 26.6125 168.95312 26.409374Q168.51562 26.190624 168.28125 25.815624Q168.04688 25.440624 168.04688 24.971874Q168.04688 24.565624 168.23438 24.20625Q168.42188 23.846874 168.75 23.6125Q169.0 23.440624 169.42188 23.315624Q169.84375 23.190624 170.34375 23.190624Q171.0625 23.190624 171.60938 23.409374Q172.17188 23.6125 172.4375 23.971874Q172.70312 24.33125 172.79688 24.925L171.76562 25.065624Q171.70312 24.596874 171.35938 24.33125Q171.03125 24.05 170.40625 24.05Q169.6875 24.05 169.375 24.3Q169.0625 24.534374 169.0625 24.8625Q169.0625 25.065624 169.1875 25.221874Q169.32812 25.39375 169.59375 25.503124Q169.75 25.565624 170.53125 25.76875Q171.65625 26.08125 172.09375 26.26875Q172.53125 26.45625 172.78125 26.815624Q173.03125 27.175 173.03125 27.721874Q173.03125 28.253124 172.71875 28.721874Q172.42188 29.175 171.84375 29.440624Q171.26562 29.690624 170.53125 29.690624Q169.3125 29.690624 168.67188 29.190624Q168.04688 28.675 167.875 27.690624ZM179.35938 28.784374Q178.76562 29.284374 178.21875 29.4875Q177.6875 29.690624 177.0625 29.690624Q176.03125 29.690624 175.48438 29.190624Q174.9375 28.690624 174.9375 27.909374Q174.9375 27.45625 175.14062 27.08125Q175.34375 26.690624 175.6875 26.471874Q176.03125 26.2375 176.45312 26.128124Q176.75 26.034374 177.39062 25.95625Q178.65625 25.815624 179.26562 25.596874Q179.26562 25.378124 179.26562 25.33125Q179.26562 24.675 178.96875 24.409374Q178.5625 24.065624 177.76562 24.065624Q177.03125 24.065624 176.67188 24.33125Q176.3125 24.58125 176.14062 25.2375L175.10938 25.096874Q175.25 24.440624 175.57812 24.034374Q175.90625 23.628124 176.51562 23.409374Q177.125 23.190624 177.92188 23.190624Q178.71875 23.190624 179.21875 23.378124Q179.71875 23.565624 179.95312 23.846874Q180.1875 24.128124 180.28125 24.565624Q180.32812 24.83125 180.32812 25.534374L180.32812 26.940624Q180.32812 28.409374 180.39062 28.8Q180.46875 29.190624 180.67188 29.55L179.5625 29.55Q179.40625 29.221874 179.35938 28.784374ZM179.26562 26.425Q178.6875 26.659374 177.54688 26.83125Q176.89062 26.925 176.625 27.05Q176.35938 27.159374 176.20312 27.378124Q176.0625 27.596874 176.0625 27.878124Q176.0625 28.3 176.375 28.58125Q176.70312 28.8625 177.3125 28.8625Q177.92188 28.8625 178.39062 28.596874Q178.875 28.33125 179.09375 27.8625Q179.26562 27.503124 179.26562 26.815624L179.26562 26.425ZM187.3125 32.08125Q186.4375 30.971874 185.82812 29.503124Q185.23438 28.01875 185.23438 26.440624Q185.23438 25.05 185.67188 23.76875Q186.20312 22.284374 187.3125 20.815624L188.0625 20.815624Q187.35938 22.034374 187.125 22.55Q186.76562 23.3625 186.5625 24.2375Q186.3125 25.33125 186.3125 26.440624Q186.3125 29.26875 188.0625 32.08125L187.3125 32.08125ZM189.09375 30.065624L190.125 30.221874Q190.1875 30.690624 190.48438 30.909374Q190.875 31.20625 191.54688 31.20625Q192.28125 31.20625 192.67188 30.909374Q193.07812 30.6125 193.21875 30.096874Q193.3125 29.76875 193.29688 28.7375Q192.60938 29.55 191.57812 29.55Q190.29688 29.55 189.59375 28.628124Q188.89062 27.690624 188.89062 26.409374Q188.89062 25.51875 189.20312 24.76875Q189.53125 24.003124 190.14062 23.596874Q190.75 23.190624 191.57812 23.190624Q192.6875 23.190624 193.40625 24.08125L193.40625 23.33125L194.375 23.33125L194.375 28.70625Q194.375 30.159374 194.07812 30.76875Q193.78125 31.378124 193.14062 31.721874Q192.5 32.08125 191.5625 32.08125Q190.45312 32.08125 189.76562 31.58125Q189.07812 31.08125 189.09375 30.065624ZM189.96875 26.33125Q189.96875 27.55 190.45312 28.1125Q190.9375 28.675 191.67188 28.675Q192.40625 28.675 192.89062 28.1125Q193.39062 27.55 193.39062 26.3625Q193.39062 25.221874 192.875 24.64375Q192.375 24.065624 191.65625 24.065624Q190.95312 24.065624 190.45312 24.64375Q189.96875 25.20625 189.96875 26.33125ZM196.98438 32.08125L196.23438 32.08125Q197.98438 29.26875 197.98438 26.440624Q197.98438 25.346874 197.73438 24.253124Q197.53125 23.378124 197.17188 22.565624Q196.9375 22.05 196.23438 20.815624L196.98438 20.815624Q198.07812 22.284374 198.60938 23.76875Q199.0625 25.05 199.0625 26.440624Q199.0625 28.01875 198.45312 29.503124Q197.84375 30.971874 196.98438 32.08125ZM206.96875 29.55L205.92188 29.55L205.92188 22.83125Q205.53125 23.190624 204.90625 23.565624Q204.29688 23.925 203.8125 24.096874L203.8125 23.08125Q204.6875 22.659374 205.34375 22.08125Q206.01562 21.4875 206.29688 20.925L206.96875 20.925L206.96875 29.55ZM213.96875 29.55L212.92188 29.55L212.92188 22.83125Q212.53125 23.190624 211.90625 23.565624Q211.29688 23.925 210.8125 24.096874L210.8125 23.08125Q211.6875 22.659374 212.34375 22.08125Q213.01562 21.4875 213.29688 20.925L213.96875 20.925L213.96875 29.55ZM216.5 29.690624L218.98438 20.815624L219.82812 20.815624L217.34375 29.690624L216.5 29.690624ZM220.0 25.315624Q220.0 23.784374 220.3125 22.8625Q220.625 21.925 221.23438 21.425Q221.85938 20.925 222.79688 20.925Q223.48438 20.925 224.0 21.20625Q224.53125 21.4875 224.875 22.01875Q225.21875 22.534374 225.40625 23.284374Q225.59375 24.034374 225.59375 25.315624Q225.59375 26.83125 225.28125 27.753124Q224.98438 28.675 224.35938 29.190624Q223.75 29.690624 222.79688 29.690624Q221.5625 29.690624 220.84375 28.8Q220.0 27.7375 220.0 25.315624ZM221.07812 25.315624Q221.07812 27.425 221.57812 28.128124Q222.07812 28.83125 222.79688 28.83125Q223.53125 28.83125 224.01562 28.128124Q224.51562 27.425 224.51562 25.315624Q224.51562 23.190624 224.01562 22.503124Q223.53125 21.8 222.78125 21.8Q222.0625 21.8 221.625 22.409374Q221.07812 23.190624 221.07812 25.315624ZM232.54688 28.534374L232.54688 29.55L226.85938 29.55Q226.85938 29.175 226.98438 28.815624Q227.20312 28.2375 227.67188 27.675Q228.15625 27.1125 229.0625 26.378124Q230.46875 25.221874 230.95312 24.55Q231.45312 23.878124 231.45312 23.284374Q231.45312 22.659374 231.0 22.2375Q230.54688 21.8 229.82812 21.8Q229.0625 21.8 228.60938 22.253124Q228.15625 22.70625 228.14062 23.51875L227.0625 23.409374Q227.17188 22.190624 227.89062 21.565624Q228.625 20.925 229.85938 20.925Q231.09375 20.925 231.8125 21.6125Q232.53125 22.3 232.53125 23.315624Q232.53125 23.83125 232.3125 24.33125Q232.10938 24.815624 231.60938 25.378124Q231.125 25.925 230.0 26.878124Q229.04688 27.675 228.76562 27.971874Q228.5 28.253124 228.32812 28.534374L232.54688 28.534374ZM233.5 29.690624L235.98438 20.815624L236.82812 20.815624L234.34375 29.690624L233.5 29.690624ZM242.54688 28.534374L242.54688 29.55L236.85938 29.55Q236.85938 29.175 236.98438 28.815624Q237.20312 28.2375 237.67188 27.675Q238.15625 27.1125 239.0625 26.378124Q240.46875 25.221874 240.95312 24.55Q241.45312 23.878124 241.45312 23.284374Q241.45312 22.659374 241.0 22.2375Q240.54688 21.8 239.82812 21.8Q239.0625 21.8 238.60938 22.253124Q238.15625 22.70625 238.14062 23.51875L237.0625 23.409374Q237.17188 22.190624 237.89062 21.565624Q238.625 20.925 239.85938 20.925Q241.09375 20.925 241.8125 21.6125Q242.53125 22.3 242.53125 23.315624Q242.53125 23.83125 242.3125 24.33125Q242.10938 24.815624 241.60938 25.378124Q241.125 25.925 240.0 26.878124Q239.04688 27.675 238.76562 27.971874Q238.5 28.253124 238.32812 28.534374L242.54688 28.534374ZM244.0 25.315624Q244.0 23.784374 244.3125 22.8625Q244.625 21.925 245.23438 21.425Q245.85938 20.925 246.79688 20.925Q247.48438 20.925 248.0 21.20625Q248.53125 21.4875 248.875 22.01875Q249.21875 22.534374 249.40625 23.284374Q249.59375 24.034374 249.59375 25.315624Q249.59375 26.83125 249.28125 27.753124Q248.98438 28.675 248.35938 29.190624Q247.75 29.690624 246.79688 29.690624Q245.5625 29.690624 244.84375 28.8Q244.0 27.7375 244.0 25.315624ZM245.07812 25.315624Q245.07812 27.425 245.57812 28.128124Q246.07812 28.83125 246.79688 28.83125Q247.53125 28.83125 248.01562 28.128124Q248.51562 27.425 248.51562 25.315624Q248.51562 23.190624 248.01562 22.503124Q247.53125 21.8 246.78125 21.8Q246.0625 21.8 245.625 22.409374Q245.07812 23.190624 245.07812 25.315624ZM256.54688 28.534374L256.54688 29.55L250.85938 29.55Q250.85938 29.175 250.98438 28.815624Q251.20312 28.2375 251.67188 27.675Q252.15625 27.1125 253.0625 26.378124Q254.46875 25.221874 254.95312 24.55Q255.45312 23.878124 255.45312 23.284374Q255.45312 22.659374 255.0 22.2375Q254.54688 21.8 253.82812 21.8Q253.0625 21.8 252.60938 22.253124Q252.15625 22.70625 252.14062 23.51875L251.0625 23.409374Q251.17188 22.190624 251.89062 21.565624Q252.625 20.925 253.85938 20.925Q255.09375 20.925 255.8125 21.6125Q256.53125 22.3 256.53125 23.315624Q256.53125 23.83125 256.3125 24.33125Q256.10938 24.815624 255.60938 25.378124Q255.125 25.925 254.0 26.878124Q253.04688 27.675 252.76562 27.971874Q252.5 28.253124 252.32812 28.534374L256.54688 28.534374ZM258.0 27.3L259.10938 27.20625Q259.23438 28.01875 259.67188 28.425Q260.125 28.83125 260.76562 28.83125Q261.51562 28.83125 262.04688 28.253124Q262.57812 27.675 262.57812 26.7375Q262.57812 25.83125 262.0625 25.315624Q261.5625 24.784374 260.73438 24.784374Q260.23438 24.784374 259.8125 25.01875Q259.40625 25.253124 259.17188 25.6125L258.1875 25.4875L259.01562 21.08125L263.29688 21.08125L263.29688 22.08125L259.85938 22.08125L259.40625 24.39375Q260.17188 23.846874 261.01562 23.846874Q262.14062 23.846874 262.90625 24.628124Q263.6875 25.409374 263.6875 26.64375Q263.6875 27.8 263.01562 28.659374Q262.1875 29.690624 260.76562 29.690624Q259.59375 29.690624 258.84375 29.034374Q258.10938 28.378124 258.0 27.3Z" fill-rule="nonzero"/><path fill="#c0504d" d="M292.5 25.55C292.5 28.863708 289.81372 31.55 286.5 31.55C283.18628 31.55 280.5 28.863708 280.5 25.55C280.5 22.236292 283.18628 19.55 286.5 19.55C289.81372 19.55 292.5 22.236292 292.5 25.55Z" fill-rule="nonzero"/><path fill="#1a1a1a" d="M301.39062 29.55L301.39062 20.95625L303.10938 20.95625L305.14062 27.034374Q305.42188 27.89375 305.54688 28.315624Q305.6875 27.846874 306.0 26.940624L308.0625 20.95625L309.59375 20.95625L309.59375 29.55L308.5 29.55L308.5 22.3625L306.0 29.55L304.96875 29.55L302.48438 22.2375L302.48438 29.55L301.39062 29.55ZM314.35938 28.784374Q313.76562 29.284374 313.21875 29.4875Q312.6875 29.690624 312.0625 29.690624Q311.03125 29.690624 310.48438 29.190624Q309.9375 28.690624 309.9375 27.909374Q309.9375 27.45625 310.14062 27.08125Q310.34375 26.690624 310.6875 26.471874Q311.03125 26.2375 311.45312 26.128124Q311.75 26.034374 312.39062 25.95625Q313.65625 25.815624 314.26562 25.596874Q314.26562 25.378124 314.26562 25.33125Q314.26562 24.675 313.96875 24.409374Q313.5625 24.065624 312.76562 24.065624Q312.03125 24.065624 311.67188 24.33125Q311.3125 24.58125 311.14062 25.2375L310.10938 25.096874Q310.25 24.440624 310.57812 24.034374Q310.90625 23.628124 311.51562 23.409374Q312.125 23.190624 312.92188 23.190624Q313.71875 23.190624 314.21875 23.378124Q314.71875 23.565624 314.95312 23.846874Q315.1875 24.128124 315.28125 24.565624Q315.32812 24.83125 315.32812 25.534374L315.32812 26.940624Q315.32812 28.409374 315.39062 28.8Q315.46875 29.190624 315.67188 29.55L314.5625 29.55Q314.40625 29.221874 314.35938 28.784374ZM314.26562 26.425Q313.6875 26.659374 312.54688 26.83125Q311.89062 26.925 311.625 27.05Q311.35938 27.159374 311.20312 27.378124Q311.0625 27.596874 311.0625 27.878124Q311.0625 28.3 311.375 28.58125Q311.70312 28.8625 312.3125 28.8625Q312.92188 28.8625 313.39062 28.596874Q313.875 28.33125 314.09375 27.8625Q314.26562 27.503124 314.26562 26.815624L314.26562 26.425ZM316.875 27.690624L317.90625 27.534374Q318.0 28.159374 318.39062 28.4875Q318.79688 28.815624 319.53125 28.815624Q320.25 28.815624 320.59375 28.534374Q320.95312 28.2375 320.95312 27.83125Q320.95312 27.471874 320.64062 27.26875Q320.42188 27.128124 319.5625 26.909374Q318.40625 26.6125 317.95312 26.409374Q317.51562 26.190624 317.28125 25.815624Q317.04688 25.440624 317.04688 24.971874Q317.04688 24.565624 317.23438 24.20625Q317.42188 23.846874 317.75 23.6125Q318.0 23.440624 318.42188 23.315624Q318.84375 23.190624 319.34375 23.190624Q320.0625 23.190624 320.60938 23.409374Q321.17188 23.6125 321.4375 23.971874Q321.70312 24.33125 321.79688 24.925L320.76562 25.065624Q320.70312 24.596874 320.35938 24.33125Q320.03125 24.05 319.40625 24.05Q318.6875 24.05 318.375 24.3Q318.0625 24.534374 318.0625 24.8625Q318.0625 25.065624 318.1875 25.221874Q318.32812 25.39375 318.59375 25.503124Q318.75 25.565624 319.53125 25.76875Q320.65625 26.08125 321.09375 26.26875Q321.53125 26.45625 321.78125 26.815624Q322.03125 27.175 322.03125 27.721874Q322.03125 28.253124 321.71875 28.721874Q321.42188 29.175 320.84375 29.440624Q320.26562 29.690624 319.53125 29.690624Q318.3125 29.690624 317.67188 29.190624Q317.04688 28.675 316.875 27.690624ZM328.35938 28.784374Q327.76562 29.284374 327.21875 29.4875Q326.6875 29.690624 326.0625 29.690624Q325.03125 29.690624 324.48438 29.190624Q323.9375 28.690624 323.9375 27.909374Q323.9375 27.45625 324.14062 27.08125Q324.34375 26.690624 324.6875 26.471874Q325.03125 26.2375 325.45312 26.128124Q325.75 26.034374 326.39062 25.95625Q327.65625 25.815624 328.26562 25.596874Q328.26562 25.378124 328.26562 25.33125Q328.26562 24.675 327.96875 24.409374Q327.5625 24.065624 326.76562 24.065624Q326.03125 24.065624 325.67188 24.33125Q325.3125 24.58125 325.14062 25.2375L324.10938 25.096874Q324.25 24.440624 324.57812 24.034374Q324.90625 23.628124 325.51562 23.409374Q326.125 23.190624 326.92188 23.190624Q327.71875 23.190624 328.21875 23.378124Q328.71875 23.565624 328.95312 23.846874Q329.1875 24.128124 329.28125 24.565624Q329.32812 24.83125 329.32812 25.534374L329.32812 26.940624Q329.32812 28.409374 329.39062 28.8Q329.46875 29.190624 329.67188 29.55L328.5625 29.55Q328.40625 29.221874 328.35938 28.784374ZM328.26562 26.425Q327.6875 26.659374 326.54688 26.83125Q325.89062 26.925 325.625 27.05Q325.35938 27.159374 325.20312 27.378124Q325.0625 27.596874 325.0625 27.878124Q325.0625 28.3 325.375 28.58125Q325.70312 28.8625 326.3125 28.8625Q326.92188 28.8625 327.39062 28.596874Q327.875 28.33125 328.09375 27.8625Q328.26562 27.503124 328.26562 26.815624L328.26562 26.425ZM336.3125 32.08125Q335.4375 30.971874 334.82812 29.503124Q334.23438 28.01875 334.23438 26.440624Q334.23438 25.05 334.67188 23.76875Q335.20312 22.284374 336.3125 20.815624L337.0625 20.815624Q336.35938 22.034374 336.125 22.55Q335.76562 23.3625 335.5625 24.2375Q335.3125 25.33125 335.3125 26.440624Q335.3125 29.26875 337.0625 32.08125L336.3125 32.08125ZM338.09375 30.065624L339.125 30.221874Q339.1875 30.690624 339.48438 30.909374Q339.875 31.20625 340.54688 31.20625Q341.28125 31.20625 341.67188 30.909374Q342.07812 30.6125 342.21875 30.096874Q342.3125 29.76875 342.29688 28.7375Q341.60938 29.55 340.57812 29.55Q339.29688 29.55 338.59375 28.628124Q337.89062 27.690624 337.89062 26.409374Q337.89062 25.51875 338.20312 24.76875Q338.53125 24.003124 339.14062 23.596874Q339.75 23.190624 340.57812 23.190624Q341.6875 23.190624 342.40625 24.08125L342.40625 23.33125L343.375 23.33125L343.375 28.70625Q343.375 30.159374 343.07812 30.76875Q342.78125 31.378124 342.14062 31.721874Q341.5 32.08125 340.5625 32.08125Q339.45312 32.08125 338.76562 31.58125Q338.07812 31.08125 338.09375 30.065624ZM338.96875 26.33125Q338.96875 27.55 339.45312 28.1125Q339.9375 28.675 340.67188 28.675Q341.40625 28.675 341.89062 28.1125Q342.39062 27.55 342.39062 26.3625Q342.39062 25.221874 341.875 24.64375Q341.375 24.065624 340.65625 24.065624Q339.95312 24.065624 339.45312 24.64375Q338.96875 25.20625 338.96875 26.33125ZM345.98438 32.08125L345.23438 32.08125Q346.98438 29.26875 346.98438 26.440624Q346.98438 25.346874 346.73438 24.253124Q346.53125 23.378124 346.17188 22.565624Q345.9375 22.05 345.23438 20.815624L345.98438 20.815624Q347.07812 22.284374 347.60938 23.76875Q348.0625 25.05 348.0625 26.440624Q348.0625 28.01875 347.45312 29.503124Q346.84375 30.971874 345.98438 32.08125ZM355.96875 29.55L354.92188 29.55L354.92188 22.83125Q354.53125 23.190624 353.90625 23.565624Q353.29688 23.925 352.8125 24.096874L352.8125 23.08125Q353.6875 22.659374 354.34375 22.08125Q355.01562 21.4875 355.29688 20.925L355.96875 20.925L355.96875 29.55ZM362.96875 29.55L361.92188 29.55L361.92188 22.83125Q361.53125 23.190624 360.90625 23.565624Q360.29688 23.925 359.8125 24.096874L359.8125 23.08125Q360.6875 22.659374 361.34375 22.08125Q362.01562 21.4875 362.29688 20.925L362.96875 20.925L362.96875 29.55ZM365.5 29.690624L367.98438 20.815624L368.82812 20.815624L366.34375 29.690624L365.5 29.690624ZM369.0 25.315624Q369.0 23.784374 369.3125 22.8625Q369.625 21.925 370.23438 21.425Q370.85938 20.925 371.79688 20.925Q372.48438 20.925 373.0 21.20625Q373.53125 21.4875 373.875 22.01875Q374.21875 22.534374 374.40625 23.284374Q374.59375 24.034374 374.59375 25.315624Q374.59375 26.83125 374.28125 27.753124Q373.98438 28.675 373.35938 29.190624Q372.75 29.690624 371.79688 29.690624Q370.5625 29.690624 369.84375 28.8Q369.0 27.7375 369.0 25.315624ZM370.07812 25.315624Q370.07812 27.425 370.57812 28.128124Q371.07812 28.83125 371.79688 28.83125Q372.53125 28.83125 373.01562 28.128124Q373.51562 27.425 373.51562 25.315624Q373.51562 23.190624 373.01562 22.503124Q372.53125 21.8 371.78125 21.8Q371.0625 21.8 370.625 22.409374Q370.07812 23.190624 370.07812 25.315624ZM376.0 27.284374L377.0625 27.14375Q377.23438 28.034374 377.67188 28.440624Q378.10938 28.83125 378.73438 28.83125Q379.48438 28.83125 380.0 28.315624Q380.51562 27.8 380.51562 27.034374Q380.51562 26.315624 380.03125 25.846874Q379.5625 25.3625 378.82812 25.3625Q378.53125 25.3625 378.07812 25.4875L378.20312 24.55Q378.3125 24.565624 378.375 24.565624Q379.04688 24.565624 379.57812 24.221874Q380.125 23.8625 380.125 23.128124Q380.125 22.55 379.73438 22.175Q379.34375 21.784374 378.71875 21.784374Q378.10938 21.784374 377.6875 22.175Q377.28125 22.565624 377.17188 23.33125L376.10938 23.14375Q376.29688 22.096874 376.98438 21.51875Q377.67188 20.925 378.6875 20.925Q379.39062 20.925 379.98438 21.2375Q380.57812 21.534374 380.89062 22.05Q381.20312 22.565624 381.20312 23.159374Q381.20312 23.70625 380.90625 24.175Q380.60938 24.628124 380.03125 24.89375Q380.78125 25.065624 381.20312 25.628124Q381.625 26.175 381.625 27.01875Q381.625 28.14375 380.79688 28.925Q379.98438 29.70625 378.73438 29.70625Q377.60938 29.70625 376.85938 29.034374Q376.10938 28.346874 376.0 27.284374ZM382.5 29.690624L384.98438 20.815624L385.82812 20.815624L383.34375 29.690624L382.5 29.690624ZM391.54688 28.534374L391.54688 29.55L385.85938 29.55Q385.85938 29.175 385.98438 28.815624Q386.20312 28.2375 386.67188 27.675Q387.15625 27.1125 388.0625 26.378124Q389.46875 25.221874 389.95312 24.55Q390.45312 23.878124 390.45312 23.284374Q390.45312 22.659374 390.0 22.2375Q389.54688 21.8 388.82812 21.8Q388.0625 21.8 387.60938 22.253124Q387.15625 22.70625 387.14062 23.51875L386.0625 23.409374Q386.17188 22.190624 386.89062 21.565624Q387.625 20.925 388.85938 20.925Q390.09375 20.925 390.8125 21.6125Q391.53125 22.3 391.53125 23.315624Q391.53125 23.83125 391.3125 24.33125Q391.10938 24.815624 390.60938 25.378124Q390.125 25.925 389.0 26.878124Q388.04688 27.675 387.76562 27.971874Q387.5 28.253124 387.32812 28.534374L391.54688 28.534374ZM393.0 25.315624Q393.0 23.784374 393.3125 22.8625Q393.625 21.925 394.23438 21.425Q394.85938 20.925 395.79688 20.925Q396.48438 20.925 397.0 21.20625Q397.53125 21.4875 397.875 22.01875Q398.21875 22.534374 398.40625 23.284374Q398.59375 24.034374 398.59375 25.315624Q398.59375 26.83125 398.28125 27.753124Q397.98438 28.675 397.35938 29.190624Q396.75 29.690624 395.79688 29.690624Q394.5625 29.690624 393.84375 28.8Q393.0 27.7375 393.0 25.315624ZM394.07812 25.315624Q394.07812 27.425 394.57812 28.128124Q395.07812 28.83125 395.79688 28.83125Q396.53125 28.83125 397.01562 28.128124Q397.51562 27.425 397.51562 25.315624Q397.51562 23.190624 397.01562 22.503124Q396.53125 21.8 395.78125 21.8Q395.0625 21.8 394.625 22.409374Q394.07812 23.190624 394.07812 25.315624ZM405.54688 28.534374L405.54688 29.55L399.85938 29.55Q399.85938 29.175 399.98438 28.815624Q400.20312 28.2375 400.67188 27.675Q401.15625 27.1125 402.0625 26.378124Q403.46875 25.221874 403.95312 24.55Q404.45312 23.878124 404.45312 23.284374Q404.45312 22.659374 404.0 22.2375Q403.54688 21.8 402.82812 21.8Q402.0625 21.8 401.60938 22.253124Q401.15625 22.70625 401.14062 23.51875L400.0625 23.409374Q400.17188 22.190624 400.89062 21.565624Q401.625 20.925 402.85938 20.925Q404.09375 20.925 404.8125 21.6125Q405.53125 22.3 405.53125 23.315624Q405.53125 23.83125 405.3125 24.33125Q405.10938 24.815624 404.60938 25.378124Q404.125 25.925 403.0 26.878124Q402.04688 27.675 401.76562 27.971874Q401.5 28.253124 401.32812 28.534374L405.54688 28.534374ZM407.0 27.3L408.10938 27.20625Q408.23438 28.01875 408.67188 28.425Q409.125 28.83125 409.76562 28.83125Q410.51562 28.83125 411.04688 28.253124Q411.57812 27.675 411.57812 26.7375Q411.57812 25.83125 411.0625 25.315624Q410.5625 24.784374 409.73438 24.784374Q409.23438 24.784374 408.8125 25.01875Q408.40625 25.253124 408.17188 25.6125L407.1875 25.4875L408.01562 21.08125L412.29688 21.08125L412.29688 22.08125L408.85938 22.08125L408.40625 24.39375Q409.17188 23.846874 410.01562 23.846874Q411.14062 23.846874 411.90625 24.628124Q412.6875 25.409374 412.6875 26.64375Q412.6875 27.8 412.01562 28.659374Q411.1875 29.690624 409.76562 29.690624Q408.59375 29.690624 407.84375 29.034374Q407.10938 28.378124 407.0 27.3Z" fill-rule="nonzero"/></svg>