<svg version="1.1" viewBox="0.0 0.0 600.0 371.0" fill="none" stroke="none" stroke-linecap="square" stroke-miterlimit="10" width="600" height="371" xmlns:xlink="http://www.w3.org/1999/xlink" xmlns="http://www.w3.org/2000/svg"><path fill="#ffffff" d="M0 0L600.0 0L600.0 371.0L0 371.0L0 0Z" fill-rule="nonzero"/><path stroke="#cccccc" stroke-width="1.0" stroke-linecap="butt" d="M92.5 51.5L92.5 332.5" fill-rule="nonzero"/><path stroke="#cccccc" stroke-width="1.0" stroke-linecap="butt" d="M172.5 51.5L172.5 332.5" fill-rule="nonzero"/><path stroke="#cccccc" stroke-width="1.0" stroke-linecap="butt" d="M253.5 51.5L253.5 332.5" fill-rule="nonzero"/><path stroke="#cccccc" stroke-width="1.0" stroke-linecap="butt" d="M333.5 51.5L333.5 332.5" fill-rule="nonzero"/><path stroke="#cccccc" stroke-width="1.0" stroke-linecap="butt" d="M413.5 51.5L413.5 332.5" fill-rule="nonzero"/><path stroke="#cccccc" stroke-width="1.0" stroke-linecap="butt" d="M494.5 51.5L494.5 332.5" fill-rule="nonzero"/><path stroke="#cccccc" stroke-width="1.0" stroke-linecap="butt" d="M574.5 51.5L574.5 332.5" fill-rule="nonzero"/><path stroke="#333333" stroke-width="1.0" stroke-linecap="butt" d="M45.5 332.5L581.5 332.5" fill-rule="nonzero"/><path stroke="#cccccc" stroke-width="1.0" stroke-linecap="butt" d="M45.5 276.5L581.5 276.5" fill-rule="nonzero"/><path stroke="#cccccc" stroke-width="1.0" stroke-linecap="butt" d="M45.5 220.5L581.5 220.5" fill-rule="nonzero"/><path stroke="#cccccc" stroke-width="1.0" stroke-linecap="butt" d="M45.5 164.5L581.5 164.5" fill-rule="nonzero"/><path stroke="#cccccc" stroke-width="1.0" stroke-linecap="butt" d="M45.5 108.5L581.5 108.5" fill-rule="nonzero"/><path stroke="#cccccc" stroke-width="1.0" stroke-linecap="butt" d="M45.5 51.5L581.5 51.5" fill-rule="nonzero"/><clipPath id="id_0"><path d="M45.55 51.916668L581.45 51.916668L581.45 332.45L45.55 332.45L45.55 51.916668Z" clip-rule="nonzero"/></clipPath><path fill="#4f81bd" clip-path="url(#id_0)" d="M56.871784 177.5956C56.871784 180.08089 54.857067 182.0956 52.371784 182.0956C49.886505 182.0956 47.871784 180.08089 47.871784 177.5956C47.871784 175.11032 49.886505 173.0956 52.371784 173.0956C54.857067 173.0956 56.871784 175.11032 56.871784 177.5956Z" fill-rule="nonzero"/><path fill="#4f81bd" clip-path="url(#id_0)" d="M97.04536 198.35507C97.04536 200.84035 95.03064 202.85507 92.54536 202.85507C90.060074 202.85507 88.04536 200.84035 88.04536 198.35507C88.04536 195.86978 90.060074 193.85507 92.54536 193.85507C95.03064 193.85507 97.04536 195.86978 97.04536 198.35507Z" fill-rule="nonzero"/><path fill="#4f81bd" clip-path="url(#id_0)" d="M137.21893 178.15666C137.21893 180.64195 135.20421 182.65666 132.71893 182.65666C130.23364 182.65666 128.21893 180.64195 128.21893 178.15666C128.21893 175.67139 130.23364 173.65666 132.71893 173.65666C135.20421 173.65666 137.21893 175.67139 137.21893 178.15666Z" fill-rule="nonzero"/><path fill="#4f81bd" clip-path="url(#id_0)" d="M177.3925 163.56894C177.3925 166.05421 175.37778 168.06894 172.8925 168.06894C170.40721 168.06894 168.3925 166.05421 168.3925 163.56894C168.3925 161.08365 170.40721 159.06894 172.8925 159.06894C175.37778 159.06894 177.3925 161.08365 177.3925 163.56894Z" fill-rule="nonzero"/><path fill="#4f81bd" clip-path="url(#id_0)" d="M217.56607 160.20253C217.56607 162.68782 215.55135 164.70253 213.06607 164.70253C210.5808 164.70253 208.56607 162.68782 208.56607 160.20253C208.56607 157.71725 210.5808 155.70253 213.06607 155.70253C215.55135 155.70253 217.56607 157.71725 217.56607 160.20253Z" fill-rule="nonzero"/><path fill="#4f81bd" clip-path="url(#id_0)" d="M257.73965 155.714C257.73965 158.19928 255.72493 160.214 253.23964 160.214C250.75436 160.214 248.73964 158.19928 248.73964 155.714C248.73964 153.22871 250.75436 151.214 253.23964 151.214C255.72493 151.214 257.73965 153.22871 257.73965 155.714Z" fill-rule="nonzero"/><path fill="#4f81bd" clip-path="url(#id_0)" d="M297.9132 197.23294C297.9132 199.71822 295.8985 201.73294 293.4132 201.73294C290.92795 201.73294 288.9132 199.71822 288.9132 197.23294C288.9132 194.74765 290.92795 192.73294 293.4132 192.73294C295.8985 192.73294 297.9132 194.74765 297.9132 197.23294Z" fill-rule="nonzero"/><path fill="#4f81bd" clip-path="url(#id_0)" d="M338.0868 186.57266C338.0868 189.05795 336.07205 191.07266 333.5868 191.07266C331.1015 191.07266 329.0868 189.05795 329.0868 186.57266C329.0868 184.08739 331.1015 182.07266 333.5868 182.07266C336.07205 182.07266 338.0868 184.08739 338.0868 186.57266Z" fill-rule="nonzero"/><path fill="#4f81bd" clip-path="url(#id_0)" d="M378.26035 172.546C378.26035 175.03128 376.24564 177.046 373.76035 177.046C371.2751 177.046 369.26035 175.03128 369.26035 172.546C369.26035 170.06071 371.2751 168.046 373.76035 168.046C376.24564 168.046 378.26035 170.06071 378.26035 172.546Z" fill-rule="nonzero"/><path fill="#4f81bd" clip-path="url(#id_0)" d="M418.43393 178.15666C418.43393 180.64195 416.41922 182.65666 413.93393 182.65666C411.44864 182.65666 409.43393 180.64195 409.43393 178.15666C409.43393 175.67139 411.44864 173.65666 413.93393 173.65666C416.41922 173.65666 418.43393 175.67139 418.43393 178.15666Z" fill-rule="nonzero"/><path fill="#4f81bd" clip-path="url(#id_0)" d="M458.6075 169.74066C458.6075 172.22595 456.59277 174.24066 454.1075 174.24066C451.62222 174.24066 449.6075 172.22595 449.6075 169.74066C449.6075 167.25539 451.62222 165.24066 454.1075 165.24066C456.59277 165.24066 458.6075 167.25539 458.6075 169.74066Z" fill-rule="nonzero"/><path fill="#4f81bd" clip-path="url(#id_0)" d="M498.78107 164.13C498.78107 166.61528 496.76636 168.63 494.28107 168.63C491.79578 168.63 489.78107 166.61528 489.78107 164.13C489.78107 161.64471 491.79578 159.63 494.28107 159.63C496.76636 159.63 498.78107 161.64471 498.78107 164.13Z" fill-rule="nonzero"/><path fill="#4f81bd" clip-path="url(#id_0)" d="M538.95465 197.23294C538.95465 199.71822 536.93994 201.73294 534.45465 201.73294C531.96936 201.73294 529.95465 199.71822 529.95465 197.23294C529.95465 194.74765 531.96936 192.73294 534.45465 192.73294C536.93994 192.73294 538.95465 194.74765 538.95465 197.23294Z" fill-rule="nonzero"/><path fill="#4f81bd" clip-path="url(#id_0)" d="M579.12823 169.74066C579.12823 172.22595 577.1135 174.24066 574.62823 174.24066C572.14294 174.24066 570.12823 172.22595 570.12823 169.74066C570.12823 167.25539 572.14294 165.24066 574.62823 165.24066C577.1135 165.24066 579.12823 167.25539 579.12823 169.74066Z" fill-rule="nonzero"/><path fill="#c0504d" clip-path="url(#id_0)" d="M56.871784 122.05C56.871784 124.53528 54.857067 126.55 52.371784 126.55C49.886505 126.55 47.871784 124.53528 47.871784 122.05C47.871784 119.56472 49.886505 117.55 52.371784 117.55C54.857067 117.55 56.871784 119.56472 56.871784 122.05Z" fill-rule="nonzero"/><path fill="#c0504d" clip-path="url(#id_0)" d="M97.04536 132.71027C97.04536 135.19554 95.03064 137.21027 92.54536 137.21027C90.060074 137.21027 88.04536 135.19554 88.04536 132.71027C88.04536 130.22499 90.060074 128.21027 92.54536 128.21027C95.03064 128.21027 97.04536 130.22499 97.04536 132.71027Z" fill-rule="nonzero"/><path fill="#c0504d" clip-path="url(#id_0)" d="M137.21893 131.58813C137.21893 134.07341 135.20421 136.08813 132.71893 136.08813C130.23364 136.08813 128.21893 134.07341 128.21893 131.58813C128.21893 129.10286 130.23364 127.088135 132.71893 127.088135C135.20421 127.088135 137.21893 129.10286 137.21893 131.58813Z" fill-rule="nonzero"/><path fill="#c0504d" clip-path="url(#id_0)" d="M177.3925 117.0004C177.3925 119.48568 175.37778 121.5004 172.8925 121.5004C170.40721 121.5004 168.3925 119.48568 168.3925 117.0004C168.3925 114.51512 170.40721 112.5004 172.8925 112.5004C175.37778 112.5004 177.3925 114.51512 177.3925 117.0004Z" fill-rule="nonzero"/><path fill="#c0504d" clip-path="url(#id_0)" d="M217.56607 99.60733C217.56607 102.09261 215.55135 104.10733 213.06607 104.10733C210.5808 104.10733 208.56607 102.09261 208.56607 99.60733C208.56607 97.122055 210.5808 95.10733 213.06607 95.10733C215.55135 95.10733 217.56607 97.122055 217.56607 99.60733Z" fill-rule="nonzero"/><path fill="#c0504d" clip-path="url(#id_0)" d="M257.73965 95.1188C257.73965 97.60408 255.72493 99.6188 253.23964 99.6188C250.75436 99.6188 248.73964 97.60408 248.73964 95.1188C248.73964 92.63352 250.75436 90.6188 253.23964 90.6188C255.72493 90.6188 257.73965 92.63352 257.73965 95.1188Z" fill-rule="nonzero"/><path fill="#c0504d" clip-path="url(#id_0)" d="M297.9132 118.122536C297.9132 120.60781 295.8985 122.622536 293.4132 122.622536C290.92795 122.622536 288.9132 120.60781 288.9132 118.122536C288.9132 115.63725 290.92795 113.622536 293.4132 113.622536C295.8985 113.622536 297.9132 115.63725 297.9132 118.122536Z" fill-rule="nonzero"/><path fill="#c0504d" clip-path="url(#id_0)" d="M338.0868 117.56147C338.0868 120.046745 336.07205 122.06147 333.5868 122.06147C331.1015 122.06147 329.0868 120.046745 329.0868 117.56147C329.0868 115.07619 331.1015 113.06147 333.5868 113.06147C336.07205 113.06147 338.0868 115.07619 338.0868 117.56147Z" fill-rule="nonzero"/><path fill="#c0504d" clip-path="url(#id_0)" d="M378.26035 95.67986C378.26035 98.165146 376.24564 100.17986 373.76035 100.17986C371.2751 100.17986 369.26035 98.165146 369.26035 95.67986C369.26035 93.19459 371.2751 91.17986 373.76035 91.17986C376.24564 91.17986 378.26035 93.19459 378.26035 95.67986Z" fill-rule="nonzero"/><path fill="#c0504d" clip-path="url(#id_0)" d="M418.43393 152.90866C418.43393 155.39395 416.41922 157.40866 413.93393 157.40866C411.44864 157.40866 409.43393 155.39395 409.43393 152.90866C409.43393 150.42339 411.44864 148.40866 413.93393 148.40866C416.41922 148.40866 418.43393 150.42339 418.43393 152.90866Z" fill-rule="nonzero"/><path fill="#c0504d" clip-path="url(#id_0)" d="M458.6075 91.7524C458.6075 94.23768 456.59277 96.2524 454.1075 96.2524C451.62222 96.2524 449.6075 94.23768 449.6075 91.7524C449.6075 89.26712 451.62222 87.2524 454.1075 87.2524C456.59277 87.2524 458.6075 89.26712 458.6075 91.7524Z" fill-rule="nonzero"/><path fill="#c0504d" clip-path="url(#id_0)" d="M498.78107 137.1988C498.78107 139.68408 496.76636 141.6988 494.28107 141.6988C491.79578 141.6988 489.78107 139.68408 489.78107 137.1988C489.78107 134.71352 491.79578 132.6988 494.28107 132.6988C496.76636 132.6988 498.78107 134.71352 498.78107 137.1988Z" fill-rule="nonzero"/><path fill="#c0504d" clip-path="url(#id_0)" d="M538.95465 182.6452C538.95465 185.13048 536.93994 187.1452 534.45465 187.1452C531.96936 187.1452 529.95465 185.13048 529.95465 182.6452C529.95465 180.15991 531.96936 178.1452 534.45465 178.1452C536.93994 178.1452 538.95465 180.15991 538.95465 182.6452Z" fill-rule="nonzero"/><path fill="#c0504d" clip-path="url(#id_0)" d="M579.12823 124.85533C579.12823 127.340614 577.1135 129.35533 574.62823 129.35533C572.14294 129.35533 570.12823 127.340614 570.12823 124.85533C570.12823 122.37005 572.14294 120.35533 574.62823 120.35533C577.1135 120.35533 579.12823 122.37005 579.12823 124.85533Z" fill-rule="nonzero"/><path fill="#000000" d="M33.05 332.21564Q33.05 330.6844 33.3625 329.7625Q33.675 328.825 34.284374 328.325Q34.909374 327.825 35.846874 327.825Q36.534374 327.825 37.05 328.10626Q37.58125 328.3875 37.925 328.91876Q38.26875 329.4344 38.45625 330.1844Q38.64375 330.9344 38.64375 332.21564Q38.64375 333.73126 38.33125 334.65314Q38.034374 335.575 37.409374 336.09064Q36.8 336.59064 35.846874 336.59064Q34.6125 336.59064 33.89375 335.7Q33.05 334.6375 33.05 332.21564ZM34.128124 332.21564Q34.128124 334.325 34.628124 335.02814Q35.128124 335.73126 35.846874 335.73126Q36.58125 335.73126 37.065624 335.02814Q37.565624 334.325 37.565624 332.21564Q37.565624 330.09064 37.065624 329.40314Q36.58125 328.7 35.83125 328.7Q35.1125 328.7 34.675 329.3094Q34.128124 330.09064 34.128124 332.21564Z" fill-rule="nonzero"/><path fill="#000000" d="M23.01875 280.34332L21.971874 280.34332L21.971874 273.62457Q21.58125 273.98395 20.95625 274.35895Q20.346874 274.71832 19.8625 274.8902L19.8625 273.87457Q20.7375 273.4527 21.39375 272.87457Q22.065624 272.28082 22.346874 271.71832L23.01875 271.71832L23.01875 280.34332ZM26.05 276.10895Q26.05 274.5777 26.3625 273.65582Q26.675 272.71832 27.284374 272.21832Q27.909374 271.71832 28.846874 271.71832Q29.534374 271.71832 30.05 271.99957Q30.58125 272.28082 30.925 272.81207Q31.26875 273.3277 31.45625 274.0777Q31.64375 274.8277 31.64375 276.10895Q31.64375 277.62457 31.33125 278.54645Q31.034374 279.46832 30.409374 279.98395Q29.8 280.48395 28.846874 280.48395Q27.6125 280.48395 26.89375 279.59332Q26.05 278.53082 26.05 276.10895ZM27.128124 276.10895Q27.128124 278.21832 27.628124 278.92145Q28.128124 279.62457 28.846874 279.62457Q29.58125 279.62457 30.065624 278.92145Q30.565624 278.21832 30.565624 276.10895Q30.565624 273.98395 30.065624 273.29645Q29.58125 272.59332 28.83125 272.59332Q28.1125 272.59332 27.675 273.2027Q27.128124 273.98395 27.128124 276.10895ZM33.05 276.10895Q33.05 274.5777 33.3625 273.65582Q33.675 272.71832 34.284374 272.21832Q34.909374 271.71832 35.846874 271.71832Q36.534374 271.71832 37.05 271.99957Q37.58125 272.28082 37.925 272.81207Q38.26875 273.3277 38.45625 274.0777Q38.64375 274.8277 38.64375 276.10895Q38.64375 277.62457 38.33125 278.54645Q38.034374 279.46832 37.409374 279.98395Q36.8 280.48395 35.846874 280.48395Q34.6125 280.48395 33.89375 279.59332Q33.05 278.53082 33.05 276.10895ZM34.128124 276.10895Q34.128124 278.21832 34.628124 278.92145Q35.128124 279.62457 35.846874 279.62457Q36.58125 279.62457 37.065624 278.92145Q37.565624 278.21832 37.565624 276.10895Q37.565624 273.98395 37.065624 273.29645Q36.58125 272.59332 35.83125 272.59332Q35.1125 272.59332 34.675 273.2027Q34.128124 273.98395 34.128124 276.10895Z" fill-rule="nonzero"/><path fill="#000000" d="M24.596874 223.22104L24.596874 224.23666L18.909374 224.23666Q18.909374 223.86166 19.034374 223.50229Q19.253124 222.92416 19.721874 222.36166Q20.20625 221.79916 21.1125 221.06479Q22.51875 219.90854 23.003124 219.23666Q23.503124 218.56479 23.503124 217.97104Q23.503124 217.34604 23.05 216.92416Q22.596874 216.48666 21.878124 216.48666Q21.1125 216.48666 20.659374 216.93979Q20.20625 217.39291 20.190624 218.20541L19.1125 218.09604Q19.221874 216.87729 19.940624 216.25229Q20.675 215.61166 21.909374 215.61166Q23.14375 215.61166 23.8625 216.29916Q24.58125 216.98666 24.58125 218.00229Q24.58125 218.51791 24.3625 219.01791Q24.159374 219.50229 23.659374 220.06479Q23.175 220.61166 22.05 221.56479Q21.096874 222.36166 20.815624 222.65854Q20.55 222.93979 20.378124 223.22104L24.596874 223.22104ZM26.05 220.00229Q26.05 218.47104 26.3625 217.54916Q26.675 216.61166 27.284374 216.11166Q27.909374 215.61166 28.846874 215.61166Q29.534374 215.61166 30.05 215.89291Q30.58125 216.17416 30.925 216.70541Q31.26875 217.22104 31.45625 217.97104Q31.64375 218.72104 31.64375 220.00229Q31.64375 221.51791 31.33125 222.43979Q31.034374 223.36166 30.409374 223.87729Q29.8 224.37729 28.846874 224.37729Q27.6125 224.37729 26.89375 223.48666Q26.05 222.42416 26.05 220.00229ZM27.128124 220.00229Q27.128124 222.11166 27.628124 222.81479Q28.128124 223.51791 28.846874 223.51791Q29.58125 223.51791 30.065624 222.81479Q30.565624 222.11166 30.565624 220.00229Q30.565624 217.87729 30.065624 217.18979Q29.58125 216.48666 28.83125 216.48666Q28.1125 216.48666 27.675 217.09604Q27.128124 217.87729 27.128124 220.00229ZM33.05 220.00229Q33.05 218.47104 33.3625 217.54916Q33.675 216.61166 34.284374 216.11166Q34.909374 215.61166 35.846874 215.61166Q36.534374 215.61166 37.05 215.89291Q37.58125 216.17416 37.925 216.70541Q38.26875 217.22104 38.45625 217.97104Q38.64375 218.72104 38.64375 220.00229Q38.64375 221.51791 38.33125 222.43979Q38.034374 223.36166 37.409374 223.87729Q36.8 224.37729 35.846874 224.37729Q34.6125 224.37729 33.89375 223.48666Q33.05 222.42416 33.05 220.00229ZM34.128124 220.00229Q34.128124 222.11166 34.628124 222.81479Q35.128124 223.51791 35.846874 223.51791Q36.58125 223.51791 37.065624 222.81479Q37.565624 222.11166 37.565624 220.00229Q37.565624 217.87729 37.065624 217.18979Q36.58125 216.48666 35.83125 216.48666Q35.1125 216.48666 34.675 217.09604Q34.128124 217.87729 34.128124 220.00229Z" fill-rule="nonzero"/><path fill="#000000" d="M19.05 165.86438L20.1125 165.72375Q20.284374 166.61438 20.721874 167.02063Q21.159374 167.41125 21.784374 167.41125Q22.534374 167.41125 23.05 166.89563Q23.565624 166.38 23.565624 165.61438Q23.565624 164.89563 23.08125 164.42688Q22.6125 163.9425 21.878124 163.9425Q21.58125 163.9425 21.128124 164.0675L21.253124 163.13Q21.3625 163.14563 21.425 163.14563Q22.096874 163.14563 22.628124 162.80188Q23.175 162.4425 23.175 161.70813Q23.175 161.13 22.784374 160.755Q22.39375 160.36438 21.76875 160.36438Q21.159374 160.36438 20.7375 160.755Q20.33125 161.14563 20.221874 161.91125L19.159374 161.72375Q19.346874 160.67688 20.034374 160.09875Q20.721874 159.505 21.7375 159.505Q22.440624 159.505 23.034374 159.8175Q23.628124 160.11438 23.940624 160.63Q24.253124 161.14563 24.253124 161.73938Q24.253124 162.28625 23.95625 162.755Q23.659374 163.20813 23.08125 163.47375Q23.83125 163.64563 24.253124 164.20813Q24.675 164.755 24.675 165.59875Q24.675 166.72375 23.846874 167.505Q23.034374 168.28625 21.784374 168.28625Q20.659374 168.28625 19.909374 167.61438Q19.159374 166.92688 19.05 165.86438ZM26.05 163.89563Q26.05 162.36438 26.3625 161.4425Q26.675 160.505 27.284374 160.005Q27.909374 159.505 28.846874 159.505Q29.534374 159.505 30.05 159.78625Q30.58125 160.0675 30.925 160.59875Q31.26875 161.11438 31.45625 161.86438Q31.64375 162.61438 31.64375 163.89563Q31.64375 165.41125 31.33125 166.33313Q31.034374 167.255 30.409374 167.77063Q29.8 168.27063 28.846874 168.27063Q27.6125 168.27063 26.89375 167.38Q26.05 166.3175 26.05 163.89563ZM27.128124 163.89563Q27.128124 166.005 27.628124 166.70813Q28.128124 167.41125 28.846874 167.41125Q29.58125 167.41125 30.065624 166.70813Q30.565624 166.005 30.565624 163.89563Q30.565624 161.77063 30.065624 161.08313Q29.58125 160.38 28.83125 160.38Q28.1125 160.38 27.675 160.98938Q27.128124 161.77063 27.128124 163.89563ZM33.05 163.89563Q33.05 162.36438 33.3625 161.4425Q33.675 160.505 34.284374 160.005Q34.909374 159.505 35.846874 159.505Q36.534374 159.505 37.05 159.78625Q37.58125 160.0675 37.925 160.59875Q38.26875 161.11438 38.45625 161.86438Q38.64375 162.61438 38.64375 163.89563Q38.64375 165.41125 38.33125 166.33313Q38.034374 167.255 37.409374 167.77063Q36.8 168.27063 35.846874 168.27063Q34.6125 168.27063 33.89375 167.38Q33.05 166.3175 33.05 163.89563ZM34.128124 163.89563Q34.128124 166.005 34.628124 166.70813Q35.128124 167.41125 35.846874 167.41125Q36.58125 167.41125 37.065624 166.70813Q37.565624 166.005 37.565624 163.89563Q37.565624 161.77063 37.065624 161.08313Q36.58125 160.38 35.83125 160.38Q35.1125 160.38 34.675 160.98938Q34.128124 161.77063 34.128124 163.89563Z" fill-rule="nonzero"/><path fill="#000000" d="M22.425 112.02333L22.425 109.96083L18.70625 109.96083L18.70625 108.99208L22.628124 103.42958L23.4875 103.42958L23.4875 108.99208L24.64375 108.99208L24.64375 109.96083L23.4875 109.96083L23.4875 112.02333L22.425 112.02333ZM22.425 108.99208L22.425 105.132706L19.7375 108.99208L22.425 108.99208ZM26.05 107.788956Q26.05 106.257706 26.3625 105.33583Q26.675 104.39833 27.284374 103.89833Q27.909374 103.39833 28.846874 103.39833Q29.534374 103.39833 30.05 103.67958Q30.58125 103.96083 30.925 104.49208Q31.26875 105.007706 31.45625 105.757706Q31.64375 106.507706 31.64375 107.788956Q31.64375 109.30458 31.33125 110.226456Q31.034374 111.14833 30.409374 111.663956Q29.8 112.163956 28.846874 112.163956Q27.6125 112.163956 26.89375 111.27333Q26.05 110.21083 26.05 107.788956ZM27.128124 107.788956Q27.128124 109.89833 27.628124 110.601456Q28.128124 111.30458 28.846874 111.30458Q29.58125 111.30458 30.065624 110.601456Q30.565624 109.89833 30.565624 107.788956Q30.565624 105.663956 30.065624 104.976456Q29.58125 104.27333 28.83125 104.27333Q28.1125 104.27333 27.675 104.882706Q27.128124 105.663956 27.128124 107.788956ZM33.05 107.788956Q33.05 106.257706 33.3625 105.33583Q33.675 104.39833 34.284374 103.89833Q34.909374 103.39833 35.846874 103.39833Q36.534374 103.39833 37.05 103.67958Q37.58125 103.96083 37.925 104.49208Q38.26875 105.007706 38.45625 105.757706Q38.64375 106.507706 38.64375 107.788956Q38.64375 109.30458 38.33125 110.226456Q38.034374 111.14833 37.409374 111.663956Q36.8 112.163956 35.846874 112.163956Q34.6125 112.163956 33.89375 111.27333Q33.05 110.21083 33.05 107.788956ZM34.128124 107.788956Q34.128124 109.89833 34.628124 110.601456Q35.128124 111.30458 35.846874 111.30458Q36.58125 111.30458 37.065624 110.601456Q37.565624 109.89833 37.565624 107.788956Q37.565624 105.663956 37.065624 104.976456Q36.58125 104.27333 35.83125 104.27333Q35.1125 104.27333 34.675 104.882706Q34.128124 105.663956 34.128124 107.788956Z" fill-rule="nonzero"/><path fill="#000000" d="M19.05 53.666668L20.159374 53.572918Q20.284374 54.385418 20.721874 54.791668Q21.175 55.197918 21.815624 55.197918Q22.565624 55.197918 23.096874 54.619793Q23.628124 54.041668 23.628124 53.104168Q23.628124 52.197918 23.1125 51.682293Q22.6125 51.151043 21.784374 51.151043Q21.284374 51.151043 20.8625 51.385418Q20.45625 51.619793 20.221874 51.979168L19.2375 51.854168L20.065624 47.447918L24.346874 47.447918L24.346874 48.447918L20.909374 48.447918L20.45625 50.760418Q21.221874 50.213543 22.065624 50.213543Q23.190624 50.213543 23.95625 50.994793Q24.7375 51.776043 24.7375 53.010418Q24.7375 54.166668 24.065624 55.026043Q23.2375 56.057293 21.815624 56.057293Q20.64375 56.057293 19.89375 55.401043Q19.159374 54.744793 19.05 53.666668ZM26.05 51.682293Q26.05 50.151043 26.3625 49.229168Q26.675 48.291668 27.284374 47.791668Q27.909374 47.291668 28.846874 47.291668Q29.534374 47.291668 30.05 47.572918Q30.58125 47.854168 30.925 48.385418Q31.26875 48.901043 31.45625 49.651043Q31.64375 50.401043 31.64375 51.682293Q31.64375 53.197918 31.33125 54.119793Q31.034374 55.041668 30.409374 55.557293Q29.8 56.057293 28.846874 56.057293Q27.6125 56.057293 26.89375 55.166668Q26.05 54.104168 26.05 51.682293ZM27.128124 51.682293Q27.128124 53.791668 27.628124 54.494793Q28.128124 55.197918 28.846874 55.197918Q29.58125 55.197918 30.065624 54.494793Q30.565624 53.791668 30.565624 51.682293Q30.565624 49.557293 30.065624 48.869793Q29.58125 48.166668 28.83125 48.166668Q28.1125 48.166668 27.675 48.776043Q27.128124 49.557293 27.128124 51.682293ZM33.05 51.682293Q33.05 50.151043 33.3625 49.229168Q33.675 48.291668 34.284374 47.791668Q34.909374 47.291668 35.846874 47.291668Q36.534374 47.291668 37.05 47.572918Q37.58125 47.854168 37.925 48.385418Q38.26875 48.901043 38.45625 49.651043Q38.64375 50.401043 38.64375 51.682293Q38.64375 53.197918 38.33125 54.119793Q38.034374 55.041668 37.409374 55.557293Q36.8 56.057293 35.846874 56.057293Q34.6125 56.057293 33.89375 55.166668Q33.05 54.104168 33.05 51.682293ZM34.128124 51.682293Q34.128124 53.791668 34.628124 54.494793Q35.128124 55.197918 35.846874 55.197918Q36.58125 55.197918 37.065624 54.494793Q37.565624 53.791668 37.565624 51.682293Q37.565624 49.557293 37.065624 48.869793Q36.58125 48.166668 35.83125 48.166668Q35.1125 48.166668 34.675 48.776043Q34.128124 49.557293 34.128124 51.682293Z" fill-rule="nonzero"/><path fill="#000000" d="M95.09223 348.4344L95.09223 349.45L89.40473 349.45Q89.40473 349.075 89.52973 348.71564Q89.74848 348.1375 90.21723 347.575Q90.70161 347.0125 91.60786 346.27814Q93.01411 345.1219 93.49848 344.45Q93.99848 343.77814 93.99848 343.1844Q93.99848 342.5594 93.54536 342.1375Q93.09223 341.7 92.37348 341.7Q91.60786 341.7 91.15473 342.15314Q90.70161 342.60626 90.68598 343.41876L89.60786 343.3094Q89.71723 342.09064 90.43598 341.46564Q91.17036 340.825 92.40473 340.825Q93.63911 340.825 94.35786 341.5125Q95.07661 342.2 95.07661 343.21564Q95.07661 343.73126 94.85786 344.23126Q94.65473 344.71564 94.15473 345.27814Q93.67036 345.825 92.54536 346.77814Q91.59223 347.575 91.31098 347.8719Q91.04536 348.15314 90.87348 348.4344L95.09223 348.4344Z" fill-rule="nonzero"/><path fill="#000000" d="M173.2675 349.45L173.2675 347.3875L169.54875 347.3875L169.54875 346.41876L173.47063 340.85626L174.33 340.85626L174.33 346.41876L175.48625 346.41876L175.48625 347.3875L174.33 347.3875L174.33 349.45L173.2675 349.45ZM173.2675 346.41876L173.2675 342.5594L170.58 346.41876L173.2675 346.41876Z" fill-rule="nonzero"/><path fill="#000000" d="M255.70839 342.96564L254.66151 343.04376Q254.52089 342.41876 254.27089 342.1375Q253.83339 341.6844 253.20839 341.6844Q252.70839 341.6844 252.31776 341.96564Q251.83339 342.34064 251.53651 343.04376Q251.25526 343.73126 251.23964 345.0125Q251.61464 344.4344 252.16151 344.15314Q252.72401 343.8719 253.33339 343.8719Q254.38026 343.8719 255.11464 344.65314Q255.86464 345.4344 255.86464 346.65314Q255.86464 347.46564 255.50526 348.16876Q255.16151 348.85626 254.55214 349.23126Q253.94276 349.59064 253.17714 349.59064Q251.84901 349.59064 251.02089 348.6219Q250.19276 347.65314 250.19276 345.4344Q250.19276 342.9344 251.11464 341.8094Q251.91151 340.825 253.27089 340.825Q254.28651 340.825 254.92714 341.40314Q255.58339 341.96564 255.70839 342.96564ZM251.41151 346.66876Q251.41151 347.21564 251.63026 347.71564Q251.86464 348.2 252.27089 348.46564Q252.69276 348.73126 253.16151 348.73126Q253.81776 348.73126 254.30214 348.2Q254.78651 347.65314 254.78651 346.73126Q254.78651 345.84064 254.30214 345.325Q253.83339 344.8094 253.11464 344.8094Q252.39589 344.8094 251.89589 345.325Q251.41151 345.84064 251.41151 346.66876Z" fill-rule="nonzero"/><path fill="#000000" d="M332.2118 344.79376Q331.55554 344.54376 331.22742 344.10626Q330.91492 343.65314 330.91492 343.04376Q330.91492 342.10626 331.5868 341.46564Q332.2743 340.825 333.38367 340.825Q334.50867 340.825 335.19617 341.48126Q335.88367 342.1375 335.88367 343.075Q335.88367 343.66876 335.57117 344.10626Q335.25867 344.54376 334.61804 344.79376Q335.41492 345.04376 335.82117 345.6219Q336.22742 346.2 336.22742 346.9969Q336.22742 348.09064 335.44617 348.84064Q334.68054 349.59064 333.3993 349.59064Q332.13367 349.59064 331.35242 348.84064Q330.57117 348.09064 330.57117 346.96564Q330.57117 346.1219 330.99304 345.5594Q331.43054 344.9969 332.2118 344.79376ZM331.99304 342.9969Q331.99304 343.60626 332.38367 343.9969Q332.78992 344.3875 333.41492 344.3875Q334.0243 344.3875 334.41492 344.0125Q334.80554 343.6219 334.80554 343.0594Q334.80554 342.48126 334.3993 342.09064Q333.99304 341.6844 333.3993 341.6844Q332.78992 341.6844 332.38367 342.075Q331.99304 342.46564 331.99304 342.9969ZM331.66492 346.96564Q331.66492 347.41876 331.86804 347.84064Q332.0868 348.2625 332.50867 348.4969Q332.93054 348.73126 333.41492 348.73126Q334.16492 348.73126 334.6493 348.2469Q335.1493 347.7625 335.1493 347.0125Q335.1493 346.2469 334.6493 345.7469Q334.1493 345.2469 333.38367 345.2469Q332.63367 345.2469 332.1493 345.7469Q331.66492 346.23126 331.66492 346.96564Z" fill-rule="nonzero"/><path fill="#000000" d="M411.40268 349.45L410.3558 349.45L410.3558 342.73126Q409.96518 343.09064 409.34018 343.46564Q408.7308 343.825 408.24643 343.9969L408.24643 342.98126Q409.12143 342.5594 409.77768 341.98126Q410.44955 341.3875 410.7308 340.825L411.40268 340.825L411.40268 349.45ZM414.43393 345.21564Q414.43393 343.6844 414.74643 342.7625Q415.05893 341.825 415.6683 341.325Q416.2933 340.825 417.2308 340.825Q417.9183 340.825 418.43393 341.10626Q418.96518 341.3875 419.30893 341.91876Q419.65268 342.4344 419.84018 343.1844Q420.02768 343.9344 420.02768 345.21564Q420.02768 346.73126 419.71518 347.65314Q419.4183 348.575 418.7933 349.09064Q418.18393 349.59064 417.2308 349.59064Q415.99643 349.59064 415.27768 348.7Q414.43393 347.6375 414.43393 345.21564ZM415.51205 345.21564Q415.51205 347.325 416.01205 348.02814Q416.51205 348.73126 417.2308 348.73126Q417.96518 348.73126 418.44955 348.02814Q418.94955 347.325 418.94955 345.21564Q418.94955 343.09064 418.44955 342.40314Q417.96518 341.7 417.21518 341.7Q416.49643 341.7 416.05893 342.3094Q415.51205 343.09064 415.51205 345.21564Z" fill-rule="nonzero"/><path fill="#000000" d="M491.74982 349.45L490.70294 349.45L490.70294 342.73126Q490.31232 343.09064 489.68732 343.46564Q489.07794 343.825 488.59357 343.9969L488.59357 342.98126Q489.46857 342.5594 490.12482 341.98126Q490.7967 341.3875 491.07794 340.825L491.74982 340.825L491.74982 349.45ZM500.32794 348.4344L500.32794 349.45L494.64044 349.45Q494.64044 349.075 494.76544 348.71564Q494.9842 348.1375 495.45294 347.575Q495.93732 347.0125 496.84357 346.27814Q498.24982 345.1219 498.7342 344.45Q499.2342 343.77814 499.2342 343.1844Q499.2342 342.5594 498.78107 342.1375Q498.32794 341.7 497.6092 341.7Q496.84357 341.7 496.39044 342.15314Q495.93732 342.60626 495.9217 343.41876L494.84357 343.3094Q494.95294 342.09064 495.6717 341.46564Q496.40607 340.825 497.64044 340.825Q498.87482 340.825 499.59357 341.5125Q500.31232 342.2 500.31232 343.21564Q500.31232 343.73126 500.09357 344.23126Q499.89044 344.71564 499.39044 345.27814Q498.90607 345.825 497.78107 346.77814Q496.82794 347.575 496.5467 347.8719Q496.28107 348.15314 496.1092 348.4344L500.32794 348.4344Z" fill-rule="nonzero"/><path fill="#000000" d="M572.097 349.45L571.0501 349.45L571.0501 342.73126Q570.6595 343.09064 570.0345 343.46564Q569.4251 343.825 568.94073 343.9969L568.94073 342.98126Q569.81573 342.5594 570.472 341.98126Q571.14386 341.3875 571.4251 340.825L572.097 340.825L572.097 349.45ZM578.50323 349.45L578.50323 347.3875L574.7845 347.3875L574.7845 346.41876L578.70636 340.85626L579.56573 340.85626L579.56573 346.41876L580.722 346.41876L580.722 347.3875L579.56573 347.3875L579.56573 349.45L578.50323 349.45ZM578.50323 346.41876L578.50323 342.5594L575.81573 346.41876L578.50323 346.41876Z" fill-rule="nonzero"/><path fill="#4f81bd" d="M112.0 25.55C112.0 28.863708 109.313705 31.55 106.0 31.55C102.686295 31.55 100.0 28.863708 100.0 25.55C100.0 22.236292 102.686295 19.55 106.0 19.55C109.313705 19.55 112.0 22.236292 112.0 25.55Z" fill-rule="nonzero"/><path fill="#1a1a1a" d="M120.875 29.55L120.875 20.95625L122.015625 20.95625L122.015625 28.534374L126.25 28.534374L126.25 29.55L120.875 29.55ZM127.40625 26.440624Q127.40625 24.70625 128.35938 23.878124Q129.15625 23.190624 130.3125 23.190624Q131.59375 23.190624 132.40625 24.034374Q133.23438 24.8625 133.23438 26.346874Q133.23438 27.55 132.875 28.2375Q132.51562 28.925 131.8125 29.315624Q131.125 29.690624 130.3125 29.690624Q129.01562 29.690624 128.20312 28.8625Q127.40625 28.01875 127.40625 26.440624ZM128.48438 26.440624Q128.48438 27.628124 129.0 28.221874Q129.53125 28.815624 130.3125 28.815624Q131.10938 28.815624 131.625 28.221874Q132.14062 27.628124 132.14062 26.409374Q132.14062 25.253124 131.60938 24.659374Q131.09375 24.065624 130.3125 24.065624Q129.53125 24.065624 129.0 24.659374Q128.48438 25.2375 128.48438 26.440624ZM134.79688 29.55L134.79688 23.33125L135.73438 23.33125L135.73438 24.20625Q136.42188 23.190624 137.71875 23.190624Q138.28125 23.190624 138.75 23.39375Q139.23438 23.596874 139.46875 23.925Q139.70312 24.253124 139.79688 24.690624Q139.84375 24.9875 139.84375 25.721874L139.84375 29.55L138.79688 29.55L138.79688 25.76875Q138.79688 25.1125 138.67188 24.8Q138.54688 24.4875 138.23438 24.3Q137.92188 24.096874 137.5 24.096874Q136.82812 24.096874 136.32812 24.534374Q135.84375 24.95625 135.84375 26.14375L135.84375 29.55L134.79688 29.55ZM141.59375 30.065624L142.625 30.221874Q142.6875 30.690624 142.98438 30.909374Q143.375 31.20625 144.04688 31.20625Q144.78125 31.20625 145.17188 30.909374Q145.57812 30.6125 145.71875 30.096874Q145.8125 29.76875 145.79688 28.7375Q145.10938 29.55 144.07812 29.55Q142.79688 29.55 142.09375 28.628124Q141.39062 27.690624 141.39062 26.409374Q141.39062 25.51875 141.70312 24.76875Q142.03125 24.003124 142.64062 23.596874Q143.25 23.190624 144.07812 23.190624Q145.1875 23.190624 145.90625 24.08125L145.90625 23.33125L146.875 23.33125L146.875 28.70625Q146.875 30.159374 146.57812 30.76875Q146.28125 31.378124 145.64062 31.721874Q145.0 32.08125 144.0625 32.08125Q142.95312 32.08125 142.26562 31.58125Q141.57812 31.08125 141.59375 30.065624ZM142.46875 26.33125Q142.46875 27.55 142.95312 28.1125Q143.4375 28.675 144.17188 28.675Q144.90625 28.675 145.39062 28.1125Q145.89062 27.55 145.89062 26.3625Q145.89062 25.221874 145.375 24.64375Q144.875 24.065624 144.15625 24.065624Q143.45312 24.065624 142.95312 24.64375Q142.46875 25.20625 142.46875 26.33125ZM148.79688 22.175L148.79688 20.95625L149.85938 20.95625L149.85938 22.175L148.79688 22.175ZM148.79688 29.55L148.79688 23.33125L149.85938 23.33125L149.85938 29.55L148.79688 29.55ZM154.09375 28.6125L154.25 29.534374Q153.79688 29.628124 153.45312 29.628124Q152.875 29.628124 152.5625 29.45625Q152.25 29.26875 152.10938 28.971874Q151.98438 28.675 151.98438 27.721874L151.98438 24.14375L151.21875 24.14375L151.21875 23.33125L151.98438 23.33125L151.98438 21.784374L153.03125 21.159374L153.03125 23.33125L154.09375 23.33125L154.09375 24.14375L153.03125 24.14375L153.03125 27.784374Q153.03125 28.2375 153.07812 28.3625Q153.14062 28.4875 153.26562 28.565624Q153.39062 28.64375 153.625 28.64375Q153.8125 28.64375 154.09375 28.6125ZM158.875 29.55L158.875 28.628124Q158.14062 29.690624 156.89062 29.690624Q156.34375 29.690624 155.85938 29.4875Q155.39062 29.26875 155.15625 28.95625Q154.92188 28.628124 154.82812 28.159374Q154.76562 27.8625 154.76562 27.175L154.76562 23.33125L155.82812 23.33125L155.82812 26.784374Q155.82812 27.596874 155.89062 27.89375Q155.98438 28.3 156.29688 28.55Q156.625 28.784374 157.10938 28.784374Q157.57812 28.784374 157.98438 28.55Q158.40625 28.3 158.57812 27.878124Q158.76562 27.45625 158.76562 26.659374L158.76562 23.33125L159.8125 23.33125L159.8125 29.55L158.875 29.55ZM165.82812 29.55L165.82812 28.76875Q165.23438 29.690624 164.09375 29.690624Q163.34375 29.690624 162.71875 29.284374Q162.09375 28.8625 161.75 28.128124Q161.40625 27.39375 161.40625 26.440624Q161.40625 25.51875 161.71875 24.753124Q162.03125 23.9875 162.65625 23.596874Q163.28125 23.190624 164.04688 23.190624Q164.60938 23.190624 165.04688 23.425Q165.48438 23.659374 165.76562 24.034374L165.76562 20.95625L166.8125 20.95625L166.8125 29.55L165.82812 29.55ZM162.5 26.440624Q162.5 27.64375 163.0 28.2375Q163.5 28.815624 164.1875 28.815624Q164.875 28.815624 165.35938 28.253124Q165.84375 27.690624 165.84375 26.534374Q165.84375 25.253124 165.34375 24.659374Q164.85938 24.065624 164.14062 24.065624Q163.4375 24.065624 162.96875 24.64375Q162.5 25.20625 162.5 26.440624ZM174.09375 28.6125L174.25 29.534374Q173.79688 29.628124 173.45312 29.628124Q172.875 29.628124 172.5625 29.45625Q172.25 29.26875 172.10938 28.971874Q171.98438 28.675 171.98438 27.721874L171.98438 24.14375L171.21875 24.14375L171.21875 23.33125L171.98438 23.33125L171.98438 21.784374L173.03125 21.159374L173.03125 23.33125L174.09375 23.33125L174.09375 24.14375L173.03125 24.14375L173.03125 27.784374Q173.03125 28.2375 173.07812 28.3625Q173.14062 28.4875 173.26562 28.565624Q173.39062 28.64375 173.625 28.64375Q173.8125 28.64375 174.09375 28.6125ZM174.40625 26.440624Q174.40625 24.70625 175.35938 23.878124Q176.15625 23.190624 177.3125 23.190624Q178.59375 23.190624 179.40625 24.034374Q180.23438 24.8625 180.23438 26.346874Q180.23438 27.55 179.875 28.2375Q179.51562 28.925 178.8125 29.315624Q178.125 29.690624 177.3125 29.690624Q176.01562 29.690624 175.20312 28.8625Q174.40625 28.01875 174.40625 26.440624ZM175.48438 26.440624Q175.48438 27.628124 176.0 28.221874Q176.53125 28.815624 177.3125 28.815624Q178.10938 28.815624 178.625 28.221874Q179.14062 27.628124 179.14062 26.409374Q179.14062 25.253124 178.60938 24.659374Q178.09375 24.065624 177.3125 24.065624Q176.53125 24.065624 176.0 24.659374Q175.48438 25.2375 175.48438 26.440624ZM184.09375 28.6125L184.25 29.534374Q183.79688 29.628124 183.45312 29.628124Q182.875 29.628124 182.5625 29.45625Q182.25 29.26875 182.10938 28.971874Q181.98438 28.675 181.98438 27.721874L181.98438 24.14375L181.21875 24.14375L181.21875 23.33125L181.98438 23.33125L181.98438 21.784374L183.03125 21.159374L183.03125 23.33125L184.09375 23.33125L184.09375 24.14375L183.03125 24.14375L183.03125 27.784374Q183.03125 28.2375 183.07812 28.3625Q183.14062 28.4875 183.26562 28.565624Q183.39062 28.64375 183.625 28.64375Q183.8125 28.64375 184.09375 28.6125ZM188.85938 28.784374Q188.26562 29.284374 187.71875 29.4875Q187.1875 29.690624 186.5625 29.690624Q185.53125 29.690624 184.98438 29.190624Q184.4375 28.690624 184.4375 27.909374Q184.4375 27.45625 184.64062 27.08125Q184.84375 26.690624 185.1875 26.471874Q185.53125 26.2375 185.95312 26.128124Q186.25 26.034374 186.89062 25.95625Q188.15625 25.815624 188.76562 25.596874Q188.76562 25.378124 188.76562 25.33125Q188.76562 24.675 188.46875 24.409374Q188.0625 24.065624 187.26562 24.065624Q186.53125 24.065624 186.17188 24.33125Q185.8125 24.58125 185.64062 25.2375L184.60938 25.096874Q184.75 24.440624 185.07812 24.034374Q185.40625 23.628124 186.01562 23.409374Q186.625 23.190624 187.42188 23.190624Q188.21875 23.190624 188.71875 23.378124Q189.21875 23.565624 189.45312 23.846874Q189.6875 24.128124 189.78125 24.565624Q189.82812 24.83125 189.82812 25.534374L189.82812 26.940624Q189.82812 28.409374 189.89062 28.8Q189.96875 29.190624 190.17188 29.55L189.0625 29.55Q188.90625 29.221874 188.85938 28.784374ZM188.76562 26.425Q188.1875 26.659374 187.04688 26.83125Q186.39062 26.925 186.125 27.05Q185.85938 27.159374 185.70312 27.378124Q185.5625 27.596874 185.5625 27.878124Q185.5625 28.3 185.875 28.58125Q186.20312 28.8625 186.8125 28.8625Q187.42188 28.8625 187.89062 28.596874Q188.375 28.33125 188.59375 27.8625Q188.76562 27.503124 188.76562 26.815624L188.76562 26.425ZM191.76562 29.55L191.76562 20.95625L192.82812 20.95625L192.82812 29.55L191.76562 29.55ZM199.8125 32.08125Q198.9375 30.971874 198.32812 29.503124Q197.73438 28.01875 197.73438 26.440624Q197.73438 25.05 198.17188 23.76875Q198.70312 22.284374 199.8125 20.815624L200.5625 20.815624Q199.85938 22.034374 199.625 22.55Q199.26562 23.3625 199.0625 24.2375Q198.8125 25.33125 198.8125 26.440624Q198.8125 29.26875 200.5625 32.08125L199.8125 32.08125ZM201.79688 29.55L201.79688 23.33125L202.73438 23.33125L202.73438 24.20625Q203.03125 23.7375 203.51562 23.471874Q204.0 23.190624 204.625 23.190624Q205.3125 23.190624 205.75 23.471874Q206.20312 23.753124 206.375 24.26875Q207.125 23.190624 208.29688 23.190624Q209.23438 23.190624 209.71875 23.70625Q210.21875 24.20625 210.21875 25.284374L210.21875 29.55L209.17188 29.55L209.17188 25.628124Q209.17188 25.003124 209.0625 24.721874Q208.96875 24.440624 208.70312 24.26875Q208.4375 24.096874 208.0625 24.096874Q207.40625 24.096874 206.96875 24.534374Q206.54688 24.971874 206.54688 25.940624L206.54688 29.55L205.48438 29.55L205.48438 25.503124Q205.48438 24.8 205.21875 24.45625Q204.96875 24.096874 204.39062 24.096874Q203.9375 24.096874 203.5625 24.33125Q203.1875 24.565624 203.01562 25.01875Q202.84375 25.471874 202.84375 26.315624L202.84375 29.55L201.79688 29.55ZM212.79688 29.55L212.79688 23.33125L213.73438 23.33125L213.73438 24.20625Q214.03125 23.7375 214.51562 23.471874Q215.0 23.190624 215.625 23.190624Q216.3125 23.190624 216.75 23.471874Q217.20312 23.753124 217.375 24.26875Q218.125 23.190624 219.29688 23.190624Q220.23438 23.190624 220.71875 23.70625Q221.21875 24.20625 221.21875 25.284374L221.21875 29.55L220.17188 29.55L220.17188 25.628124Q220.17188 25.003124 220.0625 24.721874Q219.96875 24.440624 219.70312 24.26875Q219.4375 24.096874 219.0625 24.096874Q218.40625 24.096874 217.96875 24.534374Q217.54688 24.971874 217.54688 25.940624L217.54688 29.55L216.48438 29.55L216.48438 25.503124Q216.48438 24.8 216.21875 24.45625Q215.96875 24.096874 215.39062 24.096874Q214.9375 24.096874 214.5625 24.33125Q214.1875 24.565624 214.01562 25.01875Q213.84375 25.471874 213.84375 26.315624L213.84375 29.55L212.79688 29.55ZM224.48438 32.08125L223.73438 32.08125Q225.48438 29.26875 225.48438 26.440624Q225.48438 25.346874 225.23438 24.253124Q225.03125 23.378124 224.67188 22.565624Q224.4375 22.05 223.73438 20.815624L224.48438 20.815624Q225.57812 22.284374 226.10938 23.76875Q226.5625 25.05 226.5625 26.440624Q226.5625 28.01875 225.95312 29.503124Q225.34375 30.971874 224.48438 32.08125ZM234.46875 29.55L233.42188 29.55L233.42188 22.83125Q233.03125 23.190624 232.40625 23.565624Q231.79688 23.925 231.3125 24.096874L231.3125 23.08125Q232.1875 22.659374 232.84375 22.08125Q233.51562 21.4875 233.79688 20.925L234.46875 20.925L234.46875 29.55ZM241.46875 29.55L240.42188 29.55L240.42188 22.83125Q240.03125 23.190624 239.40625 23.565624Q238.79688 23.925 238.3125 24.096874L238.3125 23.08125Q239.1875 22.659374 239.84375 22.08125Q240.51562 21.4875 240.79688 20.925L241.46875 20.925L241.46875 29.55ZM244.0 29.690624L246.48438 20.815624L247.32812 20.815624L244.84375 29.690624L244.0 29.690624ZM247.5 25.315624Q247.5 23.784374 247.8125 22.8625Q248.125 21.925 248.73438 21.425Q249.35938 20.925 250.29688 20.925Q250.98438 20.925 251.5 21.20625Q252.03125 21.4875 252.375 22.01875Q252.71875 22.534374 252.90625 23.284374Q253.09375 24.034374 253.09375 25.315624Q253.09375 26.83125 252.78125 27.753124Q252.48438 28.675 251.85938 29.190624Q251.25 29.690624 250.29688 29.690624Q249.0625 29.690624 248.34375 28.8Q247.5 27.7375 247.5 25.315624ZM248.57812 25.315624Q248.57812 27.425 249.07812 28.128124Q249.57812 28.83125 250.29688 28.83125Q251.03125 28.83125 251.51562 28.128124Q252.01562 27.425 252.01562 25.315624Q252.01562 23.190624 251.51562 22.503124Q251.03125 21.8 250.28125 21.8Q249.5625 21.8 249.125 22.409374Q248.57812 23.190624 248.57812 25.315624ZM260.04688 28.534374L260.04688 29.55L254.35938 29.55Q254.35938 29.175 254.48438 28.815624Q254.70312 28.2375 255.17188 27.675Q255.65625 27.1125 256.5625 26.378124Q257.96875 25.221874 258.45312 24.55Q258.95312 23.878124 258.95312 23.284374Q258.95312 22.659374 258.5 22.2375Q258.04688 21.8 257.32812 21.8Q256.5625 21.8 256.10938 22.253124Q255.65625 22.70625 255.64062 23.51875L254.5625 23.409374Q254.67188 22.190624 255.39062 21.565624Q256.125 20.925 257.35938 20.925Q258.59375 20.925 259.3125 21.6125Q260.03125 22.3 260.03125 23.315624Q260.03125 23.83125 259.8125 24.33125Q259.60938 24.815624 259.10938 25.378124Q258.625 25.925 257.5 26.878124Q256.54688 27.675 256.26562 27.971874Q256.0 28.253124 255.82812 28.534374L260.04688 28.534374ZM261.0 29.690624L263.48438 20.815624L264.32812 20.815624L261.84375 29.690624L261.0 29.690624ZM270.04688 28.534374L270.04688 29.55L264.35938 29.55Q264.35938 29.175 264.48438 28.815624Q264.70312 28.2375 265.17188 27.675Q265.65625 27.1125 266.5625 26.378124Q267.96875 25.221874 268.45312 24.55Q268.95312 23.878124 268.95312 23.284374Q268.95312 22.659374 268.5 22.2375Q268.04688 21.8 267.32812 21.8Q266.5625 21.8 266.10938 22.253124Q265.65625 22.70625 265.64062 23.51875L264.5625 23.409374Q264.67188 22.190624 265.39062 21.565624Q266.125 20.925 267.35938 20.925Q268.59375 20.925 269.3125 21.6125Q270.03125 22.3 270.03125 23.315624Q270.03125 23.83125 269.8125 24.33125Q269.60938 24.815624 269.10938 25.378124Q268.625 25.925 267.5 26.878124Q266.54688 27.675 266.26562 27.971874Q266.0 28.253124 265.82812 28.534374L270.04688 28.534374ZM271.5 25.315624Q271.5 23.784374 271.8125 22.8625Q272.125 21.925 272.73438 21.425Q273.35938 20.925 274.29688 20.925Q274.98438 20.925 275.5 21.20625Q276.03125 21.4875 276.375 22.01875Q276.71875 22.534374 276.90625 23.284374Q277.09375 24.034374 277.09375 25.315624Q277.09375 26.83125 276.78125 27.753124Q276.48438 28.675 275.85938 29.190624Q275.25 29.690624 274.29688 29.690624Q273.0625 29.690624 272.34375 28.8Q271.5 27.7375 271.5 25.315624ZM272.57812 25.315624Q272.57812 27.425 273.07812 28.128124Q273.57812 28.83125 274.29688 28.83125Q275.03125 28.83125 275.51562 28.128124Q276.01562 27.425 276.01562 25.315624Q276.01562 23.190624 275.51562 22.503124Q275.03125 21.8 274.28125 21.8Q273.5625 21.8 273.125 22.409374Q272.57812 23.190624 272.57812 25.315624ZM284.04688 28.534374L284.04688 29.55L278.35938 29.55Q278.35938 29.175 278.48438 28.815624Q278.70312 28.2375 279.17188 27.675Q279.65625 27.1125 280.5625 26.378124Q281.96875 25.221874 282.45312 24.55Q282.95312 23.878124 282.95312 23.284374Q282.95312 22.659374 282.5 22.2375Q282.04688 21.8 281.32812 21.8Q280.5625 21.8 280.10938 22.253124Q279.65625 22.70625 279.64062 23.51875L278.5625 23.409374Q278.67188 22.190624 279.39062 21.565624Q280.125 20.925 281.35938 20.925Q282.59375 20.925 283.3125 21.6125Q284.03125 22.3 284.03125 23.315624Q284.03125 23.83125 283.8125 24.33125Q283.60938 24.815624 283.10938 25.378124Q282.625 25.925 281.5 26.878124Q280.54688 27.675 280.26562 27.971874Q280.0 28.253124 279.82812 28.534374L284.04688 28.534374ZM285.5 27.3L286.60938 27.20625Q286.73438 28.01875 287.17188 28.425Q287.625 28.83125 288.26562 28.83125Q289.01562 28.83125 289.54688 28.253124Q290.07812 27.675 290.07812 26.7375Q290.07812 25.83125 289.5625 25.315624Q289.0625 24.784374 288.23438 24.784374Q287.73438 24.784374 287.3125 25.01875Q286.90625 25.253124 286.67188 25.6125L285.6875 25.4875L286.51562 21.08125L290.79688 21.08125L290.79688 22.08125L287.35938 22.08125L286.90625 24.39375Q287.67188 23.846874 288.51562 23.846874Q289.64062 23.846874 290.40625 24.628124Q291.1875 25.409374 291.1875 26.64375Q291.1875 27.8 290.51562 28.659374Q289.6875 29.690624 288.26562 29.690624Q287.09375 29.690624 286.34375 29.034374Q285.60938 28.378124 285.5 27.3Z" fill-rule="nonzero"/><path fill="#c0504d" d="M320.0 25.55C320.0 28.863708 317.31372 31.55 314.0 31.55C310.68628 31.55 308.0 28.863708 308.0 25.55C308.0 22.236292 310.68628 19.55 314.0 19.55C317.31372 19.55 320.0 22.236292 320.0 25.55Z" fill-rule="nonzero"/><path fill="#1a1a1a" d="M328.875 29.55L328.875 20.95625L330.01562 20.95625L330.01562 28.534374L334.25 28.534374L334.25 29.55L328.875 29.55ZM335.40625 26.440624Q335.40625 24.70625 336.35938 23.878124Q337.15625 23.190624 338.3125 23.190624Q339.59375 23.190624 340.40625 24.034374Q341.23438 24.8625 341.23438 26.346874Q341.23438 27.55 340.875 28.2375Q340.51562 28.925 339.8125 29.315624Q339.125 29.690624 338.3125 29.690624Q337.01562 29.690624 336.20312 28.8625Q335.40625 28.01875 335.40625 26.440624ZM336.48438 26.440624Q336.48438 27.628124 337.0 28.221874Q337.53125 28.815624 338.3125 28.815624Q339.10938 28.815624 339.625 28.221874Q340.14062 27.628124 340.14062 26.409374Q340.14062 25.253124 339.60938 24.659374Q339.09375 24.065624 338.3125 24.065624Q337.53125 24.065624 337.0 24.659374Q336.48438 25.2375 336.48438 26.440624ZM342.79688 29.55L342.79688 23.33125L343.73438 23.33125L343.73438 24.20625Q344.42188 23.190624 345.71875 23.190624Q346.28125 23.190624 346.75 23.39375Q347.23438 23.596874 347.46875 23.925Q347.70312 24.253124 347.79688 24.690624Q347.84375 24.9875 347.84375 25.721874L347.84375 29.55L346.79688 29.55L346.79688 25.76875Q346.79688 25.1125 346.67188 24.8Q346.54688 24.4875 346.23438 24.3Q345.92188 24.096874 345.5 24.096874Q344.82812 24.096874 344.32812 24.534374Q343.84375 24.95625 343.84375 26.14375L343.84375 29.55L342.79688 29.55ZM349.59375 30.065624L350.625 30.221874Q350.6875 30.690624 350.98438 30.909374Q351.375 31.20625 352.04688 31.20625Q352.78125 31.20625 353.17188 30.909374Q353.57812 30.6125 353.71875 30.096874Q353.8125 29.76875 353.79688 28.7375Q353.10938 29.55 352.07812 29.55Q350.79688 29.55 350.09375 28.628124Q349.39062 27.690624 349.39062 26.409374Q349.39062 25.51875 349.70312 24.76875Q350.03125 24.003124 350.64062 23.596874Q351.25 23.190624 352.07812 23.190624Q353.1875 23.190624 353.90625 24.08125L353.90625 23.33125L354.875 23.33125L354.875 28.70625Q354.875 30.159374 354.57812 30.76875Q354.28125 31.378124 353.64062 31.721874Q353.0 32.08125 352.0625 32.08125Q350.95312 32.08125 350.26562 31.58125Q349.57812 31.08125 349.59375 30.065624ZM350.46875 26.33125Q350.46875 27.55 350.95312 28.1125Q351.4375 28.675 352.17188 28.675Q352.90625 28.675 353.39062 28.1125Q353.89062 27.55 353.89062 26.3625Q353.89062 25.221874 353.375 24.64375Q352.875 24.065624 352.15625 24.065624Q351.45312 24.065624 350.95312 24.64375Q350.46875 25.20625 350.46875 26.33125ZM356.79688 22.175L356.79688 20.95625L357.85938 20.95625L357.85938 22.175L356.79688 22.175ZM356.79688 29.55L356.79688 23.33125L357.85938 23.33125L357.85938 29.55L356.79688 29.55ZM362.09375 28.6125L362.25 29.534374Q361.79688 29.628124 361.45312 29.628124Q360.875 29.628124 360.5625 29.45625Q360.25 29.26875 360.10938 28.971874Q359.98438 28.675 359.98438 27.721874L359.98438 24.14375L359.21875 24.14375L359.21875 23.33125L359.98438 23.33125L359.98438 21.784374L361.03125 21.159374L361.03125 23.33125L362.09375 23.33125L362.09375 24.14375L361.03125 24.14375L361.03125 27.784374Q361.03125 28.2375 361.07812 28.3625Q361.14062 28.4875 361.26562 28.565624Q361.39062 28.64375 361.625 28.64375Q361.8125 28.64375 362.09375 28.6125ZM366.875 29.55L366.875 28.628124Q366.14062 29.690624 364.89062 29.690624Q364.34375 29.690624 363.85938 29.4875Q363.39062 29.26875 363.15625 28.95625Q362.92188 28.628124 362.82812 28.159374Q362.76562 27.8625 362.76562 27.175L362.76562 23.33125L363.82812 23.33125L363.82812 26.784374Q363.82812 27.596874 363.89062 27.89375Q363.98438 28.3 364.29688 28.55Q364.625 28.784374 365.10938 28.784374Q365.57812 28.784374 365.98438 28.55Q366.40625 28.3 366.57812 27.878124Q366.76562 27.45625 366.76562 26.659374L366.76562 23.33125L367.8125 23.33125L367.8125 29.55L366.875 29.55ZM373.82812 29.55L373.82812 28.76875Q373.23438 29.690624 372.09375 29.690624Q371.34375 29.690624 370.71875 29.284374Q370.09375 28.8625 369.75 28.128124Q369.40625 27.39375 369.40625 26.440624Q369.40625 25.51875 369.71875 24.753124Q370.03125 23.9875 370.65625 23.596874Q371.28125 23.190624 372.04688 23.190624Q372.60938 23.190624 373.04688 23.425Q373.48438 23.659374 373.76562 24.034374L373.76562 20.95625L374.8125 20.95625L374.8125 29.55L373.82812 29.55ZM370.5 26.440624Q370.5 27.64375 371.0 28.2375Q371.5 28.815624 372.1875 28.815624Q372.875 28.815624 373.35938 28.253124Q373.84375 27.690624 373.84375 26.534374Q373.84375 25.253124 373.34375 24.659374Q372.85938 24.065624 372.14062 24.065624Q371.4375 24.065624 370.96875 24.64375Q370.5 25.20625 370.5 26.440624ZM382.09375 28.6125L382.25 29.534374Q381.79688 29.628124 381.45312 29.628124Q380.875 29.628124 380.5625 29.45625Q380.25 29.26875 380.10938 28.971874Q379.98438 28.675 379.98438 27.721874L379.98438 24.14375L379.21875 24.14375L379.21875 23.33125L379.98438 23.33125L379.98438 21.784374L381.03125 21.159374L381.03125 23.33125L382.09375 23.33125L382.09375 24.14375L381.03125 24.14375L381.03125 27.784374Q381.03125 28.2375 381.07812 28.3625Q381.14062 28.4875 381.26562 28.565624Q381.39062 28.64375 381.625 28.64375Q381.8125 28.64375 382.09375 28.6125ZM382.40625 26.440624Q382.40625 24.70625 383.35938 23.878124Q384.15625 23.190624 385.3125 23.190624Q386.59375 23.190624 387.40625 24.034374Q388.23438 24.8625 388.23438 26.346874Q388.23438 27.55 387.875 28.2375Q387.51562 28.925 386.8125 29.315624Q386.125 29.690624 385.3125 29.690624Q384.01562 29.690624 383.20312 28.8625Q382.40625 28.01875 382.40625 26.440624ZM383.48438 26.440624Q383.48438 27.628124 384.0 28.221874Q384.53125 28.815624 385.3125 28.815624Q386.10938 28.815624 386.625 28.221874Q387.14062 27.628124 387.14062 26.409374Q387.14062 25.253124 386.60938 24.659374Q386.09375 24.065624 385.3125 24.065624Q384.53125 24.065624 384.0 24.659374Q383.48438 25.2375 383.48438 26.440624ZM392.09375 28.6125L392.25 29.534374Q391.79688 29.628124 391.45312 29.628124Q390.875 29.628124 390.5625 29.45625Q390.25 29.26875 390.10938 28.971874Q389.98438 28.675 389.98438 27.721874L389.98438 24.14375L389.21875 24.14375L389.21875 23.33125L389.98438 23.33125L389.98438 21.784374L391.03125 21.159374L391.03125 23.33125L392.09375 23.33125L392.09375 24.14375L391.03125 24.14375L391.03125 27.784374Q391.03125 28.2375 391.07812 28.3625Q391.14062 28.4875 391.26562 28.565624Q391.39062 28.64375 391.625 28.64375Q391.8125 28.64375 392.09375 28.6125ZM396.85938 28.784374Q396.26562 29.284374 395.71875 29.4875Q395.1875 29.690624 394.5625 29.690624Q393.53125 29.690624 392.98438 29.190624Q392.4375 28.690624 392.4375 27.909374Q392.4375 27.45625 392.64062 27.08125Q392.84375 26.690624 393.1875 26.471874Q393.53125 26.2375 393.95312 26.128124Q394.25 26.034374 394.89062 25.95625Q396.15625 25.815624 396.76562 25.596874Q396.76562 25.378124 396.76562 25.33125Q396.76562 24.675 396.46875 24.409374Q396.0625 24.065624 395.26562 24.065624Q394.53125 24.065624 394.17188 24.33125Q393.8125 24.58125 393.64062 25.2375L392.60938 25.096874Q392.75 24.440624 393.07812 24.034374Q393.40625 23.628124 394.01562 23.409374Q394.625 23.190624 395.42188 23.190624Q396.21875 23.190624 396.71875 23.378124Q397.21875 23.565624 397.45312 23.846874Q397.6875 24.128124 397.78125 24.565624Q397.82812 24.83125 397.82812 25.534374L397.82812 26.940624Q397.82812 28.409374 397.89062 28.8Q397.96875 29.190624 398.17188 29.55L397.0625 29.55Q396.90625 29.221874 396.85938 28.784374ZM396.76562 26.425Q396.1875 26.659374 395.04688 26.83125Q394.39062 26.925 394.125 27.05Q393.85938 27.159374 393.70312 27.378124Q393.5625 27.596874 393.5625 27.878124Q393.5625 28.3 393.875 28.58125Q394.20312 28.8625 394.8125 28.8625Q395.42188 28.8625 395.89062 28.596874Q396.375 28.33125 396.59375 27.8625Q396.76562 27.503124 396.76562 26.815624L396.76562 26.425ZM399.76562 29.55L399.76562 20.95625L400.82812 20.95625L400.82812 29.55L399.76562 29.55ZM407.8125 32.08125Q406.9375 30.971874 406.32812 29.503124Q405.73438 28.01875 405.73438 26.440624Q405.73438 25.05 406.17188 23.76875Q406.70312 22.284374 407.8125 20.815624L408.5625 20.815624Q407.85938 22.034374 407.625 22.55Q407.26562 23.3625 407.0625 24.2375Q406.8125 25.33125 406.8125 26.440624Q406.8125 29.26875 408.5625 32.08125L407.8125 32.08125ZM409.79688 29.55L409.79688 23.33125L410.73438 23.33125L410.73438 24.20625Q411.03125 23.7375 411.51562 23.471874Q412.0 23.190624 412.625 23.190624Q413.3125 23.190624 413.75 23.471874Q414.20312 23.753124 414.375 24.26875Q415.125 23.190624 416.29688 23.190624Q417.23438 23.190624 417.71875 23.70625Q418.21875 24.20625 418.21875 25.284374L418.21875 29.55L417.17188 29.55L417.17188 25.628124Q417.17188 25.003124 417.0625 24.721874Q416.96875 24.440624 416.70312 24.26875Q416.4375 24.096874 416.0625 24.096874Q415.40625 24.096874 414.96875 24.534374Q414.54688 24.971874 414.54688 25.940624L414.54688 29.55L413.48438 29.55L413.48438 25.503124Q413.48438 24.8 413.21875 24.45625Q412.96875 24.096874 412.39062 24.096874Q411.9375 24.096874 411.5625 24.33125Q411.1875 24.565624 411.01562 25.01875Q410.84375 25.471874 410.84375 26.315624L410.84375 29.55L409.79688 29.55ZM420.79688 29.55L420.79688 23.33125L421.73438 23.33125L421.73438 24.20625Q422.03125 23.7375 422.51562 23.471874Q423.0 23.190624 423.625 23.190624Q424.3125 23.190624 424.75 23.471874Q425.20312 23.753124 425.375 24.26875Q426.125 23.190624 427.29688 23.190624Q428.23438 23.190624 428.71875 23.70625Q429.21875 24.20625 429.21875 25.284374L429.21875 29.55L428.17188 29.55L428.17188 25.628124Q428.17188 25.003124 428.0625 24.721874Q427.96875 24.440624 427.70312 24.26875Q427.4375 24.096874 427.0625 24.096874Q426.40625 24.096874 425.96875 24.534374Q425.54688 24.971874 425.54688 25.940624L425.54688 29.55L424.48438 29.55L424.48438 25.503124Q424.48438 24.8 424.21875 24.45625Q423.96875 24.096874 423.39062 24.096874Q422.9375 24.096874 422.5625 24.33125Q422.1875 24.565624 422.01562 25.01875Q421.84375 25.471874 421.84375 26.315624L421.84375 29.55L420.79688 29.55ZM432.48438 32.08125L431.73438 32.08125Q433.48438 29.26875 433.48438 26.440624Q433.48438 25.346874 433.23438 24.253124Q433.03125 23.378124 432.67188 22.565624Q432.4375 22.05 431.73438 20.815624L432.48438 20.815624Q433.57812 22.284374 434.10938 23.76875Q434.5625 25.05 434.5625 26.440624Q434.5625 28.01875 433.95312 29.503124Q433.34375 30.971874 432.48438 32.08125ZM442.46875 29.55L441.42188 29.55L441.42188 22.83125Q441.03125 23.190624 440.40625 23.565624Q439.79688 23.925 439.3125 24.096874L439.3125 23.08125Q440.1875 22.659374 440.84375 22.08125Q441.51562 21.4875 441.79688 20.925L442.46875 20.925L442.46875 29.55ZM449.46875 29.55L448.42188 29.55L448.42188 22.83125Q448.03125 23.190624 447.40625 23.565624Q446.79688 23.925 446.3125 24.096874L446.3125 23.08125Q447.1875 22.659374 447.84375 22.08125Q448.51562 21.4875 448.79688 20.925L449.46875 20.925L449.46875 29.55ZM452.0 29.690624L454.48438 20.815624L455.32812 20.815624L452.84375 29.690624L452.0 29.690624ZM455.5 25.315624Q455.5 23.784374 455.8125 22.8625Q456.125 21.925 456.73438 21.425Q457.35938 20.925 458.29688 20.925Q458.98438 20.925 459.5 21.20625Q460.03125 21.4875 460.375 22.01875Q460.71875 22.534374 460.90625 23.284374Q461.09375 24.034374 461.09375 25.315624Q461.09375 26.83125 460.78125 27.753124Q460.48438 28.675 459.85938 29.190624Q459.25 29.690624 458.29688 29.690624Q457.0625 29.690624 456.34375 28.8Q455.5 27.7375 455.5 25.315624ZM456.57812 25.315624Q456.57812 27.425 457.07812 28.128124Q457.57812 28.83125 458.29688 28.83125Q459.03125 28.83125 459.51562 28.128124Q460.01562 27.425 460.01562 25.315624Q460.01562 23.190624 459.51562 22.503124Q459.03125 21.8 458.28125 21.8Q457.5625 21.8 457.125 22.409374Q456.57812 23.190624 456.57812 25.315624ZM462.5 27.284374L463.5625 27.14375Q463.73438 28.034374 464.17188 28.440624Q464.60938 28.83125 465.23438 28.83125Q465.98438 28.83125 466.5 28.315624Q467.01562 27.8 467.01562 27.034374Q467.01562 26.315624 466.53125 25.846874Q466.0625 25.3625 465.32812 25.3625Q465.03125 25.3625 464.57812 25.4875L464.70312 24.55Q464.8125 24.565624 464.875 24.565624Q465.54688 24.565624 466.07812 24.221874Q466.625 23.8625 466.625 23.128124Q466.625 22.55 466.23438 22.175Q465.84375 21.784374 465.21875 21.784374Q464.60938 21.784374 464.1875 22.175Q463.78125 22.565624 463.67188 23.33125L462.60938 23.14375Q462.79688 22.096874 463.48438 21.51875Q464.17188 20.925 465.1875 20.925Q465.89062 20.925 466.48438 21.2375Q467.07812 21.534374 467.39062 22.05Q467.70312 22.565624 467.70312 23.159374Q467.70312 23.70625 467.40625 24.175Q467.10938 24.628124 466.53125 24.89375Q467.28125 25.065624 467.70312 25.628124Q468.125 26.175 468.125 27.01875Q468.125 28.14375 467.29688 28.925Q466.48438 29.70625 465.23438 29.70625Q464.10938 29.70625 463.35938 29.034374Q462.60938 28.346874 462.5 27.284374ZM469.0 29.690624L471.48438 20.815624L472.32812 20.815624L469.84375 29.690624L469.0 29.690624ZM478.04688 28.534374L478.04688 29.55L472.35938 29.55Q472.35938 29.175 472.48438 28.815624Q472.70312 28.2375 473.17188 27.675Q473.65625 27.1125 474.5625 26.378124Q475.96875 25.221874 476.45312 24.55Q476.95312 23.878124 476.95312 23.284374Q476.95312 22.659374 476.5 22.2375Q476.04688 21.8 475.32812 21.8Q474.5625 21.8 474.10938 22.253124Q473.65625 22.70625 473.64062 23.51875L472.5625 23.409374Q472.67188 22.190624 473.39062 21.565624Q474.125 20.925 475.35938 20.925Q476.59375 20.925 477.3125 21.6125Q478.03125 22.3 478.03125 23.315624Q478.03125 23.83125 477.8125 24.33125Q477.60938 24.815624 477.10938 25.378124Q476.625 25.925 475.5 26.878124Q474.54688 27.675 474.26562 27.971874Q474.0 28.253124 473.82812 28.534374L478.04688 28.534374ZM479.5 25.315624Q479.5 23.784374 479.8125 22.8625Q480.125 21.925 480.73438 21.425Q481.35938 20.925 482.29688 20.925Q482.98438 20.925 483.5 21.20625Q484.03125 21.4875 484.375 22.01875Q484.71875 22.534374 484.90625 23.284374Q485.09375 24.034374 485.09375 25.315624Q485.09375 26.83125 484.78125 27.753124Q484.48438 28.675 483.85938 29.190624Q483.25 29.690624 482.29688 29.690624Q481.0625 29.690624 480.34375 28.8Q479.5 27.7375 479.5 25.315624ZM480.57812 25.315624Q480.57812 27.425 481.07812 28.128124Q481.57812 28.83125 482.29688 28.83125Q483.03125 28.83125 483.51562 28.128124Q484.01562 27.425 484.01562 25.315624Q484.01562 23.190624 483.51562 22.503124Q483.03125 21.8 482.28125 21.8Q481.5625 21.8 481.125 22.409374Q480.57812 23.190624 480.57812 25.315624ZM492.04688 28.534374L492.04688 29.55L486.35938 29.55Q486.35938 29.175 486.48438 28.815624Q486.70312 28.2375 487.17188 27.675Q487.65625 27.1125 488.5625 26.378124Q489.96875 25.221874 490.45312 24.55Q490.95312 23.878124 490.95312 23.284374Q490.95312 22.659374 490.5 22.2375Q490.04688 21.8 489.32812 21.8Q488.5625 21.8 488.10938 22.253124Q487.65625 22.70625 487.64062 23.51875L486.5625 23.409374Q486.67188 22.190624 487.39062 21.565624Q488.125 20.925 489.35938 20.925Q490.59375 20.925 491.3125 21.6125Q492.03125 22.3 492.03125 23.315624Q492.03125 23.83125 491.8125 24.33125Q491.60938 24.815624 491.10938 25.378124Q490.625 25.925 489.5 26.878124Q488.54688 27.675 488.26562 27.971874Q488.0 28.253124 487.82812 28.534374L492.04688 28.534374ZM493.5 27.3L494.60938 27.20625Q494.73438 28.01875 495.17188 28.425Q495.625 28.83125 496.26562 28.83125Q497.01562 28.83125 497.54688 28.253124Q498.07812 27.675 498.07812 26.7375Q498.07812 25.83125 497.5625 25.315624Q497.0625 24.784374 496.23438 24.784374Q495.73438 24.784374 495.3125 25.01875Q494.90625 25.253124 494.67188 25.6125L493.6875 25.4875L494.51562 21.08125L498.79688 21.08125L498.79688 22.08125L495.35938 22.08125L494.90625 24.39375Q495.67188 23.846874 496.51562 23.846874Q497.64062 23.846874 498.40625 24.628124Q499.1875 25.409374 499.1875 26.64375Q499.1875 27.8 498.51562 28.659374Q497.6875 29.690624 496.26562 29.690624Q495.09375 29.690624 494.34375 29.034374Q493.60938 28.378124 493.5 27.3Z" fill-rule="nonzero"/></svg>