<?xml version="1.0" standalone="no"?>
<!DOCTYPE svg PUBLIC "-//W3C//DTD SVG 20010904//EN"
 "http://www.w3.org/TR/2001/REC-SVG-20010904/DTD/svg10.dtd">
<svg version="1.0" xmlns="http://www.w3.org/2000/svg"
 width="512.000000pt" height="512.000000pt" viewBox="0 0 512.000000 512.000000"
 preserveAspectRatio="xMidYMid meet">

<g transform="translate(0.000000,512.000000) scale(0.100000,-0.100000)"
fill="#000000" stroke="none">
<path d="M2557 4280 c-3 -14 -13 -63 -22 -110 -21 -108 -60 -225 -123 -365
l-50 -110 -58 -12 c-61 -12 -167 -50 -219 -77 -33 -17 -29 -19 -71 38 -20 29
-28 13 -16 -34 11 -43 1 -60 -21 -38 -8 7 -14 15 -14 18 -10 59 -18 81 -29 91
-8 6 -14 17 -14 23 0 6 -10 20 -22 30 -13 11 -19 13 -15 5 58 -140 74 -175 82
-181 11 -8 12 -7 -72 -72 l-62 -48 -148 7 c-185 8 -258 25 -441 102 -6 3 41
-48 106 -113 173 -173 268 -307 233 -328 -5 -3 -21 -36 -37 -73 -15 -38 -30
-71 -33 -75 -3 -3 -44 3 -91 14 -47 10 -96 22 -110 25 -14 3 -29 9 -35 13 -5
4 -26 11 -45 14 -22 4 15 -19 102 -63 75 -39 139 -75 143 -81 4 -6 4 -28 0
-49 -6 -36 -11 -40 -108 -91 -153 -79 -251 -119 -351 -140 -50 -11 -102 -23
-116 -26 -18 -4 6 -13 85 -29 131 -28 180 -44 351 -120 l130 -59 12 -51 c16
-67 15 -70 -7 -72 -11 -1 -36 -12 -58 -25 -21 -13 -72 -40 -113 -60 -41 -20
-84 -43 -95 -52 -19 -15 -19 -16 8 -6 46 16 276 80 289 80 7 0 30 -36 51 -80
l37 -80 -74 -113 c-51 -78 -107 -145 -182 -220 l-109 -108 80 36 c186 84 321
118 443 112 86 -4 95 -6 122 -33 16 -16 30 -38 30 -49 0 -11 -32 -96 -70 -188
-39 -93 -70 -173 -70 -179 0 -5 22 18 49 51 86 108 216 251 227 251 6 0 32
-11 57 -25 55 -31 171 -71 232 -81 25 -3 45 -10 45 -15 0 -4 21 -57 46 -116
63 -147 98 -250 120 -361 10 -50 21 -92 24 -92 3 0 19 62 36 138 22 95 49 177
88 267 32 72 61 140 66 151 6 14 21 24 47 28 65 12 162 45 231 77 l65 31 28
-31 c15 -18 48 -55 74 -83 25 -28 71 -81 102 -119 31 -38 58 -67 61 -65 2 2
-28 84 -67 181 -39 96 -71 182 -71 190 0 7 17 28 38 45 l37 32 110 -5 c124 -5
225 -31 382 -98 52 -22 97 -39 99 -37 2 2 -47 50 -107 107 -61 57 -115 113
-120 125 -5 12 -35 63 -67 115 l-59 93 36 74 c20 40 42 73 50 73 8 1 28 -3 45
-9 84 -27 249 -70 254 -66 2 3 -22 18 -54 34 -33 16 -89 45 -127 66 -37 20
-74 36 -82 36 -18 0 -19 13 -4 80 7 32 17 53 27 57 10 3 69 29 132 58 145 66
210 88 332 111 54 10 96 19 94 22 -2 2 -53 14 -113 28 -59 13 -130 34 -158 45
-77 32 -289 139 -302 152 -6 7 -13 29 -15 50 l-3 39 144 74 c137 71 162 91 72
59 -23 -8 -79 -23 -124 -34 -45 -11 -89 -22 -99 -26 -13 -5 -25 13 -62 90
l-45 97 70 94 c39 52 121 144 182 204 l112 110 -57 -24 c-120 -53 -223 -74
-386 -80 l-153 -5 -62 45 c-34 25 -63 50 -65 54 -2 5 3 24 11 42 33 72 67 167
67 185 0 30 -79 -124 -83 -162 -2 -20 -7 -35 -10 -35 -4 0 -13 0 -21 0 -8 0
-21 6 -28 13 -7 7 -22 13 -33 14 -11 1 -60 18 -108 38 -48 20 -114 41 -147 47
l-59 11 -65 154 c-68 159 -86 216 -116 368 -13 65 -19 83 -23 65z m22 -357
c11 -125 36 -220 98 -368 l29 -69 90 -26 c116 -33 201 -74 295 -142 42 -30 81
-58 86 -61 6 -4 42 6 80 22 39 16 117 43 174 61 57 18 109 36 114 40 17 12
117 41 122 36 3 -2 -18 -18 -47 -34 -65 -37 -168 -137 -234 -227 -71 -96 -70
-92 -48 -123 50 -71 93 -185 117 -310 21 -110 21 -112 -20 -112 -44 0 -69 -35
-39 -57 10 -7 30 -13 46 -13 32 0 33 -4 18 -100 -14 -89 -44 -179 -93 -278
-38 -78 -43 -83 -66 -78 -156 35 -206 -5 -121 -98 22 -24 40 -48 40 -54 0 -21
-167 -144 -255 -188 -49 -24 -130 -54 -180 -67 l-89 -22 -22 -60 c-12 -33 -33
-92 -47 -130 -27 -76 -57 -225 -57 -290 0 -30 -3 -36 -10 -25 -5 8 -10 37 -10
63 0 76 -27 186 -75 307 -25 62 -45 118 -45 124 0 6 -41 21 -90 33 -49 12
-127 40 -172 62 -102 50 -262 169 -266 198 -3 19 3 22 54 29 82 10 198 -1 282
-28 70 -22 73 -25 114 -89 24 -36 81 -123 127 -193 l84 -127 31 51 c17 28 63
99 101 157 l70 107 105 52 c140 69 233 153 278 252 78 168 41 341 -94 455 -94
78 -208 114 -434 137 -65 6 -102 15 -120 28 -83 62 -46 168 65 186 61 10 131
-14 251 -84 95 -57 115 -65 169 -68 34 -2 71 1 83 7 17 9 244 339 281 410 15
26 6 27 -104 5 -103 -21 -357 -30 -405 -15 -30 10 -45 28 -110 133 -41 67 -96
159 -121 205 l-46 84 -48 -83 c-26 -46 -60 -103 -75 -128 -15 -25 -48 -82 -75
-126 -44 -74 -52 -83 -84 -88 -77 -13 -261 -6 -381 15 -67 11 -124 18 -127 16
-9 -10 131 -251 195 -335 23 -30 24 -35 12 -77 -17 -62 -8 -172 18 -227 46
-94 150 -169 282 -203 35 -9 117 -21 184 -26 148 -12 218 -30 245 -65 28 -35
26 -66 -4 -103 -35 -40 -84 -55 -163 -48 -77 8 -139 35 -249 110 -97 65 -140
81 -197 74 -53 -7 -72 -32 -126 -159 -38 -88 -45 -99 -64 -94 -12 3 -42 6 -67
6 l-46 0 -36 73 c-51 105 -87 222 -94 304 l-6 72 38 3 c41 3 62 25 52 52 -5
11 -19 16 -50 16 l-44 0 9 68 c15 116 93 335 127 356 21 13 11 37 -44 109 -86
113 -153 181 -239 241 -43 31 -76 56 -73 56 2 0 31 -12 63 -26 68 -30 426
-154 446 -154 7 0 40 20 73 45 83 63 235 137 327 160 76 18 78 20 92 59 8 23
33 85 55 139 40 96 45 120 67 330 3 32 7 57 9 55 2 -2 9 -58 14 -125z m103
-717 c44 -9 112 -33 169 -60 74 -36 113 -49 182 -58 59 -8 87 -16 87 -25 0 -7
-4 -13 -10 -13 -5 0 -27 -26 -49 -58 -21 -32 -58 -75 -80 -95 -49 -44 -57 -44
-146 14 -107 68 -150 83 -247 83 -72 1 -91 -2 -114 -20 -48 -36 -67 -69 -67
-118 2 -94 60 -140 195 -156 118 -14 257 -41 264 -51 3 -5 -2 -12 -10 -15 -9
-3 -14 -10 -11 -14 6 -9 -61 -68 -95 -83 -14 -7 -27 -14 -30 -17 -16 -17 -99
-52 -109 -46 -6 4 -16 4 -22 0 -8 -4 -7 -9 2 -15 11 -7 10 -9 -5 -9 -11 0 -16
-5 -13 -14 7 -18 -10 -25 -48 -20 -17 2 -67 6 -112 9 -94 6 -173 24 -232 55
-219 111 -224 367 -13 576 139 137 314 188 514 150z m-1097 -532 c-4 -25 -11
-34 -25 -34 -11 0 -53 -11 -95 -25 -62 -21 -99 -26 -217 -30 -115 -3 -134 -2
-98 6 49 12 192 59 340 112 104 38 108 37 95 -29z m2070 26 c33 -15 94 -38
135 -51 41 -13 77 -27 78 -31 2 -5 13 -8 25 -8 12 -1 47 -7 77 -15 55 -15 55
-15 -70 -11 -97 2 -148 9 -230 31 -58 15 -111 32 -117 38 -7 5 -13 27 -13 48
0 38 1 39 28 33 15 -4 54 -19 87 -34z m-739 -76 c18 -14 18 -14 -6 -3 -31 14
-36 19 -24 19 6 0 19 -7 30 -16z m-157 -286 c72 -75 62 -156 -24 -205 -50 -28
-81 -30 -38 -2 81 52 99 150 39 213 -18 20 -30 36 -25 36 4 0 26 -19 48 -42z
m589 -294 c44 -6 55 -14 175 -133 167 -164 160 -168 -60 -34 -257 157 -297
191 -209 179 25 -3 67 -9 94 -12z m-1448 -3 c0 -14 -86 -74 -182 -127 -49 -26
-88 -51 -88 -56 0 -4 -6 -8 -13 -8 -7 0 -42 -20 -78 -45 -35 -25 -70 -45 -77
-45 -14 0 247 258 281 277 25 14 157 18 157 4z"/>
<path d="M2620 2490 c0 -5 5 -10 10 -10 6 0 10 5 10 10 0 6 -4 10 -10 10 -5 0
-10 -4 -10 -10z"/>
<path d="M2523 2433 c9 -2 23 -2 30 0 6 3 -1 5 -18 5 -16 0 -22 -2 -12 -5z"/>
<path d="M3280 3858 c-12 -22 -12 -22 6 -6 10 10 15 20 12 24 -4 3 -12 -5 -18
-18z"/>
<path d="M1860 3816 c0 -9 5 -16 10 -16 6 0 10 4 10 9 0 6 -4 13 -10 16 -5 3
-10 -1 -10 -9z"/>
<path d="M3256 3815 c-9 -26 -7 -32 5 -12 6 10 9 21 6 23 -2 3 -7 -2 -11 -11z"/>
<path d="M3151 3687 c-13 -21 -12 -21 5 -5 10 10 16 20 13 22 -3 3 -11 -5 -18
-17z"/>
</g>
</svg>
